<?xml version="1.0" encoding="UTF-8"?>
<svg width="193px" height="189px" viewBox="0 0 193 189" version="1.1" xmlns="http://www.w3.org/2000/svg" xmlns:xlink="http://www.w3.org/1999/xlink">
    <!-- Generator: Sketch 55.2 (78181) - https://sketchapp.com -->
    <title>Icon/Eligibility Checks</title>
    <desc>Created with Sketch.</desc>
    <g id="Page-1" stroke="none" stroke-width="1" fill="none" fill-rule="evenodd" stroke-linecap="round" stroke-linejoin="round">
        <g id="Drf_Loans-Mobile" transform="translate(-81.000000, -4926.000000)">
            <g id="Group-2" transform="translate(0.000000, 1383.000000)">
                <g id="Icon/Eligibility-Checks" transform="translate(68.000000, 3524.000000)">
                    <ellipse id="Oval" stroke-opacity="0.6" stroke="#FFFFFF" transform="translate(112.500000, 112.500000) rotate(45.000000) translate(-112.500000, -112.500000) " cx="112.5" cy="112.5" rx="126.5" ry="31.5"></ellipse>
                    <ellipse id="Oval" stroke-opacity="0.6" stroke="#FFFFFF" transform="translate(112.500000, 112.500000) scale(-1, 1) rotate(45.000000) translate(-112.500000, -112.500000) " cx="112.5" cy="112.5" rx="126.5" ry="31.5"></ellipse>
                    <circle id="Oval-Copy-2" stroke="#FFFFFF" stroke-width="2" fill="#FFFFFF" cx="104.5" cy="116.5" r="90.5"></circle>
                    <path d="M104.782417,106.363016 C94.9013754,106.363016 86.8912085,98.4467356 86.8912085,88.6815082 C86.8912085,78.9162809 94.9013754,71 104.782417,71 C114.663459,71 122.673626,78.9162809 122.673626,88.6815082 C122.673626,98.4467356 114.663459,106.363016 104.782417,106.363016 Z M104.782417,114.338784 C110.23887,114.039309 118.090275,110.094511 122.420593,110.942606 C132.494855,112.141524 140.564835,127.751956 140.564835,140.916673 C139.658954,144.079156 134.551897,145.873642 128.160259,146.890092 M83.0260593,147.096965 C75.6834292,146.118848 69.6357534,144.295797 69,140.916673 C69,127.751956 77.0699789,112.141524 87.1442412,110.942606 C91.4745595,110.094511 99.3259637,114.039309 104.782418,114.338784" id="Shape" stroke="#1E9ED2" stroke-width="3"></path>
                    <polygon id="Star" stroke="#1E9ED2" stroke-width="3" points="105.336264 162.657738 104.223423 162.623159 103.114973 162.519558 102.01529 162.347343 100.928714 162.107195 99.8595318 161.800062 98.811964 161.427155 97.7901446 160.989945 96.7981063 160.49016 95.8397642 159.92977 94.9189005 159.310988 94.0391493 158.636256 93.2039827 157.908236 92.4166967 157.129802 91.6803983 156.304025 90.9979933 155.434165 90.372175 154.523655 89.805413 153.576088 89.2999443 152.595204 88.8577636 151.584873 88.4806159 150.549084 88.1699899 149.491923 87.9271112 148.417563 87.7529386 147.330244 87.6481593 146.234258 87.6131868 145.133929 87.6481593 144.033599 87.7529386 142.937613 87.9271112 141.850294 88.1699899 140.775934 88.4806159 139.718774 88.8577636 138.682984 89.2999443 137.672653 89.805413 136.691769 90.372175 135.744202 90.9979933 134.833692 91.6803983 133.963832 92.4166967 133.138055 93.2039827 132.359621 94.0391493 131.631601 94.9189005 130.956869 95.8397642 130.338087 96.7981063 129.777697 97.7901446 129.277912 98.811964 128.840703 99.8595318 128.467795 100.928714 128.160662 102.01529 127.920514 103.114973 127.7483 104.223423 127.644698 105.336264 127.610119 106.449105 127.644698 107.557554 127.7483 108.657237 127.920514 109.743814 128.160662 110.812996 128.467795 111.860564 128.840703 112.882383 129.277912 113.874421 129.777697 114.832763 130.338087 115.753627 130.956869 116.633378 131.631601 117.468545 132.359621 118.255831 133.138055 118.992129 133.963832 119.674534 134.833692 120.300353 135.744202 120.867114 136.691769 121.372583 137.672653 121.814764 138.682984 122.191912 139.718774 122.502538 140.775934 122.745416 141.850294 122.919589 142.937613 123.024368 144.033599 123.059341 145.133929 123.024368 146.234258 122.919589 147.330244 122.745416 148.417563 122.502538 149.491923 122.191912 150.549084 121.814764 151.584873 121.372583 152.595204 120.867114 153.576088 120.300353 154.523655 119.674534 155.434165 118.992129 156.304025 118.255831 157.129802 117.468545 157.908236 116.633378 158.636256 115.753627 159.310988 114.832763 159.92977 113.874421 160.49016 112.882383 160.989945 111.860564 161.427155 110.812996 161.800062 109.743814 162.107195 108.657237 162.347343 107.557554 162.519558 106.449105 162.623159"></polygon>
                    <polyline id="Path-11" stroke="#1E9ED2" stroke-width="3" points="97 145.518773 101.519483 151.037546 113.695896 140"></polyline>
                </g>
            </g>
        </g>
    </g>
</svg>