<?xml version="1.0" encoding="UTF-8"?>
<svg width="193px" height="189px" viewBox="0 0 193 189" version="1.1" xmlns="http://www.w3.org/2000/svg" xmlns:xlink="http://www.w3.org/1999/xlink">
    <!-- Generator: Sketch 55.2 (78181) - https://sketchapp.com -->
    <title>Icon/Hassle Free Processing</title>
    <desc>Created with Sketch.</desc>
    <g id="Page-1" stroke="none" stroke-width="1" fill="none" fill-rule="evenodd" stroke-linecap="round" stroke-linejoin="round">
        <g id="Drf_Loans-Mobile" transform="translate(-81.000000, -3702.000000)">
            <g id="Group-2" transform="translate(0.000000, 1383.000000)">
                <g id="Icon/Hassle-Free-Processing" transform="translate(68.000000, 2300.000000)">
                    <ellipse id="Oval" stroke-opacity="0.6" stroke="#FFFFFF" transform="translate(112.500000, 112.500000) rotate(45.000000) translate(-112.500000, -112.500000) " cx="112.5" cy="112.5" rx="126.5" ry="31.5"></ellipse>
                    <ellipse id="Oval" stroke-opacity="0.6" stroke="#FFFFFF" transform="translate(112.500000, 112.500000) scale(-1, 1) rotate(45.000000) translate(-112.500000, -112.500000) " cx="112.5" cy="112.5" rx="126.5" ry="31.5"></ellipse>
                    <circle id="Oval-Copy-2" stroke="#FFFFFF" stroke-width="2" fill="#FFFFFF" cx="104.5" cy="116.5" r="90.5"></circle>
                    <path d="M104.717396,96.4955733 C97.8486507,96.4955733 92.2804321,91.0120525 92.2804321,84.2477867 C92.2804321,77.4835209 97.8486507,72 104.717396,72 C111.586142,72 117.154361,77.4835209 117.154361,84.2477867 C117.154361,91.0120525 111.586142,96.4955733 104.717396,96.4955733 Z M93.8481529,100.529525 L113.64563,100.529525 C117.523272,100.529525 120.961294,102.995345 122.166018,106.640522 L127.021678,121.332474 L143.540244,129.491421 C145.889869,130.964542 146.685423,133.985135 145.361045,136.404717 C144.170388,138.579997 141.422129,139.388816 139.222637,138.211265 C139.107153,138.149439 138.994444,138.082673 138.884827,138.011158 L121.690792,128.991147 C121.231625,128.691582 120.613848,128.816868 120.310949,129.27098 C120.203579,129.431951 120.146346,129.62055 120.146346,129.813391 L120.146346,139.273314 C120.146346,140.235249 120.84876,141.056536 121.807929,141.216093 L136.298725,143.62663 C138.901599,144.059617 140.807724,146.288323 140.807724,148.898705 C140.807724,151.54534 138.959798,153.841367 136.351895,154.435022 C126.812051,156.606642 119.657168,158.235357 114.887246,159.321167 M90.993357,148.93252 L107.009888,152.216547 C109.212745,152.668221 110.628284,154.800486 110.171583,156.979094 C110.137158,157.143315 110.092397,157.30525 110.037561,157.463953 C109.182564,159.938467 106.609524,161.406783 104.015445,160.900499 L70.176596,154.296205 C67.569824,153.787443 65.6907711,151.526502 65.6907711,148.898705 C65.6907711,146.299043 67.6127846,144.090082 70.2120011,143.702477 L87.0438233,141.192453 C88.0182611,141.047142 88.7388176,140.219009 88.7388176,139.244405 L88.7388176,129.805294 C88.7388176,129.261274 88.2928938,128.820259 87.7428189,128.820259 C87.549089,128.820259 87.3595643,128.876135 87.1974568,128.981045 L69.7387408,138.082116 C67.7648435,139.359546 65.117596,138.812562 63.8259479,136.860393 C63.7290982,136.714016 63.6415357,136.561831 63.563766,136.404717 C62.3459125,133.944345 63.1566525,130.97241 65.4605324,129.451728 L81.0907756,121.332474 L85.2268683,106.966961 C86.3237457,103.157277 89.842941,100.529525 93.8481529,100.529525" id="Shape" stroke="#1E9ED2" stroke-width="3"></path>
                </g>
            </g>
        </g>
    </g>
</svg>