<?xml version="1.0" encoding="UTF-8"?>
<svg width="372px" height="372px" viewBox="0 0 372 372" version="1.1" xmlns="http://www.w3.org/2000/svg" xmlns:xlink="http://www.w3.org/1999/xlink">
    <!-- Generator: Sketch 55.2 (78181) - https://sketchapp.com -->
    <title>Icon/Hero/Investments</title>
    <desc>Created with Sketch.</desc>
    <g id="Page-1" stroke="none" stroke-width="1" fill="none" fill-rule="evenodd">
        <g id="DrF_Investments" transform="translate(-966.000000, -239.000000)">
            <g id="Icon/Hero/Investments" transform="translate(928.000000, 201.000000)">
                <ellipse id="Oval" stroke="#1E9ED2" stroke-width="2" stroke-linecap="round" stroke-linejoin="round" transform="translate(224.000000, 224.000000) scale(-1, 1) rotate(45.000000) translate(-224.000000, -224.000000) " cx="224" cy="224" rx="253" ry="63"></ellipse>
                <ellipse id="Oval" stroke="#1E9ED2" stroke-width="2" stroke-linecap="round" stroke-linejoin="round" transform="translate(224.000000, 224.000000) rotate(45.000000) translate(-224.000000, -224.000000) " cx="224" cy="224" rx="253" ry="63"></ellipse>
                <path d="M224,62 C312.36556,62 384,133.63444 384,222 C384,310.36556 312.36556,382 224,382 C135.63444,382 64,310.36556 64,222 C64,133.63444 135.63444,62 224,62 Z" id="Rectangle" fill="#1E9ED2"></path>
                <g id="Group-17" transform="translate(173.000000, 122.000000)">
                    <path d="M94.5340267,143.294038 L85.3466641,181.92352 C84.7783064,184.313255 82.6433488,186 80.1869562,186 L22.5330438,186 C20.0766512,186 17.9416936,184.313255 17.3733359,181.92352 L8.18597331,143.294038 C7.6883676,141.201789 5.81918005,139.725018 3.66857143,139.725018 C1.64247537,139.725018 -1.96073187e-15,138.082543 0,136.056447 L0,130.681827 C5.29465491e-16,127.752714 2.37451553,125.378198 5.30362888,125.378198 L97.4163711,125.378198 C100.345484,125.378198 102.72,127.752714 102.72,130.681827 L102.72,136.056447 C102.72,138.082543 101.077525,139.725018 99.0514286,139.725018 C96.9008199,139.725018 95.0316324,141.201789 94.5340267,143.294038 Z" id="Path" fill="#FFFFFF"></path>
                    <ellipse id="Combined-Shape" fill="#FFFFFF" cx="51.36" cy="41.4463692" rx="41.73" ry="41.4463692"></ellipse>
                    <path d="M48.651834,49.731499 L61.2228516,62.7756304 C64.561604,66.2400376 59.421663,71.3033829 56.0829107,67.8389756 L47.064527,58.4811825 L52.2044679,53.4178373 C55.5432203,56.8822446 50.4032793,61.9455898 47.064527,58.4811825 L38.0461433,49.1233894 C35.4165942,46.3948765 38.0462861,42.6745598 40.9131886,42.9096312 C41.0277391,42.8973136 41.144086,42.8909946 41.2619088,42.8909946 L46.0860675,42.8909946 C48.1617165,42.518094 50.0272783,40.7433247 51.014083,38.1971034 L36.4137978,38.1971034 C34.630267,38.1971034 33.1844296,36.7353251 33.1844296,34.9321301 C33.1844296,33.1289351 34.630267,31.6671567 36.4137978,31.6671567 L51.5016752,31.6671567 C50.7000327,27.8901382 48.0959294,25.2554966 45.2721796,25.2554965 L36.588187,25.2554965 C31.8039377,25.2554965 31.8039377,18 36.588187,18 L65.411813,18 C70.1960623,18 70.1960623,25.2554965 65.411813,25.2554965 L56.6949806,25.2554965 C57.7522101,27.1598045 58.4743638,29.3388147 58.7742116,31.6671567 L65.2374238,31.6671567 C67.0209546,31.6671567 68.466792,33.1289351 68.466792,34.9321301 C68.466792,36.7353251 67.0209546,38.1971034 65.2374238,38.1971034 L58.4874531,38.1971034 C57.2495745,43.7998156 53.5218854,48.2901485 48.651834,49.731499 Z M52.2044679,53.4178373 L47.064527,58.4811825 L52.2044679,53.4178373 Z" id="Shape" fill="#1E9ED2" fill-rule="nonzero"></path>
                    <path d="M44.9615595,105.76362 L27.9302655,98.4944781 C26.8546749,98.0354043 25.6105837,98.5351899 25.15151,99.6107805 C24.6924362,100.686371 25.1922218,101.930462 26.2678124,102.389536 L44.1192367,110.008718 C44.3908397,110.124641 44.6731869,110.179424 44.9509255,110.179233 L44.9425629,113.651657 C37.2405672,116.558579 30.3070075,116.584388 24.1418612,113.729131 C16.6437875,110.256448 11.1744709,104.303324 7.73391133,95.8697615 C17.5052925,90.8191106 26.140035,90.030095 33.6381388,93.5027147 C38.1497585,95.5922769 41.9268873,98.5798392 44.9695025,102.46545 L44.9615595,105.76362 Z" id="Combined-Shape" fill="#FFFFFF"></path>
                    <path d="M57.7870207,107.345837 C58.0387248,107.352565 58.2958924,107.314188 58.547515,107.225439 L79.3299922,99.8953001 C80.4328653,99.5063084 81.0115805,98.2969129 80.6225887,97.1940398 C80.2335969,96.0911667 79.0242014,95.5124515 77.9213283,95.9014433 L57.7840638,103.004011 L57.7810684,98.6058193 C60.8636822,93.6416532 64.956111,89.6159493 70.0583547,86.5287075 C78.5379887,81.3978902 88.9958096,81.0617482 101.431817,85.5202815 C98.5305058,95.8352611 92.840033,103.55816 84.3603989,108.688977 C77.3882232,112.907668 67.4368357,113.883796 57.7899313,111.619553 L57.7870207,107.345837 Z" id="Combined-Shape" fill="#FFFFFF"></path>
                    <path d="M50.7372767,125.378198 L50.7372767,82.8819367" id="Path-35" stroke="#FFFFFF" stroke-width="4.23500018" stroke-linecap="round" stroke-linejoin="round"></path>
                </g>
            </g>
        </g>
    </g>
</svg>