<?xml version="1.0" encoding="UTF-8"?>
<svg width="193px" height="189px" viewBox="0 0 193 189" version="1.1" xmlns="http://www.w3.org/2000/svg" xmlns:xlink="http://www.w3.org/1999/xlink">
    <!-- Generator: Sketch 55.2 (78181) - https://sketchapp.com -->
    <title>Icon/Variety of products</title>
    <desc>Created with Sketch.</desc>
    <g id="Page-1" stroke="none" stroke-width="1" fill="none" fill-rule="evenodd" stroke-linecap="round" stroke-linejoin="round">
        <g id="DrF_Insurance" transform="translate(-621.000000, -3087.000000)">
            <g id="Group-3" transform="translate(0.000000, 2223.000000)">
                <g id="Icon/Variety-of-products" transform="translate(608.000000, 845.000000)">
                    <ellipse id="Oval" stroke-opacity="0.6" stroke="#FFFFFF" transform="translate(112.500000, 112.500000) rotate(45.000000) translate(-112.500000, -112.500000) " cx="112.5" cy="112.5" rx="126.5" ry="31.5"></ellipse>
                    <ellipse id="Oval" stroke-opacity="0.6" stroke="#FFFFFF" transform="translate(112.500000, 112.500000) scale(-1, 1) rotate(45.000000) translate(-112.500000, -112.500000) " cx="112.5" cy="112.5" rx="126.5" ry="31.5"></ellipse>
                    <circle id="Oval-Copy-2" stroke="#FFFFFF" stroke-width="2" fill="#FFFFFF" cx="104.5" cy="116.5" r="90.5"></circle>
                    <g id="Group-2" transform="translate(76.000000, 76.000000)" stroke="#1E9ED2" stroke-width="3">
                        <path d="M44.8917239,77 L1.34842497,77 C0.603710423,77 -3.28626015e-13,76.3843915 -3.28626015e-13,75.625 L-3.28626015e-13,5.5 C-3.28626015e-13,4.74060847 0.603710423,4.125 1.34842497,4.125 C7.90290191,4.125 12.8187596,4.125 16.0959981,4.125 M36.4106264,4.125 C39.1408756,4.125 43.6345748,4.125 49.8917239,4.125 C50.6364385,4.125 51.2401489,4.74060847 51.2401489,5.5 L51.2401489,23.7639132" id="Shape"></path>
                        <path d="M50.5560465,73.7916667 C42.5933776,68.6915271 38.4182143,63.0447796 36.1717513,58.8525818 C34.7970286,56.2871668 33.4221012,50.3780117 32.0469692,41.1251166 C31.8198549,39.5969117 32.5919616,38.0939255 33.9665155,37.388523 L48.910387,29.7195302 C49.9434472,29.1893777 51.1686458,29.1893777 52.2017059,29.7195302 L67.1455811,37.3885248 C68.520133,38.09393 69.2922395,39.5969158 69.0651233,41.1251198 C67.6899914,50.3780131 66.3150642,56.2871671 64.9403416,58.8525818 C62.6938787,63.0447796 57.9197317,69.7302911 50.5560465,73.7916667 Z" id="Path"></path>
                        <path d="M17.7110997,-4.63629135e-13 L34.8774742,-4.63629135e-13 C35.7224699,-4.63562314e-13 36.4074742,0.685004334 36.4074742,1.53 L36.4074742,6.72 C36.4074742,7.56499567 35.7224699,8.25 34.8774742,8.25 L17.7110997,8.25 C16.866104,8.25 16.1810997,7.56499567 16.1810997,6.72 L16.1810997,1.53 C16.1810997,0.685004334 16.866104,-4.63251867e-13 17.7110997,-4.63629135e-13 Z" id="Rectangle"></path>
                        <polyline id="Path-31" points="44.267952 50.4777778 47.8591965 55.0772506 59.8385635 45.0647911"></polyline>
                    </g>
                </g>
            </g>
        </g>
    </g>
</svg>