<?xml version="1.0" encoding="UTF-8"?>
<svg width="27px" height="31px" viewBox="0 0 27 31" version="1.1" xmlns="http://www.w3.org/2000/svg" xmlns:xlink="http://www.w3.org/1999/xlink">
    <!-- Generator: Sketch 55.2 (78181) - https://sketchapp.com -->
    <title>Icon/Lead Gen</title>
    <desc>Created with Sketch.</desc>
    <g id="Website" stroke="none" stroke-width="1" fill="none" fill-rule="evenodd" stroke-linecap="round" stroke-linejoin="round">
        <g id="Drf_Mobile_Menu" transform="translate(-23.000000, -89.000000)" stroke="#FFFFFF" stroke-width="2">
            <path d="M36.5000002,102.802187 C33.0482202,102.802187 30.2499999,99.9363189 30.2499999,96.4010929 C30.2499999,92.8658669 33.0482202,90 36.5000002,90 C39.9517794,90 42.7499999,92.8658669 42.7499999,96.4010929 C42.7499999,99.9363189 39.9517794,102.802187 36.5000002,102.802187 Z M36.4999998,106.889222 C38.4061222,106.782137 41.1488813,105.371562 42.6616069,105.674823 C46.180885,106.10353 48.9999998,111.685482 48.9999998,116.3929 C48.30662,118.870659 40.5674381,119 36.4999998,119 M36.5,119 C32.4325615,119 24.4436787,118.806776 24,116.3929 C24,111.685482 26.8191146,106.10353 30.3383927,105.674823 C31.8511183,105.371562 34.5938774,106.782137 36.5,106.889222" id="Icon/Lead-Gen"></path>
        </g>
    </g>
</svg>