<?xml version="1.0" encoding="UTF-8"?>
<svg width="18px" height="18px" viewBox="0 0 18 18" version="1.1" xmlns="http://www.w3.org/2000/svg" xmlns:xlink="http://www.w3.org/1999/xlink">
    <!-- Generator: Sketch 55.2 (78181) - https://sketchapp.com -->
    <title>Icon/Contact/Phone</title>
    <desc>Created with Sketch.</desc>
    <g id="Website" stroke="none" stroke-width="1" fill="none" fill-rule="evenodd">
        <g id="Drf_Mobile_FAQs" transform="translate(-27.000000, -1898.000000)">
            <g id="Footer" transform="translate(0.000000, 1201.000000)">
                <g id="Icon/Contact/Phone" transform="translate(24.000000, 694.000000)">
                    <rect id="Rectangle-Copy-4" fill-opacity="0" fill="#D8D8D8" x="0" y="0" width="24" height="24"></rect>
                    <path d="M19.7444831,16.0846925 L17.655268,14.3996808 C17.175776,14.0214129 16.4907874,13.9870249 16.0112954,14.3652928 L14.2303251,15.6720366 C14.0248285,15.8439766 13.7165837,15.8095886 13.5110871,15.6032606 L10.8396317,13.196101 L8.4421717,10.5138375 C8.23667513,10.3075095 8.23667513,10.0324055 8.37367284,9.79168959 L9.67515113,8.00351388 C10.0518948,7.52208196 10.0176454,6.83432208 9.6409017,6.35289016 L7.9626797,4.25522251 C7.44893828,3.63623861 6.52420371,3.56746262 5.94196342,4.15205852 L4.16099314,5.94023423 C3.88699771,6.21533818 3.75,6.59360612 3.75,6.97187406 C3.92124714,10.4794495 5.49672085,13.8150849 7.82568199,16.1534685 C10.1546431,18.4918521 13.4768377,20.0736999 16.9702794,20.2456399 C17.3470231,20.2800278 17.7237668,20.1080879 17.9977622,19.8329839 L19.7787325,18.0448082 C20.4294717,17.5289883 20.3952222,16.5661245 19.7444831,16.0846925 L19.7444831,16.0846925 Z" id="🎨-Color" stroke="#FFFFFF" stroke-linecap="round" stroke-linejoin="round"></path>
                </g>
            </g>
        </g>
    </g>
</svg>