<?xml version="1.0" encoding="UTF-8"?>
<svg width="58px" height="49px" viewBox="0 0 58 49" version="1.1" xmlns="http://www.w3.org/2000/svg" xmlns:xlink="http://www.w3.org/1999/xlink">
    <!-- Generator: Sketch 55.2 (78181) - https://sketchapp.com -->
    <title>Icon/Add Leads</title>
    <desc>Created with Sketch.</desc>
    <g id="Mobile" stroke="none" stroke-width="1" fill="none" fill-rule="evenodd">
        <g id="Drf_Home-Mobile" transform="translate(-56.000000, -4605.000000)">
            <g id="Group-18" transform="translate(0.000000, 3654.000000)">
                <g id="want-to-be-a-part-of-+-Join-as-lead-generat-+-Group-6-+-Group-9-+-Group-13-+-Rectangle-Copy-17-+-Apple-iPhone-XS-Silver-+-Rectangle-Copy-17-+-Rectangle-Copy-15-+-Group-7-+-Group-8-Mask" transform="translate(0.000000, 716.000000)">
                    <g id="Group-6" transform="translate(24.000000, 225.000000)">
                        <g id="Icon/Add-Leads" transform="translate(24.000000, 0.000000)">
                            <rect id="Rectangle-Copy-5" fill-opacity="0" fill="#D8D8D8" x="0" y="0" width="71.9999957" height="71.9999957"></rect>
                            <path d="M29.9999988,32.6249993 C24.2010087,32.6249993 19.4999988,27.8400416 19.4999988,21.9374987 C19.4999988,16.0349558 24.2010087,11.2499993 29.9999988,11.2499993 C35.7989877,11.2499993 40.4999988,16.0349558 40.4999988,21.9374987 C40.4999988,27.8400416 35.7989877,32.6249993 29.9999988,32.6249993 Z M29.9999982,37.4459109 C33.2022837,37.2648951 37.8101188,34.8804811 40.3514977,35.3931079 C46.2638847,36.117788 50.9999982,45.5534357 50.9999982,53.5107831 C49.8351193,57.6991486 36.8332943,57.9177847 29.9999982,57.9177847 M29.9999995,57.9177847 C23.1667021,57.9177847 9.74537966,57.5911625 8.99999946,53.5107831 C8.99999946,45.5534357 13.7361118,36.117788 19.6484987,35.3931079 C22.1898776,34.8804811 26.7977128,37.2648951 29.9999995,37.4459109 M52.2499974,33.8478241 C48.384004,33.8478241 45.2499974,30.6286543 45.2499974,26.6576071 C45.2499974,22.6865599 48.384004,19.4673901 52.2499974,19.4673901 C56.11599,19.4673901 59.2499974,22.6865599 59.2499974,26.6576071 C59.2499974,30.6286543 56.11599,33.8478241 52.2499974,33.8478241 Z M48.6020717,37.1091051 C49.6384331,37.4267644 51.3687175,37.4696357 52.249997,37.5186188 C54.2323642,37.4084352 57.0848336,35.9055093 58.6580681,36.2175431 C62.3181172,36.6586527 65.2499962,42.4020904 65.2499962,47.2456932 C64.6969449,49.2009591 58.4143053,49.8467502 54.2692749,49.9894423" id="Shape" stroke="#F3726A" stroke-width="1.49610381" stroke-linecap="round" stroke-linejoin="round"></path>
                        </g>
                    </g>
                </g>
            </g>
        </g>
    </g>
</svg>