<?xml version="1.0" encoding="UTF-8"?>
<svg width="193px" height="189px" viewBox="0 0 193 189" version="1.1" xmlns="http://www.w3.org/2000/svg" xmlns:xlink="http://www.w3.org/1999/xlink">
    <!-- Generator: Sketch 55.2 (78181) - https://sketchapp.com -->
    <title>Icon/Best Deals</title>
    <desc>Created with Sketch.</desc>
    <g id="Website" stroke="none" stroke-width="1" fill="none" fill-rule="evenodd" stroke-linecap="round" stroke-linejoin="round">
        <g id="DrF_Homepage" transform="translate(-629.000000, -1108.000000)">
            <g id="Icon/Best-Deals" transform="translate(616.000000, 1089.000000)">
                <ellipse id="Oval" stroke-opacity="0.6" stroke="#FFFFFF" transform="translate(112.500000, 112.500000) rotate(45.000000) translate(-112.500000, -112.500000) " cx="112.5" cy="112.5" rx="126.5" ry="31.5"></ellipse>
                <ellipse id="Oval" stroke-opacity="0.6" stroke="#FFFFFF" transform="translate(112.500000, 112.500000) scale(-1, 1) rotate(45.000000) translate(-112.500000, -112.500000) " cx="112.5" cy="112.5" rx="126.5" ry="31.5"></ellipse>
                <circle id="Oval-Copy-2" stroke="#FFFFFF" stroke-width="2" fill="#FFFFFF" cx="104.5" cy="116.5" r="90.5"></circle>
                <g id="Group-5" transform="translate(71.000000, 73.000000)" stroke="#1E9ED2" stroke-width="3">
                    <rect id="Rectangle" x="0" y="34.5120678" width="14.3595506" height="32.106383" rx="3.19999981"></rect>
                    <path d="M19.5999114,34.1012366 C22.4041546,32.5731056 24.6557399,31.0375488 26.3546673,29.4945662 C29.2716846,26.8453025 31.6903769,24.3657661 35.5042066,17.3663365 C37.9558368,12.8669188 39.5307264,7.94369363 40.2288756,2.59666093 C40.2850947,2.16591309 40.4857421,1.76697018 40.7980193,1.46499785 C42.9648299,-0.630310474 45.3577707,0.23677024 47.9768416,4.06623999 C50.7969971,8.18972516 50.1221792,15.8852845 45.9523879,27.1529179 L64.2602304,27.1529179 C67.9825024,27.1529252 71,30.1704228 71,33.8926948 C71,36.4332697 69.7513461,38.7977965 67.2540383,40.9862751 C68.4181621,43.1220562 68.8998006,45.0256406 68.6989536,46.6970283 C68.4981067,48.3684161 67.5521046,50.1139902 65.8609475,51.9337506 C66.7896747,54.0043604 67.1095178,55.8528912 66.8204769,57.479343 C66.5314359,59.1057949 65.5532163,60.7370438 63.8858182,62.3730899 C63.5572049,67.7865238 61.8593661,70.8717523 58.7923017,71.6287755 C51.1931792,73.1825941 47.5826105,72.4065028 42.8799282,71.6287755 C39.9291093,71.1407706 34.0405402,69.5001295 25.2142209,66.7068522 C24.089915,66.3510439 20.2158972,66.1666586 19.0366333,66.1666586" id="Path"></path>
                </g>
            </g>
        </g>
    </g>
</svg>