<?xml version="1.0" encoding="UTF-8"?>
<svg width="130px" height="130px" viewBox="0 0 130 130" version="1.1" xmlns="http://www.w3.org/2000/svg" xmlns:xlink="http://www.w3.org/1999/xlink">
    <!-- Generator: Sketch 55.2 (78181) - https://sketchapp.com -->
    <title>Icon/Process/Best Offers</title>
    <desc>Created with Sketch.</desc>
    <g id="Website" stroke="none" stroke-width="1" fill="none" fill-rule="evenodd">
        <g id="DrF_Homepage" transform="translate(-403.000000, -1911.000000)">
            <g id="Group-18" transform="translate(140.000000, 1846.000000)">
                <g id="Icon/Process/Best-Offers" transform="translate(263.000000, 65.000000)">
                    <circle id="Oval-Copy-4" fill="#22D1B4" cx="65" cy="65" r="65"></circle>
                    <rect id="Rectangle" stroke="#FFFFFF" stroke-width="3" stroke-linecap="round" stroke-linejoin="round" x="38" y="60.2038454" width="10.9213483" height="24.6295541" rx="2.44800002"></rect>
                    <path d="M54.9069749,59.8886873 C57.0397795,58.7164223 58.7522529,57.538461 60.0443948,56.3548031 C62.2629714,54.3224912 64.1025402,52.4203811 67.0031994,47.0509557 C68.8678195,43.5993476 70.0656229,39.8226269 70.5966096,35.7207936 C70.6393678,35.3903569 70.7919729,35.0843185 71.0294794,34.8526685 C72.6774763,33.2453087 74.4974594,33.9104665 76.4894288,36.8481419 C78.6343358,40.0113634 78.121094,45.9148062 74.9497034,54.5584702 L88.873978,54.5584702 C91.7050018,54.5584758 94,56.8732685 94,59.72871 C94,61.6776442 93.0503196,63.4915277 91.1509587,65.1703606 C92.0363487,66.808768 92.4026652,68.269052 92.2499084,69.5512124 C92.0971515,70.8333729 91.377657,72.1724434 90.0914249,73.5684241 C90.7977808,75.156837 91.0410417,76.574888 90.8212078,77.8225771 C90.6013738,79.0702662 89.8573758,80.3216353 88.5892138,81.5766843 C88.3392826,85.7294555 87.0479686,88.0962062 84.7152717,88.6769363 C78.9356574,89.8689067 76.1895911,89.273549 72.6129031,88.6769363 C70.3686183,88.3025763 65.8899883,87.0440023 59.1770131,84.9012143 C58.3219071,84.6282655 55.3754711,84.4868192 54.4785662,84.4868192" id="Path" stroke="#FFFFFF" stroke-width="3" stroke-linecap="round" stroke-linejoin="round"></path>
                </g>
            </g>
        </g>
    </g>
</svg>