<?xml version="1.0" encoding="UTF-8"?>
<svg width="372px" height="372px" viewBox="0 0 372 372" version="1.1" xmlns="http://www.w3.org/2000/svg" xmlns:xlink="http://www.w3.org/1999/xlink">
    <!-- Generator: Sketch 55.2 (78181) - https://sketchapp.com -->
    <title>Icon/Hero/Credit Cards</title>
    <desc>Created with Sketch.</desc>
    <g id="Page-1" stroke="none" stroke-width="1" fill="none" fill-rule="evenodd">
        <g id="DrF_Credit-Cards" transform="translate(-966.000000, -239.000000)">
            <g id="Icon/Hero/Credit-Cards" transform="translate(928.000000, 201.000000)">
                <ellipse id="Oval" stroke="#1E9ED2" stroke-width="2" stroke-linecap="round" stroke-linejoin="round" transform="translate(224.000000, 224.000000) scale(-1, 1) rotate(45.000000) translate(-224.000000, -224.000000) " cx="224" cy="224" rx="253" ry="63"></ellipse>
                <ellipse id="Oval" stroke="#1E9ED2" stroke-width="2" stroke-linecap="round" stroke-linejoin="round" transform="translate(224.000000, 224.000000) rotate(45.000000) translate(-224.000000, -224.000000) " cx="224" cy="224" rx="253" ry="63"></ellipse>
                <path d="M224,62 C312.36556,62 384,133.63444 384,222 C384,310.36556 312.36556,382 224,382 C135.63444,382 64,310.36556 64,222 C64,133.63444 135.63444,62 224,62 Z" id="Rectangle" fill="#1E9ED2"></path>
                <rect id="Rectangle" fill-opacity="0" fill="#D8D8D8" x="107" y="105" width="235" height="235"></rect>
                <path d="M290.443878,258.468367 L290.443878,188.928571 C290.443878,183.631146 286.149466,179.336735 280.852041,179.336735 L157.358163,179.336735 C156.695422,179.336735 156.158163,178.799476 156.158163,178.136735 L156.158163,169.744898 C156.158163,164.447473 160.452575,160.153061 165.75,160.153061 L300.035714,160.153061 C305.333139,160.153061 309.627551,164.447473 309.627551,169.744898 L309.627551,250.076531 C309.627551,255.373956 305.333139,259.668367 300.035714,259.668367 L291.643878,259.668367 C290.981136,259.668367 290.443878,259.131109 290.443878,258.468367 Z" id="Path" fill="#FFFFFF"></path>
                <path d="M139.380613,186.530612 L273.65,186.530612 C278.951933,186.530612 283.25,190.828679 283.25,196.130613 L283.25,276.445918 C283.25,281.747852 278.951933,286.045918 273.65,286.045918 L139.380613,286.045918 C134.078679,286.045918 129.780612,281.747852 129.780612,276.445918 L129.780612,196.130613 C129.780612,190.828679 134.078679,186.530612 139.380613,186.530612 Z M148.561181,227.295918 L199.724534,227.295918 C202.150617,227.295918 204.117347,225.148713 204.117347,222.5 C204.117347,219.851287 202.150617,217.704082 199.724534,217.704082 L148.561181,217.704082 C146.135097,217.704082 144.168367,219.851287 144.168367,222.5 C144.168367,225.148713 146.135097,227.295918 148.561181,227.295918 Z M148.244898,256.071429 L164.071429,256.071429 C166.322834,256.071429 168.147959,253.924223 168.147959,251.27551 C168.147959,248.626798 166.322834,246.479592 164.071429,246.479592 L148.244898,246.479592 C145.993492,246.479592 144.168367,248.626798 144.168367,251.27551 C144.168367,253.924223 145.993492,256.071429 148.244898,256.071429 Z M181.816327,256.071429 L197.642857,256.071429 C199.894263,256.071429 201.719388,253.924223 201.719388,251.27551 C201.719388,248.626798 199.894263,246.479592 197.642857,246.479592 L181.816327,246.479592 C179.564921,246.479592 177.739796,248.626798 177.739796,251.27551 C177.739796,253.924223 179.564921,256.071429 181.816327,256.071429 Z M215.387755,256.071429 L231.214286,256.071429 C233.465691,256.071429 235.290816,253.924223 235.290816,251.27551 C235.290816,248.626798 233.465691,246.479592 231.214286,246.479592 L215.387755,246.479592 C213.136349,246.479592 211.311224,248.626798 211.311224,251.27551 C211.311224,253.924223 213.136349,256.071429 215.387755,256.071429 Z M248.959184,256.071429 L264.785714,256.071429 C267.03712,256.071429 268.862245,253.924223 268.862245,251.27551 C268.862245,248.626798 267.03712,246.479592 264.785714,246.479592 L248.959184,246.479592 C246.707778,246.479592 244.882653,248.626798 244.882653,251.27551 C244.882653,253.924223 246.707778,256.071429 248.959184,256.071429 Z" id="Combined-Shape" fill="#FFFFFF"></path>
            </g>
        </g>
    </g>
</svg>