<?xml version="1.0" encoding="UTF-8"?>
<svg width="372px" height="372px" viewBox="0 0 372 372" version="1.1" xmlns="http://www.w3.org/2000/svg" xmlns:xlink="http://www.w3.org/1999/xlink">
    <!-- Generator: Sketch 55.2 (78181) - https://sketchapp.com -->
    <title>Icon/Hero/Dr Finance</title>
    <desc>Created with Sketch.</desc>
    <g id="Page-1" stroke="none" stroke-width="1" fill="none" fill-rule="evenodd">
        <g id="DrF_About" transform="translate(-966.000000, -239.000000)">
            <g id="Icon/Hero/Dr-Finance" transform="translate(928.000000, 201.000000)">
                <ellipse id="Oval" stroke="#1E9ED2" stroke-width="2" stroke-linecap="round" stroke-linejoin="round" transform="translate(224.000000, 224.000000) scale(-1, 1) rotate(45.000000) translate(-224.000000, -224.000000) " cx="224" cy="224" rx="253" ry="63"></ellipse>
                <ellipse id="Oval" stroke="#1E9ED2" stroke-width="2" stroke-linecap="round" stroke-linejoin="round" transform="translate(224.000000, 224.000000) rotate(45.000000) translate(-224.000000, -224.000000) " cx="224" cy="224" rx="253" ry="63"></ellipse>
                <g id="Solar-System" transform="translate(63.554257, 62.000000)">
                    <g id="Group-11">
                        <path d="M160,0 C248.36556,-1.623249e-14 320,71.63444 320,160 C320,248.36556 248.36556,320 160,320 C71.63444,320 1.082166e-14,248.36556 0,160 C-1.082166e-14,71.63444 71.63444,1.623249e-14 160,0 Z" id="Rectangle" fill="#1E9ED2"></path>
                        <g id="Group-10" transform="translate(96.000000, 64.000000)">
                            <path d="M54.4590587,89.1249951 L54.4611046,145.193674 L54.467827,145.687216 C54.467827,155.744654 46.3392516,163.898137 36.3118847,163.898137 C26.28481,163.898137 18.1559423,155.744654 18.1559423,145.687216 C18.1559423,139.041624 21.7047958,133.227445 27.0055704,130.047053 C28.7466773,129.002509 30.6776195,128.242187 32.7335111,127.829999 L32.8114035,127.765063 L32.8976258,127.797604 C34.0031717,127.586526 35.1445218,127.476296 36.3118847,127.476296 C37.4788092,127.476296 38.6200131,127.586526 39.7261436,127.797604 C43.4775465,126.405514 46.1516084,122.785229 46.1516084,118.538306 C46.1516084,114.47549 43.7050858,110.986543 40.2086964,109.47235 C38.9282215,109.335735 37.62831,109.265522 36.3118847,109.265522 C34.9953133,109.265522 33.6949633,109.335735 32.4149268,109.47235 C30.7144467,109.654405 29.0491862,109.954311 27.4273292,110.363276 C24.5441416,111.090763 21.7980328,112.163597 19.2354754,113.536045 C7.78923933,119.664789 1.31450406e-13,131.763529 1.31450406e-13,145.687216 C1.31450406e-13,165.802385 16.2574431,182.109057 36.3118847,182.109057 C56.3663262,182.109057 72.6236232,165.802385 72.6236232,145.687216 L72.6132473,145.687216 L72.6141242,36.4218407 C72.6141242,26.3645497 80.7426996,18.2109204 90.7700665,18.2109204 C92.0650093,18.2109204 93.328532,18.346802 94.5467515,18.605666 C96.3998013,18.9987992 98.1487998,19.6755687 99.7461053,20.588482 C101.787967,21.7557153 103.582123,23.3088992 105.029928,25.1486512 C106.625626,27.1763214 107.800442,29.5531501 108.422704,32.1454545 C110.148028,33.643377 112.397847,34.5495476 114.858983,34.5495476 C120.293476,34.5495476 124.698707,30.1306836 124.698707,24.6795884 C124.698707,24.1381142 124.655596,23.6067541 124.571566,23.0885863 C123.877256,21.3189006 123.048791,19.6166427 122.098446,17.9948584 C118.735043,12.2547033 113.848574,7.52039464 107.995538,4.35084989 C105.237884,2.85747146 102.265552,1.71193235 99.1371417,0.971546159 C96.4510963,0.336259338 93.6496007,3.55271368e-14 90.7700665,3.55271368e-14 C70.7156249,3.55271368e-14 54.4581818,16.3066723 54.4581818,36.4218407 L54.4611046,36.9038027 L54.4590587,74.4134292 L54.4590587,89.1249951 Z" id="Fill-18" fill="#FFFFFF"></path>
                            <path d="M80.2272653,86.0261029 C83.6564304,83.4274954 95.3288905,76.6018999 92.865708,70.2260183 C88.4816669,58.8788048 73.0110392,78.4513263 65.9222469,83.8621113 C57.1629331,90.5480141 46.4830529,91.633308 33.7141076,93.0551543 C33.7053392,93.0560338 33.6999321,93.0589655 33.6983245,93.0623369 C33.5138964,93.4013813 55.638405,104.656981 80.2272653,86.0261029" id="Fill-19" fill="#F9B42A"></path>
                        </g>
                    </g>
                </g>
            </g>
        </g>
    </g>
</svg>