<?xml version="1.0" encoding="UTF-8"?>
<svg width="135px" height="40px" viewBox="0 0 135 40" version="1.1" xmlns="http://www.w3.org/2000/svg" xmlns:xlink="http://www.w3.org/1999/xlink">
    <!-- Generator: Sketch 55.2 (78181) - https://sketchapp.com -->
    <title>Icon/Google Play</title>
    <desc>Created with Sketch.</desc>
    <defs>
        <linearGradient x1="86.7245433%" y1="30.67274%" x2="-50.4810997%" y2="137.049093%" id="linearGradient-1">
            <stop stop-color="#FF3944" offset="0%"></stop>
            <stop stop-color="#C31161" offset="100%"></stop>
        </linearGradient>
    </defs>
    <g id="Desktop" stroke="none" stroke-width="1" fill="none" fill-rule="evenodd">
        <g id="DrF_Homepage" transform="translate(-150.000000, -5386.000000)">
            <g id="Referral" transform="translate(0.000000, 4681.000000)">
                <g id="Icon/Google-Play" transform="translate(150.000000, 705.000000)">
                    <rect id="Rectangle" stroke="#A9AAA9" fill="#000000" x="0.5" y="0.5" width="134" height="39" rx="7"></rect>
                    <g id="Group-8" transform="translate(41.251998, 6.765998)" fill="#FFFFFF">
                        <path d="M6.16700237,3.4770024 C6.16700237,4.3150024 5.91800237,4.9830024 5.42100237,5.4800024 C4.85700237,6.0720024 4.12200237,6.3680024 3.21700237,6.3680024 C2.35100237,6.3680024 1.61500237,6.0680024 1.00900237,5.4670024 C0.403002373,4.8670024 0.100002373,4.1220024 0.100002373,3.2340024 C0.100002373,2.3450024 0.403002373,1.6010024 1.00900237,1.0010024 C1.61500237,0.400002396 2.35100237,0.100002396 3.21700237,0.100002396 C3.64700237,0.100002396 4.05800237,0.184002396 4.44900237,0.351002396 C4.83900237,0.519002396 5.15300237,0.742002396 5.38700237,1.0220024 L4.86000237,1.5490024 C4.46200237,1.0750024 3.91600237,0.838002396 3.21700237,0.838002396 C2.58500237,0.838002396 2.04000237,1.0590024 1.57900237,1.5040024 C1.11800237,1.9480024 0.887002373,2.5250024 0.887002373,3.2340024 C0.887002373,3.9430024 1.11800237,4.5200024 1.57900237,4.9640024 C2.04000237,5.4090024 2.58500237,5.6300024 3.21700237,5.6300024 C3.88700237,5.6300024 4.44600237,5.4070024 4.89300237,4.9610024 C5.18300237,4.6700024 5.35100237,4.2650024 5.39600237,3.7450024 L3.21700237,3.7450024 L3.21700237,3.0250024 L6.12500237,3.0250024 C6.15300237,3.1810024 6.16700237,3.3320024 6.16700237,3.4770024" id="Fill-6"></path>
                        <path d="M6.16700237,3.4770024 L6.06700237,3.4770024 C6.06600237,4.2960024 5.82700237,4.9320024 5.35100237,5.4090024 L5.35000237,5.4100024 L5.34900237,5.4110024 C4.80300237,5.9820024 4.10000237,6.2670024 3.21700237,6.2680024 C2.37400237,6.2670024 1.66900237,5.9790024 1.08000237,5.3960024 C0.492002373,4.8130024 0.201002373,4.1000024 0.200002373,3.2340024 C0.201002373,2.3680024 0.492002373,1.6550024 1.08000237,1.0720024 C1.66900237,0.489002396 2.37400237,0.201002396 3.21700237,0.200002396 C3.63400237,0.200002396 4.03100237,0.281002396 4.40900237,0.443002396 C4.78800237,0.606002396 5.08800237,0.820002396 5.31100237,1.0860024 L5.38700237,1.0220024 L5.31600237,0.951002396 L4.78900237,1.4790024 L4.86000237,1.5490024 L4.93600237,1.4850024 C4.52100237,0.987002396 3.93700237,0.736002396 3.21700237,0.738002396 C2.56200237,0.737002396 1.98600237,0.971002396 1.50900237,1.4320024 C1.02800237,1.8940024 0.786002373,2.5030024 0.787002373,3.2340024 C0.786002373,3.9650024 1.02800237,4.5740024 1.50900237,5.0360024 C1.98600237,5.4970024 2.56200237,5.7310024 3.21700237,5.7310024 C3.90900237,5.7320024 4.49900237,5.4970024 4.96400237,5.0310024 C5.27400237,4.7200024 5.45000237,4.2900024 5.49600237,3.7540024 L5.50500237,3.6450024 L3.31700237,3.6450024 L3.31700237,3.1240024 L6.12500237,3.1240024 L6.12500237,3.0250024 L6.02600237,3.0420024 C6.05300237,3.1940024 6.06700237,3.3380024 6.06700237,3.4770024 L6.26700237,3.4770024 C6.26700237,3.3250024 6.25200237,3.1690024 6.22300237,3.0070024 L6.20800237,2.9250024 L3.11700237,2.9250024 L3.11700237,3.8450024 L5.39600237,3.8450024 L5.39600237,3.7450024 L5.29600237,3.7370024 C5.25200237,4.2400024 5.09200237,4.6190024 4.82200237,4.8900024 C4.39200237,5.3180024 3.86500237,5.5300024 3.21700237,5.5310024 C2.60900237,5.5300024 2.09300237,5.3200024 1.64800237,4.8930024 C1.20700237,4.4660024 0.988002373,3.9220024 0.987002373,3.2340024 C0.988002373,2.5460024 1.20700237,2.0020024 1.64800237,1.5750024 C2.09300237,1.1480024 2.60900237,0.938002396 3.21700237,0.938002396 C3.89400237,0.939002396 4.40400237,1.1630024 4.78300237,1.6140024 L4.85300237,1.6970024 L5.45800237,1.0920024 L5.52300237,1.0280024 L5.46400237,0.957002396 C5.21800237,0.664002396 4.89000237,0.432002396 4.48800237,0.259002396 C4.08500237,0.0870023962 3.66000237,-1.95399252e-13 3.21700237,-1.95399252e-13 C2.32800237,-0.00099760381 1.56100237,0.311002396 0.939002373,0.930002396 C0.314002373,1.5470024 -0.000997626558,2.3230024 1.3500312e-13,3.2340024 C-0.000997626558,4.1450024 0.314002373,4.9210024 0.939002373,5.5390024 C1.56100237,6.1570024 2.32800237,6.4690024 3.21700237,6.46800482 C4.14300237,6.4690024 4.91100237,6.1610024 5.49400237,5.5490024 L5.42100237,5.4800024 L5.49200237,5.5510024 C6.01000237,5.0330024 6.26700237,4.3340024 6.26700237,3.4770024 L6.16700237,3.4770024" id="Fill-7"></path>
                        <polyline id="Fill-8" points="10.7760024 0.971002396 8.04300237 0.971002396 8.04300237 2.8740024 10.5070024 2.8740024 10.5070024 3.5940024 8.04300237 3.5940024 8.04300237 5.4970024 10.7760024 5.4970024 10.7760024 6.2340024 7.27300237 6.2340024 7.27300237 0.234002396 10.7760024 0.234002396 10.7760024 0.971002396"></polyline>
                        <polyline id="Fill-9" points="10.7760024 0.971002396 10.7760024 0.871002396 7.94300237 0.871002396 7.94300237 2.9740024 10.4070024 2.9740024 10.4070024 3.4940024 7.94300237 3.4940024 7.94300237 5.5970024 10.6760024 5.5970024 10.6760024 6.1340024 7.37300237 6.1340024 7.37300237 0.334002396 10.6760024 0.334002396 10.6760024 0.971002396 10.7760024 0.971002396 10.7760024 0.871002396 10.7760024 0.971002396 10.8760024 0.971002396 10.8760024 0.134002396 7.17300237 0.134002396 7.17300237 6.3340024 10.8760024 6.3340024 10.8760024 5.3970024 8.14300237 5.3970024 8.14300237 3.6940024 10.6070024 3.6940024 10.6070024 2.7740024 8.14300237 2.7740024 8.14300237 1.0710024 10.8760024 1.0710024 10.8760024 0.971002396 10.7760024 0.971002396"></polyline>
                        <polyline id="Fill-10" points="14.0270024 6.2340024 13.2550024 6.2340024 13.2550024 0.971002396 11.5800024 0.971002396 11.5800024 0.234002396 15.7030024 0.234002396 15.7030024 0.971002396 14.0270024 0.971002396 14.0270024 6.2340024"></polyline>
                        <polyline id="Fill-11" points="14.0270024 6.2340024 14.0270024 6.1340024 13.3550024 6.1340024 13.3550024 0.871002396 11.6790024 0.871002396 11.6790024 0.334002396 15.6030024 0.334002396 15.6030024 0.871002396 13.9270024 0.871002396 13.9270024 6.2340024 14.0270024 6.2340024 14.0270024 6.1340024 14.0270024 6.2340024 14.1270024 6.2340024 14.1270024 1.0710024 15.8030024 1.0710024 15.8030024 0.134002396 11.4790024 0.134002396 11.4790024 1.0710024 13.1550024 1.0710024 13.1550024 6.3340024 14.1270024 6.3340024 14.1270024 6.2340024 14.0270024 6.2340024"></polyline>
                        <polygon id="Fill-12" points="18.6860024 6.2340024 19.4570024 6.2340024 19.4570024 0.234002396 18.6860024 0.234002396"></polygon>
                        <polyline id="Fill-13" points="18.6860024 6.2340024 18.7860024 6.2340024 18.7860024 0.334002396 19.3560024 0.334002396 19.3560024 6.1340024 18.6860024 6.1340024 18.6860024 6.2340024 18.7860024 6.2340024 18.6860024 6.2340024 18.6860024 6.3340024 19.5570024 6.3340024 19.5570024 0.134002396 18.5860024 0.134002396 18.5860024 6.3340024 18.6860024 6.3340024 18.6860024 6.2340024"></polyline>
                        <polyline id="Fill-14" points="22.8760024 6.2340024 22.1050024 6.2340024 22.1050024 0.971002396 20.4290024 0.971002396 20.4290024 0.234002396 24.5520024 0.234002396 24.5520024 0.971002396 22.8760024 0.971002396 22.8760024 6.2340024"></polyline>
                        <polyline id="Fill-15" points="22.8760024 6.2340024 22.8760024 6.1340024 22.2050024 6.1340024 22.2050024 0.871002396 20.5290024 0.871002396 20.5290024 0.334002396 24.4520024 0.334002396 24.4520024 0.871002396 22.7760024 0.871002396 22.7760024 6.2340024 22.8760024 6.2340024 22.8760024 6.1340024 22.8760024 6.2340024 22.9760024 6.2340024 22.9760024 1.0710024 24.6520024 1.0710024 24.6520024 0.134002396 20.3290024 0.134002396 20.3290024 1.0710024 22.0050024 1.0710024 22.0050024 6.3340024 22.9760024 6.3340024 22.9760024 6.2340024 22.8760024 6.2340024"></polyline>
                        <path d="M28.5270024,4.9560024 C28.9720024,5.4060024 29.5150024,5.6300024 30.1570024,5.6300024 C30.8000024,5.6300024 31.3440024,5.4060024 31.7870024,4.9560024 C32.2310024,4.5060024 32.4540024,3.9320024 32.4540024,3.2340024 C32.4540024,2.5360024 32.2310024,1.9620024 31.7870024,1.5120024 C31.3440024,1.0620024 30.8000024,0.838002396 30.1570024,0.838002396 C29.5150024,0.838002396 28.9720024,1.0620024 28.5270024,1.5120024 C28.0840024,1.9620024 27.8610024,2.5360024 27.8610024,3.2340024 C27.8610024,3.9320024 28.0840024,4.5060024 28.5270024,4.9560024 Z M32.3570024,5.4590024 C31.7680024,6.0650024 31.0340024,6.3680024 30.1570024,6.3680024 C29.2800024,6.3680024 28.5470024,6.0650024 27.9580024,5.4590024 C27.3680024,4.8530024 27.0740024,4.1110024 27.0740024,3.2340024 C27.0740024,2.3570024 27.3680024,1.6150024 27.9580024,1.0090024 C28.5470024,0.403002396 29.2800024,0.100002396 30.1570024,0.100002396 C31.0290024,0.100002396 31.7610024,0.404002396 32.3530024,1.0130024 C32.9450024,1.6220024 33.2410024,2.3620024 33.2410024,3.2340024 C33.2410024,4.1110024 32.9460024,4.8530024 32.3570024,5.4590024 L32.3570024,5.4590024 Z" id="Fill-16"></path>
                        <path d="M28.5270024,4.9560024 L28.4560024,5.0260024 C28.9170024,5.4940024 29.4910024,5.7320024 30.1570024,5.73100553 C30.8230024,5.7320024 31.3980024,5.4940024 31.8580024,5.0260024 C32.3220024,4.5590024 32.5550024,3.9530024 32.5540056,3.2340024 C32.5550024,2.5150024 32.3220024,1.9100024 31.8580024,1.4420024 C31.3980024,0.974002396 30.8230024,0.737002396 30.1570024,0.737999245 C29.4910024,0.737002396 28.9170024,0.974002396 28.4560024,1.4420024 C27.9940024,1.9100024 27.7600024,2.5150024 27.7609992,3.2340024 C27.7600024,3.9530024 27.9940024,4.5590024 28.4560024,5.0260024 L28.5990024,4.8860024 C28.1740024,4.4550024 27.9620024,3.9110024 27.9610024,3.2340024 C27.9620024,2.5570024 28.1740024,2.0130024 28.5990024,1.5820024 L28.5980024,1.5820024 C29.0270024,1.1500024 29.5380024,0.939002396 30.1570024,0.938002396 C30.7770024,0.939002396 31.2890024,1.1500024 31.7160024,1.5820024 C32.1410024,2.0140024 32.3530024,2.5570024 32.3540024,3.2340024 C32.3530024,3.9110024 32.1410024,4.4540024 31.7160024,4.8860024 C31.2890024,5.3180024 30.7770024,5.5300024 30.1570024,5.5310024 C29.5380024,5.5290024 29.0270024,5.3180024 28.5980024,4.8860024 L28.5270024,4.9560024 Z M32.3570024,5.4590024 L32.2860024,5.3890024 C31.7130024,5.9770024 31.0110024,6.2670024 30.1570024,6.2680024 C29.3030024,6.2670024 28.6020024,5.9770024 28.0300024,5.3890024 L28.0270024,5.3860024 L28.0300024,5.3890024 C27.4580024,4.8000024 27.1750024,4.0890024 27.1740024,3.2340024 C27.1750024,2.3790024 27.4580024,1.6680024 28.0300024,1.0790024 C28.6020024,0.491002396 29.3030024,0.201002396 30.1570024,0.200002396 C31.0060024,0.201002396 31.7050024,0.493002396 32.2820024,1.0830024 C32.8560024,1.6750024 33.1400024,2.3850024 33.1410024,3.2340024 C33.1400024,4.0890024 32.8570024,4.8000024 32.2860024,5.3890024 L32.4290024,5.5280024 C33.0360024,4.9060024 33.3420024,4.1330024 33.3410048,3.2340024 C33.3420024,2.3400024 33.0340024,1.5690024 32.4250024,0.944002396 C31.8160024,0.316002396 31.0520024,-0.00099760381 30.1570024,3.02283931e-08 C29.2570024,-0.00099760381 28.4920024,0.315002396 27.8860024,0.940002396 C27.2790024,1.5630024 26.9730024,2.3350024 26.9739999,3.2340024 C26.9730024,4.1330024 27.2790024,4.9060024 27.8860024,5.5280024 L27.8890024,5.5310024 L27.8860024,5.5280024 C28.4920024,6.1540024 29.2570024,6.4690024 30.1570024,6.46800477 C31.0570024,6.4690024 31.8230024,6.1540024 32.4290024,5.5280024 L32.3570024,5.4590024 L32.3570024,5.4590024 Z" id="Fill-17"></path>
                        <polyline id="Fill-18" points="34.3230024 6.2340024 34.3230024 0.234002396 35.2620024 0.234002396 38.1780024 4.9010024 38.2110024 4.9010024 38.1780024 3.7450024 38.1780024 0.234002396 38.9490024 0.234002396 38.9490024 6.2340024 38.1440024 6.2340024 35.0940024 1.3400024 35.0600024 1.3400024 35.0940024 2.4970024 35.0940024 6.2340024 34.3230024 6.2340024"></polyline>
                        <polyline id="Fill-19" points="34.3230024 6.2340024 34.4230024 6.2340024 34.4230024 0.334002396 35.2060024 0.334002396 38.1220024 5.0020024 38.3140024 5.0020024 38.2780024 3.7440024 38.2780024 0.334002396 38.8490024 0.334002396 38.8490024 6.1340024 38.2000024 6.1340024 35.1490024 1.2400024 34.9580024 1.2400024 34.9940024 2.4980024 34.9940024 6.1340024 34.3230024 6.1340024 34.3230024 6.2340024 34.4230024 6.2340024 34.3230024 6.2340024 34.3230024 6.3340024 35.1940024 6.3340024 35.1940024 2.4950024 35.1600024 1.3380024 35.0600024 1.3400024 35.0600024 1.4400024 35.0940024 1.4400024 35.0940024 1.3400024 35.0090024 1.3930024 38.0890024 6.3340024 39.0490024 6.3340024 39.0490024 0.134002396 38.0780024 0.134002396 38.0780024 3.7470024 38.1110024 4.9040024 38.2110024 4.9010024 38.2110024 4.8020024 38.1780024 4.8020024 38.1780024 4.9010024 38.2630024 4.8490024 35.3170024 0.134002396 34.2230024 0.134002396 34.2230024 6.3340024 34.3230024 6.3340024 34.3230024 6.2340024"></polyline>
                    </g>
                    <path d="M106.936,30 L108.802,30 L108.802,17.499 L106.936,17.499 L106.936,30 Z M123.743,22.002 L121.604,27.422 L121.54,27.422 L119.32,22.002 L117.31,22.002 L120.639,29.577 L118.741,33.791 L120.688,33.791 L125.818,22.002 L123.743,22.002 Z M113.161,28.58 C112.549,28.58 111.697,28.275 111.697,27.519 C111.697,26.554 112.759,26.184 113.675,26.184 C114.496,26.184 114.881,26.361 115.38,26.602 C115.235,27.76 114.238,28.58 113.161,28.58 Z M113.386,21.729 C112.035,21.729 110.636,22.324 110.057,23.643 L111.713,24.334 C112.067,23.643 112.726,23.417 113.418,23.417 C114.383,23.417 115.364,23.996 115.38,25.026 L115.38,25.154 C115.042,24.961 114.319,24.672 113.434,24.672 C111.649,24.672 109.831,25.653 109.831,27.486 C109.831,29.159 111.295,30.237 112.935,30.237 C114.19,30.237 114.881,29.674 115.316,29.014 L115.38,29.014 L115.38,29.979 L117.181,29.979 L117.181,25.187 C117.181,22.967 115.525,21.729 113.386,21.729 Z M101.854,23.524 L99.2,23.524 L99.2,19.239 L101.854,19.239 C103.249,19.239 104.041,20.394 104.041,21.381 C104.041,22.35 103.249,23.524 101.854,23.524 Z M101.806,17.499 L97.335,17.499 L97.335,30 L99.2,30 L99.2,25.264 L101.806,25.264 C103.874,25.264 105.907,23.766 105.907,21.381 C105.907,18.996 103.874,17.499 101.806,17.499 Z M77.425,28.582 C76.136,28.582 75.057,27.503 75.057,26.021 C75.057,24.523 76.136,23.427 77.425,23.427 C78.698,23.427 79.696,24.523 79.696,26.021 C79.696,27.503 78.698,28.582 77.425,28.582 Z M79.567,22.702 L79.503,22.702 C79.084,22.203 78.279,21.752 77.264,21.752 C75.137,21.752 73.188,23.62 73.188,26.021 C73.188,28.405 75.137,30.258 77.264,30.258 C78.279,30.258 79.084,29.807 79.503,29.291 L79.567,29.291 L79.567,29.903 C79.567,31.531 78.698,32.401 77.296,32.401 C76.152,32.401 75.443,31.579 75.153,30.886 L73.526,31.563 C73.993,32.691 75.234,34.076 77.296,34.076 C79.487,34.076 81.34,32.787 81.34,29.646 L81.34,22.009 L79.567,22.009 L79.567,22.702 Z M82.629,30 L84.498,30 L84.498,17.498 L82.629,17.498 L82.629,30 Z M87.252,25.876 C87.204,24.233 88.525,23.395 89.475,23.395 C90.217,23.395 90.845,23.765 91.054,24.297 L87.252,25.876 Z M93.052,24.458 C92.698,23.508 91.618,21.752 89.411,21.752 C87.22,21.752 85.4,23.475 85.4,26.005 C85.4,28.389 87.204,30.258 89.62,30.258 C91.57,30.258 92.698,29.066 93.165,28.373 L91.715,27.406 C91.232,28.115 90.571,28.582 89.62,28.582 C88.67,28.582 87.993,28.147 87.558,27.294 L93.245,24.942 L93.052,24.458 Z M47.744,23.057 L47.744,24.861 L52.061,24.861 C51.932,25.876 51.594,26.617 51.079,27.133 C50.45,27.761 49.467,28.453 47.744,28.453 C45.086,28.453 43.007,26.311 43.007,23.653 C43.007,20.994 45.086,18.852 47.744,18.852 C49.178,18.852 50.225,19.416 50.998,20.141 L52.271,18.868 C51.191,17.837 49.758,17.047 47.744,17.047 C44.103,17.047 41.042,20.012 41.042,23.653 C41.042,27.294 44.103,30.258 47.744,30.258 C49.709,30.258 51.191,29.614 52.351,28.405 C53.543,27.213 53.914,25.538 53.914,24.184 C53.914,23.765 53.882,23.379 53.817,23.057 L47.744,23.057 Z M58.823,28.582 C57.534,28.582 56.422,27.519 56.422,26.005 C56.422,24.474 57.534,23.427 58.823,23.427 C60.111,23.427 61.223,24.474 61.223,26.005 C61.223,27.519 60.111,28.582 58.823,28.582 Z M58.823,21.752 C56.47,21.752 54.553,23.54 54.553,26.005 C54.553,28.453 56.47,30.258 58.823,30.258 C61.175,30.258 63.092,28.453 63.092,26.005 C63.092,23.54 61.175,21.752 58.823,21.752 Z M68.136,28.582 C66.847,28.582 65.735,27.519 65.735,26.005 C65.735,24.474 66.847,23.427 68.136,23.427 C69.425,23.427 70.536,24.474 70.536,26.005 C70.536,27.519 69.425,28.582 68.136,28.582 Z M68.136,21.752 C65.784,21.752 63.867,23.54 63.867,26.005 C63.867,28.453 65.784,30.258 68.136,30.258 C70.488,30.258 72.405,28.453 72.405,26.005 C72.405,23.54 70.488,21.752 68.136,21.752 L68.136,21.752 Z" id="Fill-20" fill="#FFFFFF"></path>
                    <g id="logo" transform="translate(9.973000, 7.141000)">
                        <path d="M17.055,17.137 L17.055,17.137 L17.149,17.084 L22.042,14.304 C22.508,14.039 22.819,13.717 22.974,13.377 C22.819,13.717 22.509,14.039 22.042,14.304 L17.149,17.084 L17.055,17.137 M17.056,16.991 L12.925,12.86 L17.056,8.729 L22.042,11.562 C22.675,11.922 23.031,12.386 23.09,12.859 C23.09,12.86 23.09,12.86 23.09,12.861 C23.031,13.334 22.675,13.798 22.042,14.158 L17.056,16.991" id="Fill-24" fill="#FACD48"></path>
                        <path d="M0.537,25.249 L0.462,25.177 C0.172,24.869 9.05941988e-14,24.392 9.05941988e-14,23.772 L9.05941988e-14,23.918 L9.05941988e-14,1.802 C9.05941988e-14,1.8 9.05941988e-14,1.799 9.05941988e-14,1.797 C9.05941988e-14,1.799 9.05941988e-14,1.801 9.05941988e-14,1.802 L9.05941988e-14,1.949 C9.05941988e-14,1.278 0.2,0.773 0.536,0.47 L12.925,12.86 L0.537,25.249 M9.064971e-14,1.796 C9.064971e-14,1.741 0.001,1.687 0.004,1.634 C0.001,1.687 9.064971e-14,1.741 9.064971e-14,1.796" id="Fill-21" fill="#57D3F9"></path>
                        <path d="M1.42,25.72 C1.074,25.72 0.772,25.608 0.536,25.395 L0.537,25.395 C0.772,25.607 1.075,25.72 1.421,25.72 C1.451,25.72 1.481,25.72 1.512,25.718 C1.481,25.72 1.45,25.72 1.42,25.72 M1.42,25.574 C1.074,25.574 0.772,25.461 0.537,25.249 L12.925,12.86 L17.056,16.991 L2.541,25.238 C2.139,25.466 1.759,25.574 1.42,25.574" id="Fill-27" fill="url(#linearGradient-1)"></path>
                        <path d="M12.925,12.86 L12.925,12.86 L0.536,0.47 C0.771,0.258 1.073,0.146 1.419,0.146 C1.757,0.146 2.138,0.254 2.541,0.482 L17.056,8.729 L12.925,12.86 M17.149,8.636 L2.541,0.336 C2.139,0.108 1.757,-1.63424829e-13 1.419,-1.63424829e-13 C1.417,-1.63424829e-13 1.416,-1.63424829e-13 1.414,-1.63424829e-13 C1.416,-1.63424829e-13 1.418,-1.63424829e-13 1.42,-1.63424829e-13 C1.758,-1.63424829e-13 2.139,0.107 2.541,0.336 L17.149,8.636" id="Fill-30" fill="#70F178"></path>
                    </g>
                </g>
            </g>
        </g>
    </g>
</svg>