<?xml version="1.0" encoding="UTF-8"?>
<svg width="360px" height="205px" viewBox="0 0 360 205" version="1.1" xmlns="http://www.w3.org/2000/svg" xmlns:xlink="http://www.w3.org/1999/xlink">
    <!-- Generator: Sketch 55.2 (78181) - https://sketchapp.com -->
    <title>Illustration</title>
    <desc>Created with Sketch.</desc>
    <g id="Website" stroke="none" stroke-width="1" fill="none" fill-rule="evenodd">
        <g id="Drf_Mobile_Home" transform="translate(0.000000, -449.000000)">
            <g id="Illustration" transform="translate(-60.000000, 450.000000)">
                <ellipse id="Oval" stroke-opacity="0.14" stroke="#000000" stroke-width="0.539999954" stroke-linecap="round" stroke-linejoin="round" cx="240" cy="93.4015957" rx="165.489314" ry="49.1303191"></ellipse>
                <ellipse id="Oval" stroke-opacity="0.14" stroke="#000000" stroke-width="0.539999954" stroke-linecap="round" stroke-linejoin="round" cx="240" cy="92.3218085" rx="240" ry="76.6648936"></ellipse>
                <path d="" id="Path-8" stroke="#A1A1A1" stroke-width="1.0691999" stroke-linecap="round" stroke-linejoin="round"></path>
                <g id="Group-3-Copy" transform="translate(272.125984, 149.010638)" stroke="#F3726A" stroke-linecap="round" stroke-linejoin="round" stroke-width="0.539999954">
                    <path d="M26.9946809,0 L26.99857,0 C41.9073206,8.14020631e-16 53.9932508,12.0859303 53.9932508,26.9946809 C53.9932508,41.9034314 41.9073206,53.9893617 26.99857,53.9893617 L26.9946809,53.9893617 C12.0859303,53.9893617 1.82579537e-15,41.9034314 0,26.9946809 C-1.82579537e-15,12.0859303 12.0859303,9.84412041e-15 26.9946809,0 Z" id="Rectangle" fill="#FFFFFF"></path>
                    <path d="M16.2336993,30.3271562 C12.6827618,26.7619317 12.6827618,20.9635141 16.2336993,17.3982897 C19.4020154,14.2172261 24.3267562,13.8744595 27.8735897,16.3699897 C31.4056025,13.8872273 36.3078209,14.2229276 39.4702424,17.3840174 C39.4749966,17.3887695 39.4797455,17.393527 39.4844891,17.3982897 C43.0383345,20.9664337 43.0463963,26.7490371 39.5025139,30.3271562 L28.2290016,41.7095793 C28.0266597,41.913876 27.6976777,41.9148007 27.4941998,41.7116447 C27.4932385,41.710685 27.492281,41.7097215 27.4913273,41.7087542 L16.2336993,30.3271562 Z" id="Path"></path>
                    <polyline id="Path-17" points="20.1199327 26.724734 23.3935251 26.724734 24.6360241 25.3234193 26.0605474 29.3797982 27.8628273 22.5649608 29.4996166 28.5855671 31.0209349 24.5724226 32.6806844 26.4547872 36.3373643 26.4547872"></polyline>
                </g>
                <g id="Group-3" transform="translate(71.811024, 16.196809)" stroke="#F4DB17" stroke-linecap="round" stroke-linejoin="round" stroke-width="0.539999954">
                    <path d="M17.2765957,0 L17.2790848,0 C26.8206852,-5.30547723e-15 34.5556805,7.73499539 34.5556805,17.2765957 C34.5556805,26.8181961 26.8206852,34.5531915 17.2790848,34.5531915 L17.2765957,34.5531915 C7.73499539,34.5531915 1.16850903e-15,26.8181961 0,17.2765957 C-1.16850903e-15,7.73499539 7.73499539,1.75276355e-15 17.2765957,0 Z" id="Rectangle" fill="#FFFFFF"></path>
                    <g id="Group-4" transform="translate(8.686914, 9.892206)">
                        <path d="M8.22311627,15.5720546 C8.17601068,15.5720546 8.1290117,15.5675782 8.08275319,15.5586857 L0.603123966,14.1208507 C0.253040441,14.0535529 0,13.7472545 0,13.390786 L0,0.899970229 C0,0.489383249 0.332870489,0.156536737 0.743487046,0.156536737 C0.790592632,0.156536737 0.837591617,0.16101314 0.883850125,0.169905573 L0.883850125,0.169905573 L8.36347935,1.60774063" id="Path"></path>
                        <path d="M10.4910258,0.169924922 L17.9704692,1.60772427 C18.3206011,1.67503132 18.5736783,1.98139212 18.5736783,2.33793459 L18.5736783,14.828456 C18.5736783,15.2391239 18.2407662,15.572036 17.8300984,15.572036 C17.7829902,15.572036 17.7359887,15.5675593 17.6897275,15.5586664 L10.210284,14.120867 C9.86015221,14.05356 9.60707498,13.7471992 9.60707498,13.3906567 L9.60707498,0.900135245 C9.60707498,0.489467396 9.93998705,0.156555327 10.3506549,0.156555327 C10.397763,0.156555327 10.4447646,0.161031982 10.4910258,0.169924922 Z" id="Rectangle" transform="translate(14.090377, 7.864296) scale(-1, 1) translate(-14.090377, -7.864296) "></path>
                        <path d="M11.5605549,11.8106761 L16.7848821,10.8099531" id="Path-2"></path>
                        <path d="M11.5605549,10.1909953 L16.7848821,9.19027226" id="Path-2"></path>
                        <polyline id="Path-29" points="12.3285303 6.78662471 13.3688101 7.61094582 16.1277438 4.50247119"></polyline>
                    </g>
                </g>
                <g id="Group-3-Copy-3" transform="translate(164.139483, 31.313830)" stroke="#EB62F0" stroke-linecap="round" stroke-linejoin="round" stroke-width="0.539999954">
                    <path d="M15.1170213,0 L15.1191992,0 C23.4680995,2.01904557e-15 30.2362205,6.76812096 30.2362205,15.1170213 C30.2362205,23.4659216 23.4680995,30.2340426 15.1191992,30.2340426 L15.1170213,30.2340426 C6.76812096,30.2340426 1.0224454e-15,23.4659216 0,15.1170213 C-1.0224454e-15,6.76812096 6.76812096,3.31002495e-15 15.1170213,0 Z" id="Rectangle" fill="#FFFFFF"></path>
                    <g id="Group-Copy-9" transform="translate(8.368954, 5.668883)">
                        <path d="M0.364735553,12.3076348 L1.35265569,12.3076348 C1.55409358,12.3076348 1.71739124,12.4709207 1.71739124,12.6723441 L1.71739124,17.0561293 C1.71739124,17.2575527 1.55409358,17.4208386 1.35265569,17.4208386 L0.364735553,17.4208386 C0.163297669,17.4208386 0,17.2575527 0,17.0561293 L0,12.6723441 C0,12.4709207 0.163297669,12.3076348 0.364735553,12.3076348 Z M2.63023714,12.8914065 L3.85242035,11.7099073 C4.0564601,11.5126596 4.32916133,11.4023994 4.61296491,11.4023994 L8.43692913,11.4023994 C8.79817291,11.4023994 9.09101885,11.6952243 9.09101885,12.056442 C9.09101885,12.4176598 8.79817291,12.7104847 8.43692913,12.7104847 L6.55773652,12.7104847 L10.0305109,12.7104847 L13.3608622,11.29474 C13.6950681,11.1526679 14.0828887,11.278046 14.2706582,11.5888669 L14.3801201,11.7700626 C14.5672566,12.0798358 14.4989466,12.4799692 14.2196349,12.7101228 L10.7973051,15.5301316 C10.5360402,15.7454146 10.2080329,15.8631425 9.86948774,15.8631425 L4.61987461,15.8631425 C4.32708936,15.8631425 4.04107728,15.9512285 3.79902922,16.1159466 L2.63023714,16.9113306 M6.97268841,9.40793345 C4.34677012,9.40793345 2.21804274,7.30189581 2.21804274,4.70396673 C2.21804274,2.10603764 4.34677012,0 6.97268841,0 C9.59860671,0 11.7273341,2.10603764 11.7273341,4.70396673 C11.7273341,7.30189581 9.59860671,9.40793345 6.97268841,9.40793345 Z" id="Shape"></path>
                    </g>
                    <path d="M13.8222722,9.4481383 L17.0618673,9.4481383" id="Path-12"></path>
                    <path d="M13.8222722,8.09840426 L17.0618673,8.09840426 L13.8222722,8.09840426 Z M14.274986,10.8754698 L14.7982986,10.8754698 L14.274986,10.8754698 Z M14.7982986,8.09840426 C15.4233658,8.09840426 15.9300829,8.72007155 15.9300829,9.48693702 C15.9300829,10.2538025 15.4233658,10.8754698 14.7982986,10.8754698 M14.274986,10.8754698 L16.3022057,12.9574468 L14.274986,10.8754698 Z" id="Shape"></path>
                </g>
                <g id="Group-12" transform="translate(99.887514, 138.212766)" stroke="#4ED489" stroke-linecap="round" stroke-linejoin="round" stroke-width="0.539999954">
                    <path d="M24.2952128,0 L24.298713,0 C37.7165885,-2.46482374e-15 48.5939258,10.8773373 48.5939258,24.2952128 C48.5939258,37.7130883 37.7165885,48.5904255 24.298713,48.5904255 L24.2952128,48.5904255 C10.8773373,48.5904255 1.64321583e-15,37.7130883 0,24.2952128 C-1.64321583e-15,10.8773373 10.8773373,6.01753742e-15 24.2952128,0 Z" id="Rectangle" fill="#FFFFFF"></path>
                    <path d="M32.6731595,35.0930851 L17.1685902,35.0930851 C16.9307309,35.0930851 16.7379078,34.8988469 16.7379078,34.659242 L16.7379078,12.5332447 C16.7379078,12.2936398 16.9307309,12.0994016 17.1685902,12.0994016 C19.2620685,12.0994016 20.8321772,12.0994016 21.8789164,12.0994016 M28.3673415,12.0994016 C29.2393741,12.0994016 30.6746467,12.0994016 32.6731595,12.0994016 C32.9110189,12.0994016 33.103842,12.2936398 33.103842,12.5332447 L33.103842,18.9269601" id="Shape"></path>
                    <path d="M32.8853419,34.0807846 C30.3420918,32.4715771 29.0085584,30.6899027 28.2910456,29.367171 C27.8525221,28.5587548 27.4139333,26.6979959 26.9752794,23.7848942 C26.9017887,23.2967495 27.1494392,22.8164576 27.5897366,22.5932439 L32.3676414,20.1710312 C32.6930605,20.0060564 33.0776234,20.0060564 33.4030425,20.1710312 L38.1809115,22.5932257 C38.6212498,22.8164126 38.8689123,23.2967281 38.7954044,23.7848947 C38.3567505,26.6979961 37.9181618,28.5587549 37.4796383,29.367171 C36.7621254,30.6899027 35.2372787,32.7993302 32.8853419,34.0807846 Z" id="Path"></path>
                    <path d="M22.3920975,10.7978723 L27.8803348,10.7978723 C28.1487451,10.7978723 28.3663347,11.0154619 28.3663347,11.2838723 L28.3663347,12.9149309 C28.3663347,13.1833413 28.1487451,13.4009309 27.8803348,13.4009309 L22.3920975,13.4009309 C22.1236871,13.4009309 21.9060975,13.1833413 21.9060975,12.9149309 L21.9060975,11.2838723 C21.9060975,11.0154619 22.1236871,10.7978723 22.3920975,10.7978723 Z" id="Rectangle"></path>
                    <polyline id="Path-31" points="30.8769453 26.724734 32.023977 28.17597 35.8501472 25.0168163"></polyline>
                </g>
                <g id="Group-3-Copy-2" transform="translate(258.627672, 0.000000)" stroke="#EBA71F" stroke-linecap="round" stroke-linejoin="round" stroke-width="0.539999954">
                    <path d="M16.1968085,0 L16.199142,0 C25.1443923,-1.64321583e-15 32.3959505,7.25155817 32.3959505,16.1968085 C32.3959505,25.1420588 25.1443923,32.393617 16.199142,32.393617 L16.1968085,32.393617 C7.25155817,32.393617 1.09547722e-15,25.1420588 0,16.1968085 C-1.09547722e-15,7.25155817 7.25155817,1.64321583e-15 16.1968085,0 Z" id="Rectangle" fill="#FFFFFF"></path>
                    <path d="M11.8484101,7.01861702 L20.5475404,7.01861702 C21.1273068,7.01861702 21.5973003,7.48861054 21.5973003,8.06837692 L21.5973003,24.3252401 C21.5973003,24.9050065 21.1273068,25.375 20.5475404,25.375 L11.8484101,25.375 C11.2686437,25.375 10.7986502,24.9050065 10.7986502,24.3252401 L10.7986502,8.06837692 C10.7986502,7.48861054 11.2686437,7.01861702 11.8484101,7.01861702 Z M14.956144,8.63829787 C14.8964972,8.63829787 14.848144,8.68665112 14.848144,8.74629786 L14.848144,9.0701915 C14.848144,9.12983825 14.8964972,9.17819149 14.956144,9.17819149 L17.4398065,9.17819149 C17.4994533,9.17819149 17.5478065,9.12983825 17.5478065,9.0701915 L17.5478065,8.74629786 C17.5478065,8.68665112 17.4994533,8.63829787 17.4398065,8.63829787 L14.956144,8.63829787 Z M16.1979753,22.6755319 C16.7943682,22.6755319 17.2778403,22.1920947 17.2778403,21.5957447 C17.2778403,20.9993947 16.7943682,20.5159574 16.1979753,20.5159574 C15.6015823,20.5159574 15.1181102,20.9993947 15.1181102,21.5957447 C15.1181102,22.1920947 15.6015823,22.6755319 16.1979753,22.6755319 Z" id="Combined-Shape"></path>
                </g>
                <path d="M348.255223,37.7925532 L348.257712,37.7925532 C357.799313,37.7925532 365.534308,45.5275486 365.534308,55.0691489 C365.534308,64.6107493 357.799313,72.3457447 348.257712,72.3457447 L348.255223,72.3457447 C338.713623,72.3457447 330.978628,64.6107493 330.978628,55.0691489 C330.978628,45.5275486 338.713623,37.7925532 348.255223,37.7925532 Z" id="Rectangle" stroke="#4ED489" stroke-width="0.539999954" fill="#FFFFFF" stroke-linecap="round" stroke-linejoin="round" transform="translate(348.256468, 55.069149) scale(-1, 1) translate(-348.256468, -55.069149) "></path>
                <g id="Group-17" transform="translate(341.777278, 42.651596)" stroke="#4ED489" stroke-linecap="round" stroke-linejoin="round" stroke-width="0.539999954">
                    <path d="M11.9269421,18.2957623 L10.7669186,23.2337162 C10.6951295,23.5393059 10.42249,23.7553191 10.1085811,23.7553191 L2.84979911,23.7553191 C2.53589023,23.7553191 2.26325067,23.5393059 2.19146156,23.2337162 L1.03143806,18.2957623 C0.969430244,18.0318093 0.733937948,17.845228 0.462799293,17.845228 C0.207202301,17.845228 8.6812755e-17,17.6380257 0,17.3824287 L0,16.689158 C6.52832337e-17,16.3156702 0.302771717,16.0128985 0.676259557,16.0128985 L12.2821206,16.0128985 C12.6556085,16.0128985 12.9583802,16.3156702 12.9583802,16.689158 L12.9583802,17.3824287 C12.9583802,17.6380257 12.7511779,17.845228 12.4955809,17.845228 C12.2244423,17.845228 11.98895,18.0318093 11.9269421,18.2957623 Z" id="Path"></path>
                    <ellipse id="Combined-Shape" cx="6.4791901" cy="5.29339639" rx="5.26434196" ry="5.29339639"></ellipse>
                    <path d="M5.67061131,13.801226 L3.41861029,12.8281287" id="Path"></path>
                    <path d="M5.66961465,14.5152225 C4.69798898,14.8864852 3.8233034,14.8897814 3.04555506,14.5251173 C2.09965466,14.0815973 1.40968694,13.3212837 0.975651903,12.2441762 C2.20833563,11.5991234 3.29762959,11.4983529 4.2435338,11.9418647 C4.8126857,12.2087368 5.28917977,12.5902986 5.67301315,13.0865562" id="Path"></path>
                    <polyline id="Path" transform="translate(8.607940, 12.971355) scale(-1, 1) rotate(7.000000) translate(-8.607940, -12.971355) " points="9.96609491 13.2762002 9.96609491 13.2762002 7.24978475 12.666509"></polyline>
                    <path d="M12.9583758,13.9090169 C11.7857087,14.3443558 10.524481,14.373611 9.58581711,13.9460205 C8.4442041,13.4259805 7.6114828,12.5344749 7.08765322,11.2715038 C8.57539629,10.5151261 9.89007433,10.3969573 11.0316873,10.9169974 C11.7186023,11.2299084 12.2936832,11.6773085 12.7569299,12.2591975" id="Path" transform="translate(10.023014, 12.425389) scale(-1, 1) rotate(7.000000) translate(-10.023014, -12.425389) "></path>
                    <path d="M4.50522601,4.31914894 L8.36895388,4.31914894" id="Path-12"></path>
                    <path d="M4.50522601,2.69946809 L8.36895388,2.69946809 L4.50522601,2.69946809 Z M5.04515852,5.93882979 L5.66929134,5.93882979 L5.04515852,5.93882979 Z M5.66929134,2.69946809 C6.41478256,2.69946809 7.01912261,3.4246239 7.01912261,4.31914894 C7.01912261,5.21367397 6.41478256,5.93882979 5.66929134,5.93882979 M5.04515852,5.93882979 L7.46293764,8.36739209 L5.04515852,5.93882979 Z" id="Shape"></path>
                    <path d="M6.40063202,16.0128985 L6.40063202,10.5854132" id="Path-35"></path>
                </g>
                <path d="M414.667,19.4361702 L414.669333,19.4361702 C423.614584,19.4361702 430.866142,26.6877284 430.866142,35.6329787 C430.866142,44.5782291 423.614584,51.8297872 414.669333,51.8297872 L414.667,51.8297872 C405.721749,51.8297872 398.470191,44.5782291 398.470191,35.6329787 C398.470191,26.6877284 405.721749,19.4361702 414.667,19.4361702 Z" id="Rectangle" stroke="#1E9ED2" stroke-width="0.539999954" fill="#FFFFFF" stroke-linecap="round" stroke-linejoin="round" transform="translate(414.668166, 35.632979) scale(-1, 1) translate(-414.668166, -35.632979) "></path>
                <g id="Group-16" transform="translate(405.489314, 24.835106)" stroke="#1E9ED2" stroke-linecap="round" stroke-linejoin="round" stroke-width="0.539999954">
                    <path d="M9.62402123,13.8809661 C6.04953644,10.1798594 4.26229404,7.34148282 4.26229404,5.36583641 C4.26229404,2.40236679 6.66282107,0 9.62402123,0 C12.5852214,0 14.9857484,2.40236679 14.9857484,5.36583641 C14.9857484,7.34148282 13.198506,10.1798594 9.62402123,13.8809661 Z M9.62402123,7.2376398 C10.9324585,7.2376398 11.9931565,6.1761289 11.9931565,4.86668883 C11.9931565,3.55724877 10.9324585,2.49573786 9.62402123,2.49573786 C8.31558395,2.49573786 7.25488596,3.55724877 7.25488596,4.86668883 C7.25488596,6.1761289 8.31558395,7.2376398 9.62402123,7.2376398 Z" id="Combined-Shape"></path>
                    <path d="M9.55012743,10.6491398 C10.8244496,10.1853006 12.735933,9.48954187 15.2845774,8.56186353 C15.7558061,8.3903415 16.2756594,8.63662494 16.4457021,9.11195298 C16.5101308,9.29205316 16.5169247,9.48800321 16.4651271,9.67220358 L13.9359419,18.6663717 C13.8500838,18.9716965 13.6135027,19.2103356 13.3108111,19.2969407 L4.39421089,21.8481279 C3.91225411,21.9860237 3.41072835,21.7037084 3.27402177,21.2175589 C3.22222411,21.0333585 3.22901806,20.8374085 3.29344669,20.6573083 C4.15175132,18.2580517 4.79547979,16.4586092 5.22463211,15.2589809" id="Shape" transform="translate(9.869574, 15.195192) rotate(45.000000) translate(-9.869574, -15.195192) "></path>
                    <polyline id="Path-30" points="4.93417617 17.8398782 7.45768321 15.8218029 11.9931565 16.6220922 15.5389165 13.1965602"></polyline>
                </g>
                <g id="Group-11" transform="translate(207.334083, 62.087766)">
                    <path d="M32.393617,0 L32.398284,0 C50.2887847,-1.0391859e-14 64.791901,14.5031163 64.791901,32.393617 C64.791901,50.2841177 50.2887847,64.787234 32.398284,64.787234 L32.393617,64.787234 C14.5031163,64.787234 2.19095444e-15,50.2841177 0,32.393617 C-2.19095444e-15,14.5031163 14.5031163,-3.8189957e-15 32.393617,0 Z" id="Rectangle" fill="#1E9ED2"></path>
                    <g id="Group-10" transform="translate(19.437570, 12.957447)">
                        <path d="M11.0265811,18.044256 L11.0269953,29.3959268 L11.0283564,29.4958493 C11.0283564,31.5320792 9.38252563,33.1828342 7.35223762,33.1828342 C5.32200878,33.1828342 3.67611881,31.5320792 3.67611881,29.4958493 C3.67611881,28.1503819 4.39467181,26.9732426 5.46794452,26.3293402 C5.8204746,26.1178617 6.21144152,25.9639269 6.62770753,25.8804751 L6.64347876,25.8673282 L6.66093661,25.8739165 C6.88478167,25.8311816 7.11587617,25.8088644 7.35223762,25.8088644 C7.5885103,25.8088644 7.81957521,25.8311816 8.04353863,25.8739165 C8.80310277,25.5920738 9.34453263,24.8591105 9.34453263,23.999278 C9.34453263,23.1767198 8.84917372,22.4703472 8.14124337,22.1637835 C7.8819796,22.1361245 7.61878042,22.1219092 7.35223762,22.1219092 C7.08566523,22.1219092 6.82237728,22.1361245 6.56320227,22.1637835 C6.21889809,22.2006424 5.881725,22.2613616 5.55334,22.3441605 C4.96956747,22.4914476 4.41354995,22.7086538 3.89469693,22.9865198 C1.57712382,24.227346 1.31450406e-13,26.6768581 1.31450406e-13,29.4958493 C1.31450406e-13,33.5683685 3.29172077,36.8698191 7.35223762,36.8698191 C11.4127545,36.8698191 14.7044456,33.5683685 14.7044456,29.4958493 L14.7023448,29.4958493 L14.7025223,7.37396975 C14.7025223,5.33776953 16.3483531,3.68698487 18.3786411,3.68698487 C18.6408343,3.68698487 18.8966657,3.71449548 19.1433243,3.76690511 C19.51852,3.8464989 19.8726479,3.98351773 20.1960618,4.16834626 C20.6094872,4.40466443 20.9727583,4.71912222 21.2659021,5.09159859 C21.5889906,5.50212091 21.8268611,5.98333391 21.9528535,6.50817215 C22.3021879,6.81144169 22.7577192,6.99490508 23.2560371,6.99490508 C24.3563843,6.99490508 25.2483321,6.1002614 25.2483321,4.9966321 C25.2483321,4.88700516 25.2396032,4.77942594 25.2225892,4.67451764 C25.0820092,4.31622689 24.9142659,3.97158757 24.721845,3.64324094 C24.0408412,2.48108854 23.0514549,1.5225799 21.8663632,0.880873532 C21.3080081,0.578523976 20.7061859,0.346598005 20.0727621,0.196699339 C19.5289059,0.0680791013 18.9616739,3.55271368e-14 18.3786411,3.55271368e-14 C14.3181243,3.55271368e-14 11.0264035,3.30145061 11.0264035,7.37396975 L11.0269953,7.47154782 L11.0265811,15.0657508 L11.0265811,18.044256 Z" id="Fill-18" fill="#FFFFFF"></path>
                        <path d="M16.2439907,17.4168539 C16.9383099,16.8907396 19.3016876,15.5088288 18.8029555,14.2179671 C17.9152981,11.9206091 14.7828876,15.8832639 13.3475865,16.978732 C11.5740472,18.3323606 9.41164177,18.5520893 6.82625351,18.8399564 C6.82447813,18.8401345 6.82338332,18.840728 6.82305784,18.8414106 C6.7857158,18.9100536 11.2653688,21.1888635 16.2439907,17.4168539" id="Fill-19" fill="#F9B42A"></path>
                    </g>
                </g>
                <path d="M214.494246,72.8856383 C167.883351,75.816049 125.804274,85.1479103 125.804274,96.1747792 C125.804274,109.551943 175.601894,120.396277 237.030371,120.396277 C298.458848,120.396277 348.256468,109.551943 348.256468,96.1747792 C348.256468,85.7684484 308.153336,76.5776759 265.087717,73.1257924" id="Shape" stroke-opacity="0.14" stroke="#000000" stroke-width="0.539999954" stroke-linecap="round" stroke-linejoin="round"></path>
                <g id="Group" transform="translate(157.120360, 98.260638)" stroke="#F3726A" stroke-linecap="round" stroke-linejoin="round" stroke-width="0.539999954">
                    <path d="M14.5771277,0 L14.5792278,0 C22.6299531,2.97462593e-16 29.1563555,6.52640236 29.1563555,14.5771277 C29.1563555,22.627853 22.6299531,29.1542553 14.5792278,29.1542553 L14.5771277,29.1542553 C6.52640236,29.1542553 9.85929497e-16,22.627853 0,14.5771277 C-9.85929497e-16,6.52640236 6.52640236,3.25525109e-15 14.5771277,0 Z" id="Rectangle" fill="#FFFFFF"></path>
                    <path d="M14.5781776,13.2245819 C12.5653513,13.2245819 10.9336332,11.5898339 10.9336332,9.57327002 C10.9336332,7.55670614 12.5653513,5.92195811 14.5781776,5.92195811 C16.5910039,5.92195811 18.222722,7.55670614 18.222722,9.57327002 C18.222722,11.5898339 16.5910039,13.2245819 14.5781776,13.2245819 Z M14.5781776,14.8716142 C15.6896893,14.8097714 17.2890665,13.9951524 18.1711778,14.1702879 C20.2233642,14.41787 21.8672666,17.6414952 21.8672666,20.3600692 C21.4629379,21.7909959 16.9500112,21.8656915 14.5781776,21.8656915 M14.5781778,21.8656915 C12.2063441,21.8656915 7.54780995,21.7541032 7.28908886,20.3600692 C7.28908886,17.6414952 8.93299101,14.41787 10.9851775,14.1702879 C11.8672888,13.9951524 13.466666,14.8097714 14.5781778,14.8716142 L14.5781778,14.8716142" id="Leads-Copy"></path>
                </g>
                <g id="Group-Copy" transform="translate(355.275591, 99.880319)" stroke="#22D1B4" stroke-linecap="round" stroke-linejoin="round" stroke-width="0.539999954">
                    <path d="M19.6829973,0 L19.7320759,0 C30.6026951,-1.99690035e-15 39.4150731,8.81237804 39.4150731,19.6829973 L39.4150731,19.7292368 C39.4150731,30.599856 30.6026951,39.412234 19.7320759,39.412234 L19.6829973,39.412234 C8.81237804,39.412234 1.3312669e-15,30.599856 0,19.7292368 L0,19.6829973 C-1.3312669e-15,8.81237804 8.81237804,1.99690035e-15 19.6829973,0 Z" id="Rectangle" fill="#FFFFFF" transform="translate(19.707537, 19.706117) scale(-1, 1) translate(-19.707537, -19.706117) "></path>
                    <path d="M19.2631158,26.4055764 L11.4026631,26.4055764 C11.1730681,26.4055764 11.0200048,26.2522484 11.0200048,26.0222565 L11.0200048,17.8722855 L9.10671327,17.8722855 C8.95364994,17.8722855 8.80058662,17.7956215 8.76232079,17.6422936 C8.68578913,17.4889656 8.72405496,17.3356376 8.83885245,17.2206417 L17.6399935,9.8196188 C17.7930568,9.66629083 18.0609176,9.66629083 18.1757151,9.8196188 L26.9768562,17.2206417 C27.0916537,17.3356376 27.0916537,17.4889656 27.0533879,17.6422936 C27.015122,17.7956215 26.8620587,17.8722855 26.7089954,17.8722855 L24.7957038,17.8722855 L24.7957038,20.0647673 L24.7957038,20.0647673 M14.2861666,18.4797001 C14.0204735,18.4797001 13.8050867,18.6950714 13.8050867,18.9607453 L13.8050867,20.546258 C13.8050867,20.8119319 14.0204735,21.0273032 14.2861666,21.0273032 L16.1476637,21.0273032 C16.4133568,21.0273032 16.6287436,20.8119319 16.6287436,20.546258 L16.6287436,18.9607453 C16.6287436,18.6950714 16.4133568,18.4797001 16.1476637,18.4797001 L14.2861666,18.4797001 Z" id="Shape"></path>
                    <path d="M27.021933,22.9930544 L32.5633547,22.9930544 C32.6862149,22.9930544 32.8044206,23.0400544 32.8937367,23.1244182 L34.0757857,24.2409257 C34.2689618,24.4233907 34.2776448,24.7279079 34.0951799,24.9210839 C34.0889008,24.9277316 34.0824334,24.934199 34.0757857,24.9404781 L32.9003465,26.0507423 C32.8230761,26.1237283 32.7012692,26.1202551 32.6282832,26.0429846 C32.6265021,26.0410989 32.6247593,26.0391774 32.6230558,26.0372213 L32.1029608,25.4399759 C32.0331578,25.3598184 31.9115909,25.3514244 31.8314334,25.4212274 C31.8247604,25.4270385 31.818496,25.4333028 31.8126849,25.4399759 L31.306122,26.0216818 C31.2363191,26.1018393 31.1147521,26.1102333 31.0345947,26.0404303 C31.0279216,26.0346193 31.0216572,26.0283549 31.0158462,26.0216818 L30.5092833,25.4399759 C30.4394803,25.3598184 30.3179134,25.3514244 30.2377559,25.4212274 C30.2310828,25.4270385 30.2248185,25.4333028 30.2190074,25.4399759 L29.6248389,26.1222828 C29.5882883,26.1642552 29.5353573,26.1883494 29.4797009,26.1883494 L26.9988904,26.1883494 C26.3901858,27.4875102 25.0732328,28.3870455 23.5467027,28.3870455 C21.4414282,28.3870455 19.734766,26.6761443 19.734766,24.5656408 C19.734766,22.4551373 21.4414282,20.7442362 23.5467027,20.7442362 C25.0927876,20.7442362 26.4238915,21.666965 27.021933,22.9930544 Z" id="Combined-Shape"></path>
                </g>
            </g>
        </g>
    </g>
</svg>