<?xml version="1.0" encoding="UTF-8"?>
<svg width="571px" height="554px" viewBox="0 0 571 554" version="1.1" xmlns="http://www.w3.org/2000/svg" xmlns:xlink="http://www.w3.org/1999/xlink">
    <!-- Generator: Sketch 55.2 (78181) - https://sketchapp.com -->
    <title>Icon/India</title>
    <desc>Created with Sketch.</desc>
    <g id="Page-1" stroke="none" stroke-width="1" fill="none" fill-rule="evenodd">
        <g id="DrF_About" transform="translate(-808.000000, -901.000000)" fill-rule="nonzero">
            <g id="Icon/India" transform="translate(808.000000, 901.000000)">
                <path d="M460.479429,152.837725 L459.637767,158.221371 L458.008534,155.888898 L457.973915,154.153146 L460.479429,152.837725 L460.479429,152.837725 Z M459.068725,152.922677 L458.804759,151.565882 L458.216245,152.524136 L455.485711,152.735328 L455.360219,151.15422 L453.410765,152.410845 L457.169035,154.068172 L457.169035,154.068172 L457.119271,156.313531 L458.101571,156.616246 L459.536075,159.859071 L442.990597,168.010737 L432.838723,172.024488 L424.712031,169.713805 L417.993879,170.513071 L412.219081,173.398706 L406.595739,185.792825 L406.809941,187.887906 L400.51803,194.589135 L399.927352,195.595291 L400.758195,197.476953 L398.70705,199.282375 L392.151172,200.170938 L390.277446,196.991298 L390.84216,195.307814 L391.649204,195.320784 L391.396056,194.066342 L386.025862,192.180335 L379.257946,193.49139 L374.43732,195.806439 L370.298246,198.550531 L367.141472,202.096049 L364.008498,211.815768 L359.415056,219.137668 L357.089126,230.039953 L360.10959,246.264905 L363.921952,252.992247 L360.788978,274.788107 L365.996898,288.885293 L365.620422,297.267823 L369.192618,306.869926 L362.662704,294.946245 L361.442402,294.390877 L361.191418,298.520081 L359.856442,297.17418 L360.62454,295.841336 L359.756914,295.673593 L357.2276,299.674288 L362.236464,304.267358 L365.63124,304.345825 L369.05198,307.394815 L369.05198,307.394815 L369.054144,309.864487 L367.41842,308.945445 L365.349965,304.859798 L361.805896,304.766199 L358.062771,302.028657 L354.650686,302.401064 L354.471102,303.311395 L356.39892,303.69688 L356.548212,304.504857 L355.182945,304.352461 L354.706941,305.670044 L353.188054,306.051163 L353.2508,307.606159 L351.857406,308.237724 L352.811578,309.644605 L351.541512,311.419547 L348.174863,312.933148 L345.87057,312.891861 L344.942361,313.928517 L343.778314,312.963735 L342.291883,314.385855 L345.173872,316.655186 L343.339092,317.983664 L342.363283,316.731405 L340.818433,317.404345 L341.149472,316.171692 L340.119572,316.378561 L339.903206,313.937207 L335.90477,315.638092 L334.476757,314.625408 L333.890406,312.580412 L329.048144,311.996748 L326.590231,312.952819 L328.875052,313.963341 L328.232446,317.184376 L329.37702,316.361138 L329.80326,316.968753 L328.721432,317.352055 L328.818797,318.332098 L325.37642,319.466742 L325.683659,321.015188 L323.571931,322.541866 L321.734987,320.481631 L319.512912,320.745134 L319.510748,322.217361 L318.1801,323.114635 L316.540049,326.710261 L312.751487,326.392284 L308.698959,323.493592 L305.745569,323.900845 L304.797888,325.41879 L306.210755,326.185393 L304.274283,326.135243 L304.008153,323.044879 L298.118681,324.941782 L296.145427,324.443048 L295.751642,326.849578 L293.819497,326.220174 L292.123191,328.034329 L293.618277,330.815427 L292.668432,330.806781 L290.686523,337.701844 L289.037817,338.949736 L289.133018,341.658981 L288.079318,341.93338 L287.698514,340.82487 L287.698514,340.82487 L287.698514,340.82487 L287.698514,340.82487 L287.451857,340.905499 L286.677268,340.827032 L286.456576,342.691272 L285.05669,342.73926 L285.1454,344.821263 L281.010653,345.080444 L277.483894,343.172647 L276.304702,341.365042 L272.927235,341.855042 L274.619214,340.282645 L274.322793,338.544731 L274.322793,338.544731 L275.248837,334.141129 L278.057263,334.151937 L279.974262,330.390795 L281.465021,331.919635 L284.067899,331.664821 L283.472894,328.506949 L285.069672,328.755235 L284.781906,325.582124 L287.183564,324.595552 L287.062399,323.251813 L288.241592,322.522239 L287.371802,321.485582 L290.1045,319.769457 L288.830106,318.340788 L290.08719,317.550234 L290.485303,314.860594 L289.496512,313.120497 L287.919207,315.161126 L285.697132,312.726301 L284.076554,313.170582 L283.555113,312.2058 L282.051372,312.922318 L280.952235,312.16006 L282.32832,311.58729 L280.415648,310.528866 L282.029735,300.140553 L274.643014,299.718039 L272.630814,301.153237 L273.115473,298.367772 L271.600913,298.030211 L271.384548,296.85201 L267.987608,297.474864 L266.972853,295.998293 L267.232492,295.009538 L269.104054,295.185927 L269.285801,293.981571 L268.17801,292.897012 L269.686078,290.869439 L269.47404,287.887978 L266.193937,285.74934 L266.042481,287.330449 L263.658132,286.921013 L262.779688,288.857106 L261.819025,288.867914 L261.723824,286.054153 L263.335747,285.442172 L262.809979,282.772138 L260.326102,285.261415 L259.211819,283.67594 L256.100482,283.503874 L255.559568,284.729998 L256.526722,286.97099 L254.185646,288.123078 L254.295993,289.196742 L251.323129,290.239927 L251.137055,292.93175 L250.539886,291.594561 L249.098891,292.021419 L249.393148,290.843197 L248.436812,290.921664 L246.686414,291.87339 L247.876425,292.816383 L247.175401,293.182262 L246.013517,292.426553 L244.22201,293.69189 L242.573304,292.413497 L242.240101,295.127088 L241.110673,294.142699 L240.911616,295.405853 L239.407876,295.588727 L239.756224,289.932866 L237.547131,289.830621 L238.265465,288.155849 L235.318566,287.663665 L233.531386,288.593602 L232.938544,287.123558 L230.381103,287.953303 L229.62815,285.366039 L228.617723,286.929724 L228.319138,286.008499 L227.135619,287.00376 L227.055563,284.316304 L226.101391,285.137359 L226.397812,287.136615 L224.647414,287.491599 L226.38483,288.82881 L226.581723,291.908279 L223.351384,291.61862 L221.75677,292.646565 L220.229229,291.126436 L219.552004,292.931858 L218.69736,292.47452 L217.60255,289.124997 L219.81597,285.440075 L220.902126,285.250715 L220.655469,283.935294 L215.910571,279.40102 L217.898971,277.414843 L215.724497,274.520474 L213.762061,274.341923 L214.112573,273.035213 L216.176701,272.712891 L216.388739,271.619621 L219.930644,272.392752 L219.409203,275.879474 L220.1059,277.974556 L224.517595,278.492895 L225.705442,280.853663 L233.230638,279.303055 L235.0546,281.284888 L234.807943,285.289927 L236.714124,285.237616 L236.779034,286.069565 L238.388794,284.699692 L237.495204,283.44525 L238.533759,281.920777 L236.04339,281.903484 L236.393903,280.11983 L233.804006,279.392417 L236.941308,275.631297 L236.681669,274.925673 L234.63485,275.97757 L234.779815,274.65562 L236.090991,274.411701 L236.679505,272.743457 L241.692696,273.412073 L241.504458,267.767085 L239.622078,267.74763 L239.061691,265.990111 L236.493431,265.282304 L236.010936,266.671762 L237.854371,270.563574 L236.409048,271.504406 L235.123837,269.718569 L235.299093,267.882646 L231.692278,267.564691 L231.763679,264.990483 L229.535113,265.929131 L225.921808,264.681217 L224.100009,267.031112 L223.790606,270.502595 L222.442649,270.685469 L221.278602,269.274222 L216.215647,269.248066 L215.629296,267.749706 L216.771706,266.72831 L213.556514,264.278223 L213.738261,262.228882 L215.094873,261.139957 L216.384412,261.795495 L216.48394,259.663386 L217.825407,258.110573 L213.15191,258.570094 L211.219765,256.013309 L209.958354,255.795524 L208.166846,252.317513 L209.882626,246.106306 L209.079909,244.013386 L212.178265,242.854792 L212.890107,235.354297 L211.234911,235.964095 L208.331284,235.079877 L209.272475,232.886787 L208.805125,230.319107 L209.832862,229.408777 L213.446167,232.32273 L218.20621,233.182975 L219.060854,232.281356 L221.15311,232.298649 L220.88698,233.413708 L222.600596,233.6685 L226.00619,228.01264 L225.013072,226.971638 L226.172792,226.677634 L226.194428,224.571658 L224.506777,223.284554 L226.467049,221.507428 L225.731406,220.259536 L224.26012,220.063476 L224.000481,218.303773 L221.821679,218.558587 L220.274665,213.233759 L217.693424,210.613811 L217.762661,209.888581 L220.240047,210.186952 L220.361212,203.892997 L222.723924,202.997885 L224.299066,204.304595 L224.697178,202.708247 L220.995163,199.158362 L221.932026,194.983439 L220.047482,194.576165 L222.027227,191.394342 L225.536677,189.447355 L230.314029,188.639378 L242.114609,190.379474 L242.114609,190.379474 L246.504667,190.808495 L248.886853,192.468027 L251.476749,191.993245 L255.239347,192.995056 L259.248601,191.55333 L264.419739,193.282533 L265.977571,191.263671 L267.217346,193.972916 L269.29662,194.791788 L270.032263,193.766026 L271.791315,193.763864 L272.485849,191.339912 L275.110363,189.991828 L275.956353,185.174445 L278.654432,185.276906 L282.70696,182.833369 L289.656623,183.991986 L292.278974,181.98618 L296.65605,185.392338 L299.436348,185.533925 L302.220973,182.526309 L302.281556,179.255188 L303.417475,179.427255 L303.858861,181.452645 L305.572476,181.685669 L305.345293,178.068276 L306.254028,177.105656 L311.029217,175.058498 L317.626204,176.408744 L319.532385,175.348136 L319.83097,162.66438 L321.678732,160.146785 L328.946452,159.153707 L332.144336,156.884376 L338.977162,155.392565 L344.721668,152.197664 L346.322774,154.046664 L348.659522,153.680785 L350.481321,156.538103 L353.021453,156.337719 L357.086962,151.46154 L358.07359,148.223082 L356.416229,146.382793 L354.540339,145.873187 L355.35171,143.789 L356.996089,141.038381 L360.981543,140.088838 L363.166836,137.264161 L364.032298,138.771233 L366.79096,138.890988 L368.565158,141.482641 L369.374365,145.505103 L371.159381,146.265178 L371.808478,148.340653 L373.020125,146.511281 L375.415293,148.140291 L375.588385,149.33812 L380.409011,150.62304 L382.278409,149.444818 L380.034698,147.691665 L380.506375,145.596584 L381.493002,145.365721 L381.376165,142.874282 L377.170018,141.846336 L377.012071,143.303302 L371.144236,140.783545 L372.524648,138.727655 L371.540185,136.71316 L372.812414,135.717877 L373.965643,138.215865 L375.12969,138.586089 L376.758923,137.009347 L377.388547,134.278334 L380.29001,132.849664 L384.660595,135.234405 L383.88817,136.780668 L387.789241,136.332041 L392.622849,138.176675 L393.817187,136.983213 L394.336464,132.457651 L396.283755,132.474944 L395.922424,129.852813 L399.812678,130.876413 L402.316028,129.258276 L407.582367,128.369713 L408.432683,124.114204 L412.309955,124.220989 L414.914997,120.869305 L417.048362,122.456941 L419.032434,122.245749 L422.554866,118.105651 L422.916197,113.80224 L423.92446,112.360514 L422.98327,111.404443 L426.072971,106.743844 L426.319628,104.925344 L435.638494,99.887993 L436.110171,98.9079712 L434.548011,96.9631456 L434.548011,96.9631456 L436.484484,94.926861 L443.310818,92.2590107 L446.612557,89.1250897 L452.75734,89.8067622 L453.529766,91.3813425 L456.442047,92.851386 L457.599603,92.5334091 L457.586621,89.5846107 L458.98867,88.9312556 L459.334855,90.0833438 L460.433992,89.9571041 L460.596266,85.0961424 L461.69324,85.9215423 L462.037261,85.2268134 L459.362982,82.5567799 L460.572466,81.5985258 L460.756377,79.1920175 L462.340173,78.815244 L463.298673,77.2711644 L460.643867,76.7615367 L462.909214,74.2809707 L461.859841,72.3318002 L466.966069,66.2665035 L468.104153,67.9456206 L469.190308,67.8409973 L469.508365,71.1665692 L470.577211,71.0074727 L469.735549,73.3050992 L472.695431,74.3003822 L473.184417,75.3609898 L471.607112,77.2535471 L471.801841,79.0067003 L473.891932,80.9798218 L475.337255,78.2183293 L480.240099,76.0927475 L481.427946,73.0459405 L480.655521,71.8633732 L481.694076,70.9225419 L483.766858,72.3359721 L485.564857,72.1943848 L485.891569,74.3852913 L487.739331,75.1257604 L491.566838,73.544652 L493.209053,73.9824053 L493.429746,71.4147253 L492.486392,71.8981972 L491.486783,70.6807843 L494.836123,66.2118573 L492.261372,65.7348919 L492.008224,64.7788211 L493.235017,63.8924414 L491.15358,63.7988425 L491.313691,61.3792563 L493.098707,60.65621 L496.811541,54.9960044 L499.925042,56.4420753 L500.076497,57.7030668 L500.725594,55.3139597 L502.84165,55.7342902 L503.449637,54.1727662 L506.924469,53.6718714 L507.04347,52.145193 L508.737612,52.2061512 L509.417,50.8341164 L506.48741,47.600025 L508.00846,47.7720914 L506.446301,46.1539541 L505.686857,48.0769904 L504.613684,44.5902684 L506.472265,43.623303 L509.30449,44.2810029 L511.418382,46.7027723 L511.102488,44.1154863 L512.283845,44.0828456 L512.435301,43.0810345 L511.593638,40.7572737 L512.221099,40.3696272 L513.14498,41.5521944 L513.677239,40.9924815 L514.051552,42.9089897 L513.140652,42.8132291 L513.225035,43.5667545 L514.852104,43.8389912 L515.533656,40.5569763 L516.998451,41.7090645 L518.160334,39.8687756 L517.701639,38.3268793 L519.014979,36.7305097 L522.355663,43.3075957 L523.541347,43.5297473 L522.751612,44.8081399 L524.564756,48.020442 L526.116098,48.5191751 L524.281317,45.1326234 L526.431991,43.6974255 L530.196753,52.7964513 L533.3492,53.8418194 L537.302199,53.5739492 L539.781749,56.3267519 L541.64682,56.1568472 L542.932032,54.8414256 L551.125797,54.0639493 L551.296726,50.4857468 L552.491064,51.2371105 L552.904323,50.4639791 L551.993423,49.6973758 L553.633475,49.9608795 L552.620884,49.0723382 L554.094333,49.5579934 L555.52451,48.2382054 L554.899214,47.0708993 L556.032969,45.6879482 L554.877577,43.4382451 L557.439346,45.004114 L558.244226,43.1006837 L561.716894,40.9859966 L562.692702,43.4818021 L563.826458,41.4760183 L565.719657,41.5979347 L565.704512,40.2193501 L564.146679,40.4371351 L562.878777,38.1656427 L566.020405,38.2614033 L566.193498,36.5888143 L567.872495,36.8566845 L567.498182,38.3724683 L568.638429,39.5071336 L568.638429,39.5071336 L570.538119,40.6831727 L562.47201,50.0304626 L561.165161,54.0355238 L557.17538,57.8358562 L552.205462,65.3167447 L541.765822,75.1214155 L541.716057,77.138094 L523.3596,86.4657995 L516.717176,91.0218405 L514.767722,94.3038554 L509.358582,99.3324953 L509.358582,100.920154 L506.387882,104.975278 L500.45081,111.358552 L473.011324,125.355546 L462.177899,133.775083 L458.971361,137.843307 L457.800823,142.198986 L456.768759,142.697719 L457.095471,144.775377 L459.611803,146.972834 L461.537457,146.434888 L461.022506,151.811984 L459.068725,152.922699 L459.068725,152.922677 Z" id="IN-AP" fill="#265182"></path>
                <polygon id="IN-KA" fill="#265182" points="88.8671811 203.121963 87.5322053 202.154997 89.2112024 201.800013 89.0748921 199.94014 92.415577 198.269734 93.4541319 196.751767 94.4840321 198.844686 96.3902131 198.933962 99.6811339 197.315825 100.788926 193.998964 98.7594164 193.626557 100.100883 191.764501 100.975 193.639614 101.795026 193.600488 100.9036 191.311573 104.454159 184.743198 102.9158 183.978756 100.821381 184.99799 99.8304261 184.157351 102.840072 181.437211 105.308803 182.53703 105.161675 179.721086 106.388468 177.776261 105.944918 175.755237 102.292667 174.509507 102.234248 173.418399 99.1575291 172.887003 98.2769211 174.010774 98.9519818 172.904426 97.7879348 171.316789 97.8982813 168.760004 98.6966704 168.222059 99.5383326 169.446021 99.8758629 168.050014 98.6771975 167.758193 98.5062686 165.316817 96.5784511 164.994496 96.7407253 162.93426 95.3300216 164.190885 94.6225061 163.300139 96.1002832 162.897231 95.6762066 160.950244 97.3854948 162.958211 98.0778648 160.529913 99.717916 160.360009 99.5816057 161.224621 100.819217 161.73641 101.433695 159.33643 104.558015 158.101573 104.783035 155.455512 105.717734 157.069282 108.136702 156.757855 109.162275 160.5974 111.983682 159.473629 112.275776 158.00793 114.430777 158.116877 113.078492 156.551008 114.692579 154.78041 114.785616 152.87698 121.886736 150.246137 125.004564 150.287641 124.467977 146.217233 126.828526 145.178415 126.971327 143.87605 125.149529 142.917817 125.664479 142.188221 129.827353 142.162065 129.900917 142.915612 132.551396 141.826687 134.849199 145.385284 137.047473 145.385284 136.75538 146.877116 138.23532 146.957745 141.266602 145.352686 141.524078 141.537092 144.098828 141.643877 146.338212 140.513579 147.980427 141.12556 149.650769 140.088903 150.765052 142.099053 154.289648 141.116848 154.536305 139.026112 156.063846 139.248242 156.115774 140.8359 157.671442 141.715752 159.010745 141.277999 158.904726 137.701979 157.615187 137.669339 159.183838 136.41708 159.188165 134.931775 156.901181 131.329622 158.446031 129.519855 158.344339 127.000077 155.901572 125.013878 156.22612 123.160533 154.945236 122.805549 154.661797 121.233152 156.349449 120.808476 157.245202 116.740252 159.144892 117.670189 159.761534 119.824088 161.838644 119.384151 164.796362 121.840766 165.811116 119.338433 167.496604 121.098114 168.641178 119.601936 168.931108 122.624792 170.629578 124.027328 176.218302 122.594292 177.313112 123.744197 179.236602 122.021523 181.134128 123.230224 181.705333 125.305721 181.54955 122.857817 184.812343 121.62951 186.238193 123.724612 189.306257 122.803365 189.697879 124.669788 191.030691 124.613154 192.225029 121.88214 190.139264 121.609925 190.64556 118.791798 188.856216 118.891882 188.726397 117.158313 190.729943 115.984457 189.299766 115.94317 190.325339 114.62122 189.143983 113.654254 188.765343 111.169344 192.56905 110.725062 193.159728 108.812899 195.903244 108.039767 195.769097 105.526539 197.458913 105.44591 197.461076 103.368252 199.706951 103.31594 199.704788 106.068743 201.572023 102.923927 203.778952 106.750394 205.018727 107.127167 205.362748 104.934077 206.697724 104.413577 206.158974 102.279283 208.290175 102.033203 209.44124 100.158068 207.145601 98.7032641 207.290566 96.7519319 210.103319 98.1653405 215.250656 95.9374052 215.306911 90.3098618 216.979417 90.0027795 216.633232 88.3781141 217.596059 87.2630548 215.52544 86.3570691 216.955617 83.0794207 218.485322 82.9073543 220.118882 84.1378235 220.521322 83.1316675 221.646423 84.6300284 223.965863 84.6127353 223.362203 82.5916903 225.82877 81.5659283 226.759143 78.4973536 228.37323 78.6367792 227.884244 76.9772465 230.132282 74.2135708 229.913753 72.3950713 233.410221 70.2390104 234.528831 71.3627811 235.777261 70.5330148 235.781588 72.7761897 237.609877 73.3576703 235.286111 77.0752552 238.799888 77.2734774 240.113227 79.4970679 242.142737 78.6150331 242.110282 77.264766 243.942899 77.9987069 243.942899 77.9987069 246.344557 78.6368224 244.591995 82.332618 246.108718 84.6520123 246.236374 87.1521844 243.752497 89.3278513 245.859898 91.4055096 248.302665 92.2134866 248.629377 93.3503353 248.203137 94.4436053 247.285747 93.9013152 246.961199 96.5147354 245.539677 96.2599215 246.061118 98.058815 244.977126 97.9455452 243.934244 100.552437 242.858907 100.136473 242.175192 101.345175 241.885262 102.242449 244.669887 103.117934 244.490304 103.928094 239.431676 106.582888 238.959999 111.805341 241.229674 112.526225 241.755442 113.732744 242.923817 112.197354 243.873662 113.327674 245.749551 112.693904 245.836098 114.124757 250.087682 115.409677 250.014117 116.966835 248.387048 116.570477 248.599086 115.522926 248.040863 116.818741 246.705887 117.108401 246.690742 118.33018 244.996599 117.855398 244.968472 119.02707 242.140573 119.136017 243.289474 120.235837 242.94978 121.753782 241.640769 122.609683 239.487931 121.832185 238.691705 125.734892 239.619914 126.322901 236.26192 128.98859 237.097091 129.509091 235.340202 131.743554 239.987735 134.472384 241.653751 139.056743 239.57015 143.712976 240.37503 149.863203 238.851816 149.671466 238.211374 152.918635 240.178137 153.040551 240.098082 154.632554 237.901971 155.364312 238.644105 156.555591 240.294975 156.117859 240.059136 159.081897 236.766052 159.979171 237.84788 162.21798 236.207828 162.553379 235.627969 163.809983 232.473358 163.46371 232.263483 164.306533 229.690896 164.570058 231.932444 167.642999 234.572104 168.742819 237.687769 169.546429 241.435221 168.92792 245.833934 170.735525 245.775515 173.128977 244.628778 172.617187 243.21591 174.272354 241.740297 174.028434 241.121491 174.879968 241.175583 176.082142 242.170864 176.127968 240.941908 179.183487 241.080382 181.202349 242.110282 181.779463 241.264292 185.218283 242.140573 186.555472 242.110282 190.39065 242.110282 190.39065 230.309702 188.650553 225.53235 189.458552 222.022899 191.405539 220.043154 194.587362 221.927699 194.994615 220.990836 199.169537 224.692851 202.719422 224.294738 204.315792 222.719597 203.009082 220.356884 203.904173 220.23572 210.198149 217.758333 209.899778 217.689096 210.625008 220.270338 213.244956 221.817352 218.569784 223.996154 218.31497 224.255792 220.074673 225.727079 220.270733 226.462722 221.518647 224.502449 223.295773 226.190101 224.582877 226.168464 226.688853 225.008745 226.982857 226.001863 228.023859 222.596268 233.679719 220.882653 233.424906 221.148782 232.309868 219.056527 232.292575 218.201883 233.194194 213.44184 232.333948 209.828534 229.419996 208.800798 230.330326 209.268147 232.898006 208.326957 235.091096 211.230583 235.975292 212.88578 235.365494 212.173937 242.865989 209.075582 244.024605 209.878298 246.117525 208.162519 252.328732 209.954026 255.806742 211.215438 256.024527 213.147583 258.581313 217.82108 258.121792 216.479613 259.674604 216.380085 261.806693 215.090546 261.151176 213.733933 262.240101 213.552186 264.289442 216.767379 266.739529 215.624969 267.760924 216.211319 269.259285 221.274275 269.285441 222.438321 270.696688 223.786279 270.513814 224.095682 267.042331 225.91748 264.692436 229.530786 265.940328 231.759352 265.00168 231.687951 267.575888 235.294765 267.893865 235.119509 269.729788 236.404721 271.515625 237.850043 270.574793 236.006608 266.68298 236.489104 265.293523 239.057363 266.001308 239.61775 267.758828 241.500131 267.778282 241.688369 273.423249 236.675178 272.754654 236.086664 274.422876 234.775488 274.666796 234.630523 275.988745 236.677342 274.936849 236.93698 275.642473 233.799679 279.403614 236.389575 280.131006 236.039063 281.91466 238.529431 281.931953 237.490876 283.456448 238.384466 284.710889 236.774706 286.080763 236.709797 285.248813 234.803616 285.301125 235.050272 281.296064 233.22631 279.314231 225.701115 280.86486 224.513268 278.50407 220.101573 277.985753 219.404876 275.890672 219.926317 272.403928 216.384412 271.630797 216.172374 272.724088 214.108246 273.04641 213.757734 274.353099 215.72017 274.53165 217.894644 277.425997 215.906244 279.412196 220.651142 283.946469 220.897798 285.261891 219.811643 285.45125 217.598223 289.136151 218.693033 292.485674 219.547677 292.943034 220.224901 291.13759 221.752442 292.657741 223.347057 291.629795 226.577395 291.919455 226.380503 288.839964 224.643087 287.502775 226.393485 287.14779 226.097064 285.148535 227.051236 284.32748 227.131291 287.014936 228.314811 286.019675 228.613396 286.9409 229.623823 285.377193 230.376775 287.964479 232.934217 287.134712 233.527059 288.604756 235.314238 287.674819 238.261138 288.167024 237.542804 289.841775 239.751897 289.944237 239.403548 295.600076 240.907289 295.417201 241.106346 294.154048 242.235774 295.138436 242.568977 292.424824 244.217683 293.703238 246.00919 292.437902 247.171073 293.193611 247.872098 292.827732 246.682087 291.884739 248.432485 290.933013 249.388821 290.854545 249.094564 292.032746 250.535558 291.605909 251.132727 292.943098 251.318802 290.251276 254.291665 289.208091 254.181319 288.134427 256.522395 286.982339 255.55524 284.741347 256.096154 283.515201 259.207492 283.687267 260.321775 285.272721 262.805652 282.783465 263.33142 285.453499 261.719496 286.065458 261.814697 288.879241 262.775361 288.868433 263.653805 286.93234 266.038154 287.341776 266.18961 285.760646 269.469712 287.899305 269.681751 290.880766 268.173682 292.908339 269.281474 293.992898 269.099727 295.197254 267.228165 295.020865 266.968526 296.009598 267.983281 297.486191 271.38022 296.863315 271.596586 298.041538 273.111145 298.379099 272.626486 301.164564 274.638686 299.729366 282.025408 300.151858 280.411321 310.540171 282.323993 311.598617 280.947907 312.171387 282.047045 312.933623 283.550786 312.217127 284.072227 313.181909 285.692805 312.737628 287.91488 315.172453 289.492185 313.131824 290.480976 314.871921 290.082863 317.561539 288.825779 318.352115 290.100172 319.780763 287.367475 321.496909 288.237264 322.533566 287.058072 323.26314 287.179237 324.606879 284.777579 325.593429 285.065345 328.766562 283.468567 328.518276 284.063572 331.676148 281.460694 331.930962 279.969935 330.402122 278.052936 334.163242 275.24451 334.152434 274.318465 338.556015 274.318465 338.556015 269.789933 337.745876 266.440594 334.385459 264.999599 334.222039 264.391612 336.565384 263.482876 336.556738 261.860134 334.060932 260.918944 335.716098 260.213592 335.330613 261.356002 333.747322 260.598723 332.708503 254.581595 334.779612 255.243674 336.961829 252.160464 342.667775 250.909871 342.214782 249.756642 343.36032 248.66616 342.192992 245.769024 342.963962 246.108718 344.660502 244.84947 347.587511 245.232438 349.950484 246.493849 350.285862 245.089636 351.742849 247.346329 351.33123 247.114818 354.523948 246.379175 357.058966 243.611859 360.308296 240.327429 361.321002 240.121882 364.084678 251.928953 365.704998 253.835134 368.564521 250.256447 372.994236 248.943108 376.317625 240.967872 376.583333 240.628178 379.19457 239.535531 378.61309 239.693478 380.902005 238.016645 384.994158 235.309911 383.693998 233.797516 384.610857 231.928117 382.788012 229.976499 382.598437 229.310093 383.463027 223.682424 384.416936 223.976681 386.742859 222.269556 386.176618 221.585841 383.767926 220.036663 384.342879 220.458576 383.454316 219.225292 382.572303 217.790788 382.661578 217.193619 384.323272 214.480395 383.484816 211.256547 389.92252 212.271302 391.878219 211.65466 393.141372 210.71347 392.091637 207.530732 391.475311 199.098964 391.494766 198.207538 388.702773 196.567486 387.428725 194.174483 389.412741 192.910908 389.218842 192.910908 389.218842 191.686279 387.287094 192.705361 386.546625 192.196901 384.867508 188.905981 385.917221 186.054282 382.543747 183.630987 382.705005 182.068828 379.756207 178.628614 380.339871 178.622124 374.810336 173.48344 377.001243 168.152192 376.195427 165.780825 374.178749 164.662215 370.154103 160.91909 370.574412 160.220229 368.803836 158.446031 369.226328 157.20842 366.852482 154.570923 366.464836 150.308521 360.188282 147.428695 360.177474 147.530387 356.451199 145.003236 354.584776 145.048673 352.51583 147.580151 352.126 147.216656 350.425093 143.880299 352.311122 143.609842 350.723464 141.175729 349.427649 140.981 347.295539 143.291784 346.319862 140.974509 345.091554 138.538232 347.36523 137.566751 344.466517 135.651915 344.841107 134.918436 344.085398 135.266784 342.088304 132.343685 341.093043 132.207375 342.550009 130.608433 342.844035 130.692816 340.306834 128.764998 340.561648 128.994346 339.927898 127.752407 339.603393 128.832071 338.183435 128.092101 336.789611 122.421159 338.4622 122.421159 338.4622 120.333231 333.91487 114.634161 310.877646 113.526369 297.551408 110.633561 286.694862 108.971873 282.959855 107.221475 282.103976 105.864863 279.407808 104.480123 271.896419 103.158129 270.014756 99.170511 256.958593 100.957691 255.632277 99.661661 254.58038 99.2700392 256.063502 97.1691292 256.128783 96.4919049 252.345874 95.3581491 251.161123 96.0505191 250.538269 95.2196752 247.038469 93.7721893 245.490023 92.4263952 246.896903 87.4694593 243.11181 88.7395254 242.824334 89.0792194 240.883875 88.2224116 240.857719 87.5560056 238.566621 87.5560056 238.566621 89.4578592 237.40366 91.0892558 237.943766 90.9421272 235.970645 92.7401254 237.360103 95.3797857 235.236704 94.9989822 234.106405 96.8402535 231.80225 95.7540982 229.173591 96.2625574 226.954367 97.7251888 225.035697 97.0371462 223.197591 94.8107442 221.579454 98.6209424 219.922104 98.019446 216.428854 95.9488272 215.42486 95.9423363 212.86373 94.7566528 210.681513 96.1565382 208.965389 94.6636156 207.092438 95.3083851 205.036547 94.7068887 202.937099 93.6337153 202.357802 92.8028714 203.181019 91.7578255 201.678313 91.0005459 203.039474 88.8671811 203.122265"></polygon>
                <polygon id="IN-KL" fill-opacity="0.2" fill="#FFFFFF" points="122.431977 338.464059 128.102919 336.79147 128.84289 338.185294 127.763225 339.605252 129.005164 339.929757 128.775816 340.563507 130.703634 340.308693 130.619251 342.845872 132.218193 342.551868 132.354503 341.094902 135.277603 342.090163 134.929254 344.087257 135.662733 344.842966 137.577569 344.468376 138.54905 347.367089 140.985327 345.093413 143.302603 346.321721 140.991818 347.297398 141.186547 349.429508 143.62066 350.725323 143.891117 352.31296 147.227475 350.426952 147.590969 352.127859 145.059491 352.517689 145.014055 354.586635 147.541205 356.453037 147.439513 360.179333 150.319339 360.190141 154.581742 366.466695 157.219238 366.854341 158.456849 369.228187 160.231047 368.805695 160.929908 370.576271 164.673033 370.155962 165.791643 374.180608 168.16301 376.197286 173.494259 377.003102 178.632942 374.812174 178.639433 380.34173 182.079646 379.758066 183.641805 382.706864 186.0651 382.545606 188.916799 385.91908 192.20772 384.869345 192.716179 386.548463 191.697097 387.288932 192.921726 389.220679 192.921726 389.220679 192.982308 390.888923 190.954963 390.930211 189.600514 392.766133 187.235638 393.617667 186.015336 392.297901 183.968518 393.613322 184.617614 398.456839 186.335557 397.768639 188.276357 399.149385 188.856216 398.500396 192.331048 399.661174 194.051155 402.072049 196.818471 403.67713 198.118828 403.448451 198.209701 406.185992 193.962445 409.045515 194.250211 411.367092 195.82968 410.323907 201.961481 411.114462 205.308657 409.004141 206.604687 410.042959 205.046854 413.013547 207.201856 414.085049 207.128291 417.491185 209.635969 417.726393 205.743552 418.233838 203.145001 423.179709 210.771888 426.056654 211.808279 428.55246 213.976263 428.91181 214.393848 430.253345 212.491995 434.654785 213.266584 436.767289 210.202847 436.908876 211.323621 438.812328 210.308866 446.650384 211.758515 449.194092 210.867089 452.160334 211.721733 452.970473 212.887944 452.397704 212.79707 453.45615 214.753015 455.403137 217.710733 456.145768 220.778797 454.32729 221.382457 452.608961 226.415121 449.810439 229.095891 450.087021 228.749706 451.674658 230.383266 454.072476 230.201519 455.596971 231.737715 456.211114 230.800852 460.26626 227.540222 461.490202 230.270756 464.815773 230.766233 467.890898 229.664933 468.376553 228.053009 471.909015 229.165128 472.688675 228.496558 474.27415 229.630314 475.469795 228.535504 475.866153 228.464103 478.542715 227.635423 478.825846 225.913153 483.858831 227.908044 483.943783 230.584486 485.74486 232.817379 484.455573 233.745588 485.825424 234.47474 484.36193 234.911798 487.519802 236.982417 488.885309 236.181864 490.989102 234.173992 491.892904 233.135437 496.629723 231.904317 496.651555 231.121073 498.328489 231.121073 502.093998 229.753642 503.455138 230.439521 505.114649 227.908044 507.617004 227.284911 509.999562 225.02389 511.132044 227.198365 514.104793 227.209183 515.537808 228.30832 515.461502 230.041409 518.12719 228.758361 521.95584 227.031763 523.822242 226.0711 523.704649 231.045345 532.871182 230.246956 534.524165 227.481804 534.890044 228.522522 537.438118 225.140728 540.147364 226.265829 543.172381 224.556541 542.693254 223.403312 543.832265 223.403312 543.832265 217.896807 539.844648 202.35743 519.18127 198.482322 516.149702 197.236056 510.827058 189.046618 492.587611 184.492122 467.339875 185.210456 467.148137 187.133946 470.813454 190.074355 473.953903 190.078682 479.52265 191.413658 480.452587 189.916408 487.563251 191.097764 488.427842 191.097764 487.530567 196.470122 487.288831 192.582032 485.694645 193.222474 483.614804 192.820034 481.81591 191.976208 481.955336 192.48034 479.683843 191.069637 479.376761 190.831634 471.959036 189.146146 469.443624 188.404012 469.68536 188.934108 471.079184 188.178992 470.859216 185.046018 464.371427 185.725406 462.09559 183.057618 458.976908 184.76907 466.618969 183.888462 466.79752 178.239156 448.224878 169.671079 429.255857 167.293221 418.82617 161.77157 403.367821 159.367749 398.97948 156.410031 397.644453 153.013091 388.177365 146.799071 380.942579 144.546705 379.951662 140.494177 373.176376 138.897399 372.333553 137.575405 373.200348 136.681815 369.04501 127.246111 350.330803 122.431977 338.463735"></polygon>
                <path d="M41.1412568,543.464484 L41.0547105,544.479351 L40.2498305,545.343963 L39.4427868,545.354771 L38.862927,545.128296 L38.8391268,544.847348 L39.0901109,545.076028 L39.869027,545.012908 L40.5354331,544.618712 L41.1412568,543.464462 L41.1412568,543.464484 Z M67.5248782,461.033102 L67.3604403,463.014934 L67.0834924,463.206672 L66.7935625,462.516288 L67.0445465,462.555413 L67.2327846,462.261409 L67.5248782,461.033102 L67.5248782,461.033102 Z M7.57646102,459.554347 L7.75171715,460.087904 L7.48775112,459.998628 L7.57646102,459.554347 L7.57646102,459.554347 Z M67.9532821,458.657072 L68.1415201,459.310427 L68.0030462,459.857062 L67.9532821,458.657072 L67.9532821,458.657072 Z M21.804663,439.254664 L22.131375,439.4964 L22.1183931,439.971182 L20.5951792,440.94031 L21.804663,439.254664 L21.804663,439.254664 Z M68.7451802,427.997394 L68.6824342,428.178107 L69.8378265,428.306509 L68.4920324,428.781291 L68.0008825,428.602739 L67.9770823,428.180247 L68.7451802,427.997373 L68.7451802,427.997394 Z M0.542415316,428.075862 L1.28454933,426.716883 L1.52255149,425.730312 L1.8124814,425.410173 L2.07644743,425.423143 L0.542415316,428.075754 L0.542415316,428.075862 Z M5.9147732,422.258829 L5.77629921,422.361291 L5.90179126,422.707585 L5.59887942,422.746711 L5.66162544,422.311141 L5.9147732,422.258829 L5.9147732,422.258829 Z M7.51155134,421.925634 L6.92087324,422.385155 L6.98361927,422.143419 L7.51155134,421.925634 Z M25.855027,413.475597 L25.917773,413.86106 L25.3379132,414.655981 L25.112893,414.372871 L25.1518388,413.987387 L25.855027,413.475597 Z M28.5098329,407.769651 L27.9689189,409.731878 L27.2029847,411.450207 L27.9581007,408.64077 L28.5098329,407.769651 Z M38.0082828,396.769357 L38.4237048,397.257195 L38.5362149,397.988953 L38.3587951,398.169666 L38.0948291,397.065501 L37.8676452,396.884788 L38.0082828,396.769357 Z M1.15905728,391.993347 L1.28454933,392.237267 L1.09631126,392.174147 L1.15905728,391.993434 L1.15905728,391.993347 Z M25.0631289,387.136752 L25.1778027,387.792291 L24.647707,388.31932 L25.0631289,387.136752 L25.0631289,387.136752 Z" id="IN-LD" fill="#000000"></path>
                <path d="M348.179191,428.269609 L346.463411,428.254478 L346.266519,425.793518 L342.547194,424.408405 L341.495657,421.899543 L343.393184,422.291535 L342.776542,420.27704 L345.108963,421.18737 L345.924661,420.316252 L348.330647,420.786646 L348.330647,420.786646 L348.179191,428.269717 L348.179191,428.269609 Z M345.877061,382.325833 L345.033235,380.849261 L343.691768,381.580997 L343.585749,379.910591 L341.502148,380.94072 L339.474803,379.673222 L340.554467,377.865595 L342.027917,379.241997 L342.458484,378.475393 L341.60384,376.754902 L340.342429,376.391207 L341.287946,374.749119 L338.812724,374.089214 L340.381374,372.562557 L341.595185,374.503016 L342.902034,373.71899 L343.713405,374.405008 L342.043062,374.962537 L343.003725,377.750185 L345.766714,375.141132 L347.566876,376.206084 L347.566876,376.206084 L345.877061,382.325833 Z M457.171199,154.068216 L453.412928,152.410888 L455.362382,151.154263 L455.487874,152.735371 L458.218408,152.524179 L458.806923,151.565925 L459.070889,152.92272 L459.070889,152.92272 L459.070889,152.92272 L459.070889,152.92272 L459.066561,152.937852 L459.066561,152.937852 L456.779577,153.149044 L457.171199,154.068086 L457.171199,154.068216 Z" id="IN-PY" fill="#265182"></path>
                <polygon id="IN-TG" fill="#265182" points="243.947226 77.9917897 244.715324 76.7221084 242.568977 75.2280923 244.185228 71.9548105 242.858907 71.4996344 245.544004 70.6350225 243.776297 69.7791435 245.150219 68.8056499 246.262338 69.2629876 246.091409 65.7566596 248.425994 65.5127404 248.821943 66.72797 252.396303 65.4103868 252.231865 59.6151436 253.352639 58.1254941 254.657323 59.2253138 256.968108 53.3233505 261.730315 52.6133822 258.967326 48.4841782 257.106582 48.3512374 257.705914 46.3890106 255.847334 46.524113 256.048554 44.947371 253.794024 44.9929816 253.343984 42.7323839 253.536549 41.1273245 255.146309 41.6412971 255.392966 39.2129995 257.452767 39.7814022 256.680342 37.5970239 257.917953 35.4322516 257.381366 34.6547753 258.32472 31.8584156 260.062136 31.2834631 258.078063 30.4733028 258.030463 29.6086909 262.018081 27.7270499 266.403812 31.1092351 266.648305 32.5052425 268.056845 31.8801833 272.033645 32.7665845 273.260438 28.1843877 272.583213 24.3426815 278.321229 22.195332 276.973271 17.301708 278.425084 16.6483529 278.41643 15.0911954 276.547031 12.253462 277.276183 10.9750693 279.969935 9.8251644 280.986853 6.57583349 279.684332 3.77512892 277.652659 3.27639582 278.803724 0.0989177586 279.561004 1.65607526 281.731151 1.84543474 282.341302 3.91003675 285.898352 4.87481899 286.703232 5.99424481 288.168027 4.62000511 291.67315 4.82255058 296.781542 7.26392608 299.879897 6.68679037 302.632068 7.66899541 303.229237 12.5800422 305.81697 12.031224 308.216464 12.9219485 308.742233 16.0079677 307.565204 17.6086822 309.300456 17.1164772 310.455848 18.1792681 314.283356 18.7542206 317.675968 21.9904952 319.720623 21.6485673 318.991471 20.5008456 320.341592 18.8108555 320.670468 14.6881796 323.431293 15.7662101 323.857533 16.9509606 326.337083 16.6765623 330.930525 20.2220808 334.201973 17.767649 334.647686 19.135339 336.711814 19.9171818 338.598522 16.4936229 343.155181 15.1411725 345.197673 15.6006935 347.136308 18.323017 352.207918 21.8075558 353.69435 24.8587077 353.185891 29.8285511 351.301346 33.241237 352.344229 35.9199819 348.488593 39.1083547 348.55783 42.4404547 351.117436 41.8306566 351.950443 43.0611258 352.153827 50.8599912 350.115663 52.2058918 351.837933 54.427299 355.477202 55.2723049 359.936497 59.606216 362.076353 58.6588566 363.474075 59.6345335 364.060426 58.5869821 367.033289 57.6069603 367.033289 57.6069603 370.399938 63.8987318 376.813014 61.9060042 383.572276 67.1284783 384.392301 69.3542304 386.571103 71.0856159 386.2141 71.8827199 387.82386 72.3770865 387.358674 73.6228168 388.641722 77.4754176 390.612812 79.7730442 388.128935 81.4543445 388.187354 83.7018644 391.056362 83.9610447 392.490866 80.7247701 394.208809 82.0053244 393.334692 82.464867 393.959988 85.5617592 399.018616 83.8717475 397.672822 88.0249024 401.679913 101.899938 403.542821 102.063357 407.437402 98.9054853 411.71495 100.832888 417.645531 101.096392 417.645531 101.096392 421.01867 100.233963 422.003134 101.274986 425.969115 100.083708 427.890442 100.678245 430.240172 97.7490523 431.384746 97.374462 432.057643 98.500416 434.554502 96.9650262 434.554502 96.9650262 436.116662 98.9098519 435.644985 99.8898736 426.326119 104.927225 426.079462 106.743541 422.989761 111.404141 423.928788 112.362373 422.920524 113.804121 422.559193 118.105348 419.034598 122.247608 417.050525 122.456639 414.914997 120.871164 412.309955 124.22287 408.432683 124.116085 407.582367 128.371572 402.318191 129.260135 399.812678 130.880455 395.922424 129.856876 396.283755 132.478986 394.336464 132.461693 393.815023 136.987255 392.620685 138.180717 387.787078 136.336084 383.886006 136.78471 384.658431 135.238447 380.287846 132.85589 377.386383 134.284559 376.756759 137.015573 375.127526 138.592336 373.963479 138.222091 372.810251 135.721941 371.540185 136.717202 372.522484 138.731719 371.142072 140.787588 377.009907 143.309549 377.170018 141.852562 381.376165 142.878324 381.493002 145.369785 380.506375 145.600626 380.034698 147.695707 382.278409 149.448882 380.409011 150.627104 375.588385 149.342162 375.415293 148.144355 373.020125 146.515323 371.808478 148.344717 371.159381 146.269221 369.376529 145.509167 368.565158 141.488866 366.79096 138.895052 364.032298 138.777459 363.164672 137.268225 360.97938 140.092881 356.993925 141.042423 355.349547 143.790859 354.540339 145.875067 356.416229 146.386857 358.07359 148.224962 357.086962 151.465582 353.021453 156.341783 350.481321 156.542167 348.659522 153.684828 346.322774 154.050706 344.719505 152.203889 338.974998 155.396607 332.142172 156.88844 328.944289 159.157749 321.676568 160.150849 319.828806 162.668443 319.528058 175.3522 317.621877 176.414991 311.02489 175.064724 306.249701 177.111903 305.340965 178.074502 305.570313 181.694078 303.856697 181.45887 303.415311 179.43348 302.279392 179.261414 302.21881 182.532534 299.434184 185.540129 296.65605 185.398542 292.278974 181.990222 289.654459 183.996006 282.704796 182.837412 278.654432 185.280949 275.956353 185.178487 275.110363 189.995892 272.485849 191.343976 271.789151 193.767907 270.030099 193.770068 269.294456 194.79583 267.215183 193.976959 265.973244 191.267735 264.415412 193.286596 259.244274 191.557373 255.237183 192.99912 251.472421 191.997309 248.884689 192.47207 246.502504 190.812559 242.112446 190.383517 242.112446 190.383517 242.142737 186.548339 241.266456 185.211149 242.110282 181.772329 241.082545 181.195194 240.944071 179.176332 242.170864 176.120813 241.177746 176.072825 241.121491 174.872835 241.740297 174.021301 243.213746 174.26522 244.628778 172.612237 245.775515 173.124027 245.833934 170.730575 241.435221 168.92297 237.687769 169.541479 234.572104 168.737847 231.932444 167.638027 229.688733 164.565108 232.263483 164.301583 232.473358 163.45876 235.630132 163.807216 236.207828 162.550591 237.84788 162.21303 236.768215 159.9742 240.0613 159.076925 240.299302 156.110704 238.648432 156.550641 237.906298 155.359362 240.100245 154.627604 240.182464 153.033418 238.215701 152.913663 238.856143 149.666494 240.377193 149.855853 239.574477 143.705626 241.658078 139.049393 239.992063 134.465035 235.34453 131.736204 237.101418 129.501741 236.266247 128.979057 239.624241 126.315551 238.696033 125.727521 239.492258 121.824835 241.645096 122.604495 242.954108 121.748616 243.293802 120.230649 242.1449 119.130829 244.970635 119.021882 245.000926 117.85021 246.695069 118.32497 246.710215 117.103191 248.04519 116.815736 248.603414 115.519899 248.391375 116.567451 250.018445 116.96383 250.092009 115.406651 245.840425 114.12173 245.753879 112.690899 243.877989 113.324648 242.92598 112.194349 241.757606 113.731901 241.231838 112.525382 238.964326 111.804498 239.436003 106.579862 244.494631 103.927251 244.672051 103.114908 241.887425 102.239423 242.177355 101.342148 242.861071 100.133447 243.936408 100.551594 244.97929 97.9425405 246.065445 98.0558103 245.544004 96.2568952 246.963362 96.5117091 247.290074 93.8982889 248.207465 94.440579 248.631541 93.347309 248.304829 92.2104603 245.864225 91.4024833 243.756824 89.3226418 246.240701 87.1469748 246.113046 84.6468244 244.598486 82.3274085 246.351048 78.6294296"></polygon>
                <path d="M323.770987,496.599395 L324.803051,497.374775 L323.870515,498.711964 L324.387629,499.657162 L329.545785,504.413565 L323.154345,500.347524 L319.341983,500.016491 L318.876797,498.94501 L319.605949,498.267682 L321.743642,498.217532 L323.770987,496.599395 L323.770987,496.599395 Z M274.324956,338.551173 L274.621377,340.289087 L272.929398,341.861505 L276.306865,341.371484 L277.486058,343.179088 L281.012817,345.086885 L285.147564,344.827726 L285.058854,342.745702 L286.458739,342.697713 L286.679432,340.833495 L287.454021,340.911963 L287.700678,340.831333 L288.081481,341.939843 L289.135182,341.665445 L289.039981,338.956199 L290.688687,337.708307 L292.670596,330.813244 L293.620441,330.821891 L292.125354,328.040792 L293.821661,326.226637 L295.753805,326.856042 L296.147591,324.449533 L298.120845,324.948245 L304.010317,323.051343 L304.276447,326.141707 L306.212919,326.191857 L304.800051,325.425275 L305.747733,323.907308 L308.701123,323.500055 L312.753651,326.398769 L316.542212,326.716724 L318.182264,323.121099 L319.512912,322.223846 L319.515076,320.751619 L321.737151,320.488094 L323.574094,322.54833 L325.685823,321.021673 L325.378584,319.473227 L328.82096,318.338561 L328.723596,317.358539 L329.805424,316.975238 L329.379184,316.367623 L328.23461,317.19084 L328.877215,313.969805 L326.592395,312.959282 L329.050308,312.003211 L333.89257,312.586875 L334.478921,314.631871 L335.906934,315.644577 L339.90537,313.94367 L340.121736,316.385046 L341.151636,316.178177 L340.820597,317.410851 L342.365447,316.73789 L343.341256,317.990148 L345.176036,316.661671 L342.294046,314.392362 L343.780478,312.97022 L344.944525,313.935002 L345.872733,312.898345 L348.177027,312.939633 L351.543676,311.426032 L352.813742,309.65109 L351.85957,308.244188 L353.252964,307.612622 L353.190218,306.057648 L354.709105,305.676508 L355.185109,304.358925 L356.550376,304.51132 L356.401084,303.703343 L354.473266,303.317858 L354.652849,302.407528 L358.064935,302.035121 L361.80806,304.772662 L365.352128,304.866261 L367.420584,308.951908 L369.056308,309.87095 L369.054144,307.401279 L369.054144,307.401279 L370.540576,314.34861 L368.465629,320.57724 L366.466411,337.133203 L362.037407,351.679016 L349.706732,370.452042 L347.56904,376.210256 L347.56904,376.210256 L345.768878,375.145282 L343.005889,377.754336 L342.045226,374.966709 L343.715568,374.409179 L342.904197,373.723162 L341.597349,374.507167 L340.383538,372.566707 L338.814887,374.093386 L338.814887,374.093386 L338.814887,374.093386 L338.814887,374.093386 L341.29011,374.753269 L340.344592,376.395357 L341.606004,376.759074 L342.460648,378.479565 L342.03008,379.246169 L340.556631,377.869767 L339.476966,379.677372 L341.504312,380.944892 L343.587913,379.914763 L343.693932,381.585169 L345.035398,380.853411 L345.879224,382.329983 L345.879224,382.329983 L343.916788,393.646071 L347.590676,403.300443 L348.33281,420.79071 L348.33281,420.79071 L345.926825,420.320294 L345.111126,421.191434 L342.778705,420.281103 L343.395347,422.295599 L341.497821,421.903586 L342.549358,424.412469 L346.268682,425.79756 L346.465575,428.258542 L348.181354,428.273673 L348.181354,428.273673 L349.45142,452.103635 L347.476002,453.074945 L343.274182,453.087915 L327.094363,451.169223 L322.981253,453.752165 L319.999735,459.109655 L319.973771,461.51398 L321.734987,464.00544 L316.650395,468.859852 L315.142327,472.435871 L309.354547,479.15234 L306.662959,483.784622 L305.014253,489.638662 L306.877161,493.033925 L312.500503,497.89052 L318.249337,498.75511 L313.872261,499.750393 L307.593331,499.175441 L303.882661,499.902832 L297.290001,502.095922 L296.874579,502.949639 L294.131063,502.847393 L293.425712,503.703294 L294.1051,504.443741 L290.519922,505.654626 L282.934144,506.545372 L273.801352,513.540605 L271.975226,517.079596 L271.460276,522.147448 L272.80607,521.918768 L274.755524,523.192816 L272.00119,523.408331 L269.082418,527.646417 L268.703778,530.867452 L270.61645,530.523341 L270.239974,534.722215 L267.282256,538.259043 L266.579068,540.064465 L267.370966,540.508746 L255.457876,546.114522 L252.865816,549.357325 L245.1156,551.262938 L243.994826,553.967839 L233.351802,551.935899 L223.409803,543.832135 L223.409803,543.832135 L224.563032,542.693125 L226.27232,543.172252 L225.147219,540.147234 L228.529013,537.437988 L227.488295,534.889914 L230.253447,534.524036 L231.051836,532.871053 L226.077591,523.704519 L227.038254,523.822112 L228.764852,521.955711 L230.0479,518.127061 L228.314811,515.461372 L227.215674,515.537678 L227.204856,514.104663 L225.030381,511.131914 L227.291402,509.999432 L227.914535,507.616875 L230.446012,505.114519 L229.760133,503.455008 L231.127564,502.093868 L231.127564,498.32836 L231.910807,496.651426 L233.141928,496.629593 L234.180483,491.892774 L236.188355,490.988972 L236.988908,488.885179 L234.918289,487.519673 L234.481231,484.361801 L233.752079,485.825294 L232.82387,484.455443 L230.590977,485.74473 L227.914535,483.943653 L225.919644,483.858701 L227.641914,478.825716 L228.470594,478.542585 L228.541995,475.866023 L229.636805,475.469665 L228.503049,474.27402 L229.171619,472.688545 L228.0595,471.908886 L229.671423,468.376423 L230.772724,467.890768 L230.277247,464.815644 L227.546713,461.490072 L230.807343,460.266131 L231.744206,456.210985 L230.20801,455.596842 L230.389757,454.072346 L228.756197,451.674528 L229.102382,450.086891 L226.421612,449.81031 L221.388948,452.608831 L220.785288,454.32716 L217.717224,456.145638 L214.759506,455.403007 L212.803561,453.45602 L212.894435,452.397574 L211.728224,452.970343 L210.87358,452.160205 L211.765006,449.193962 L210.315357,446.650254 L211.330111,438.812199 L210.209338,436.908747 L213.273075,436.767159 L212.498486,434.654655 L214.400339,430.253215 L213.982754,428.911681 L211.81477,428.55233 L210.778379,426.056524 L203.151492,423.179579 L205.750043,418.233708 L209.64246,417.726264 L207.134782,417.491056 L207.208347,414.08492 L205.053345,413.013417 L206.611178,410.04283 L205.315148,409.004011 L201.967972,411.114332 L195.836171,410.323778 L194.256702,411.366963 L193.968936,409.045385 L198.216192,406.185862 L198.125319,403.448321 L196.824962,403.677 L194.057646,402.071919 L192.337539,399.661045 L188.862707,398.500267 L188.282848,399.149255 L186.342048,397.768509 L184.624105,398.45671 L183.975008,393.613192 L186.021827,392.297771 L187.242129,393.617537 L189.607005,392.766003 L190.961454,390.930081 L192.988799,390.888794 L192.928217,389.22055 L192.928217,389.22055 L194.191792,389.414449 L196.584796,387.430432 L198.224847,388.70448 L199.116273,391.496473 L207.548041,391.477019 L210.730779,392.093345 L211.671969,393.143079 L212.288611,391.879926 L211.273856,389.924228 L214.497704,383.486502 L217.210929,384.32498 L217.808098,382.663286 L219.242602,382.57401 L220.475885,383.456045 L220.053973,384.344608 L221.60315,383.769655 L222.286866,386.178347 L223.99399,386.744588 L223.699733,384.418644 L229.327402,383.464756 L229.993808,382.600144 L231.945426,382.78972 L233.814825,384.612564 L235.32722,383.695684 L238.033954,384.995866 L239.710787,380.903691 L239.552841,378.614776 L240.645487,379.196278 L240.985181,376.585041 L248.960417,376.319332 L250.273756,372.995944 L253.852443,368.566207 L251.946262,365.706706 L240.139191,364.086386 L240.344739,361.32271 L243.629168,360.310004 L246.396484,357.060673 L247.132128,354.525656 L247.363639,351.332938 L245.106945,351.744557 L246.511158,350.28757 L245.249747,349.952192 L244.86678,347.589219 L246.126027,344.66221 L245.786333,342.96567 L248.683469,342.1947 L249.773952,343.362028 L250.92718,342.216489 L252.177773,342.669482 L255.260983,336.963515 L254.598904,334.78132 L260.616032,332.710189 L261.373311,333.749029 L260.230901,335.332321 L260.936253,335.717806 L261.877443,334.06264 L263.500185,336.558445 L264.408921,336.567092 L265.016908,334.223725 L266.457903,334.387145 L269.807243,337.747541 L274.324956,338.551173 L274.324956,338.551173 Z" id="IN-TN" fill="#265182"></path>
            </g>
        </g>
    </g>
</svg>