<?xml version="1.0" encoding="UTF-8"?>
<svg width="40px" height="40px" viewBox="0 0 40 40" version="1.1" xmlns="http://www.w3.org/2000/svg" xmlns:xlink="http://www.w3.org/1999/xlink">
    <!-- Generator: Sketch 55.2 (78181) - https://sketchapp.com -->
    <title>Icon/Products/Insurance2</title>
    <desc>Created with Sketch.</desc>
    <g id="Icon/Products/Insurance2" stroke="none" stroke-width="1" fill="none" fill-rule="evenodd">
        <rect id="Rectangle" fill-opacity="0" fill="#D8D8D8" x="0" y="0" width="40" height="40"></rect>
        <path d="M28.3783098,35 L8.55076513,35 C8.24658595,35 8,34.7521576 8,34.4464286 L8,6.21428571 C8,5.90855666 8.24658595,5.66071429 8.55076513,5.66071429 C11.2279458,5.66071429 13.2358314,5.66071429 14.5744218,5.66071429 M22.871946,5.66071429 C23.9871182,5.66071429 25.8225728,5.66071429 28.3783098,5.66071429 C28.682489,5.66071429 28.9290749,5.90855666 28.9290749,6.21428571 L28.9290749,10.9491207" id="Shape" stroke="#7C96B4" stroke-width="1.5" stroke-linecap="round" stroke-linejoin="round"></path>
        <path d="M28.6496528,31.7083333 C25.3972951,29.6550304 23.6919467,27.3816645 22.7743773,25.6938966 C22.2139582,24.6630673 21.6534559,22.291266 21.0928703,18.5784926 C20.998208,17.9513849 21.3165864,17.3343016 21.8825165,17.0480358 L27.9864482,13.9604703 C28.4034293,13.7495478 28.8958763,13.7495478 29.3128573,13.9604703 L35.4167886,17.0480356 C35.9827343,17.3343005 36.3011195,17.9513971 36.2064319,18.5785146 C35.6458474,22.2912754 35.0853462,24.6630694 34.5249283,25.6938966 C33.6073589,27.3816645 31.6573552,30.0732341 28.6496528,31.7083333 Z" id="Path" stroke="#7C96B4" stroke-width="1.5" stroke-linecap="round" stroke-linejoin="round"></path>
        <path d="M15.2328815,4 L22.2469585,4 C22.5914185,4 22.8706585,4.27923999 22.8706585,4.62369997 L22.8706585,6.6977286 C22.8706585,7.04218858 22.5914185,7.32142857 22.2469585,7.32142857 L15.2328815,7.32142857 C14.8884215,7.32142857 14.6091816,7.04218858 14.6091816,6.6977286 L14.6091816,4.62369997 C14.6091816,4.27923999 14.8884215,4 15.2328815,4 Z" id="Rectangle" stroke="#7C96B4" stroke-width="1.5" stroke-linecap="round" stroke-linejoin="round"></path>
        <polyline id="Path-31" stroke="#7C96B4" stroke-width="1.5" stroke-linecap="round" stroke-linejoin="round" points="26.0812762 22.3222222 27.5481225 24.173958 32.4411034 20.1429679"></polyline>
    </g>
</svg>