<?xml version="1.0" encoding="UTF-8"?>
<svg width="40px" height="40px" viewBox="0 0 40 40" version="1.1" xmlns="http://www.w3.org/2000/svg" xmlns:xlink="http://www.w3.org/1999/xlink">
    <!-- Generator: Sketch 55.2 (78181) - https://sketchapp.com -->
    <title>Icon/Products/Investments2</title>
    <desc>Created with Sketch.</desc>
    <g id="Icon/Products/Investments2" stroke="none" stroke-width="1" fill="none" fill-rule="evenodd">
        <rect id="Rectangle" fill-opacity="0" fill="#D8D8D8" x="0" y="0" width="40" height="40"></rect>
        <path d="M27.5672781,28.4157453 L25.9581619,35.2658772 C25.857131,35.6959737 25.4734126,36 25.0316092,36 L14.9683908,36 C14.5265874,36 14.142869,35.6959737 14.0418381,35.2658772 L12.4327219,28.4157453 C12.3465953,28.049098 12.0194843,27.7899226 11.6428571,27.7899226 C11.2878169,27.7899226 11,27.5021057 11,27.1470655 L11,26.1962918 C11,25.6706422 11.4261232,25.244519 11.9517727,25.244519 L28.0482273,25.244519 C28.5738768,25.244519 29,25.6706422 29,26.1962918 L29,27.1470655 C29,27.5021057 28.7121831,27.7899226 28.3571429,27.7899226 C27.9805157,27.7899226 27.6534047,28.049098 27.5672781,28.4157453 Z" id="Path" stroke="#7C96B4" stroke-width="1.5" stroke-linecap="round" stroke-linejoin="round"></path>
        <ellipse id="Combined-Shape" stroke="#7C96B4" stroke-width="1.5" stroke-linecap="round" stroke-linejoin="round" cx="19.6835938" cy="11.7321484" rx="8.68359375" ry="8.73214836"></ellipse>
        <path d="M16.4275169,10.125 L22.8007812,10.125" id="Path-12" stroke="#7C96B4" stroke-width="1.5" stroke-linecap="round" stroke-linejoin="round"></path>
        <path d="M16.4275169,7.453125 L22.8007812,7.453125 L16.4275169,7.453125 Z M17.3181419,12.796875 L18.3476562,12.796875 L17.3181419,12.796875 Z M18.3476562,7.453125 C19.5773528,7.453125 20.5742187,8.64936418 20.5742187,10.125 C20.5742187,11.6006358 19.5773528,12.796875 18.3476562,12.796875 M17.3181419,12.796875 L21.3062968,16.8031056 L17.3181419,12.796875 Z" id="Shape" stroke="#7C96B4" stroke-width="1.5" stroke-linecap="round" stroke-linejoin="round"></path>
        <path d="M19.8908779,25.0501124 L19.8908779,20.5334312" id="Path-35" stroke="#7C96B4" stroke-width="1.5" stroke-linecap="round" stroke-linejoin="round"></path>
    </g>
</svg>