<?xml version="1.0" encoding="UTF-8"?>
<svg width="29px" height="35px" viewBox="0 0 29 35" version="1.1" xmlns="http://www.w3.org/2000/svg" xmlns:xlink="http://www.w3.org/1999/xlink">
    <!-- Generator: Sketch 55.2 (78181) - https://sketchapp.com -->
    <title>Icon/Product/Loans1</title>
    <desc>Created with Sketch.</desc>
    <g id="Page-1" stroke="none" stroke-width="1" fill="none" fill-rule="evenodd" stroke-linecap="round" stroke-linejoin="round">
        <g id="DrF_Homepage" transform="translate(-151.000000, -2555.000000)" stroke="#EBA71F">
            <g id="Icon/Product/Loans1" transform="translate(152.000000, 2556.000000)">
                <path d="M0.675520639,22.7964074 L2.50523106,22.7964074 C2.87831081,22.7964074 3.1807517,23.0988482 3.1807517,23.471928 L3.1807517,31.5916483 C3.1807517,31.9647281 2.87831081,32.267169 2.50523106,32.267169 L0.675520639,32.267169 C0.302440892,32.267169 -5.86197757e-14,31.9647281 -5.86197757e-14,31.5916483 L-5.86197757e-14,23.471928 C-5.86197757e-14,23.0988482 0.302440892,22.7964074 0.675520639,22.7964074 Z M4.87141837,23.8776789 L7.13500352,21.6892864 C7.51290214,21.3239409 8.01796754,21.1197152 8.54359542,21.1197152 L15.6258958,21.1197152 C16.2949494,21.1197152 16.8373245,21.6620903 16.8373245,22.3311439 C16.8373245,23.0001975 16.2949494,23.5425726 15.6258958,23.5425726 L12.1454745,23.5425726 L18.5773421,23.5425726 L24.7454303,20.9203066 C25.3644073,20.6571582 26.0826835,20.8893856 26.4304482,21.4650933 L26.6331807,21.8007071 C26.9797731,22.3744741 26.8532574,23.1156081 26.3359489,23.5419024 L19.9975089,28.7651698 C19.5136245,29.1639205 18.9061275,29.3819782 18.2791137,29.3819782 L8.55639277,29.3819782 C8.01413008,29.3819782 7.48441187,29.5451327 7.03611871,29.8502262 L4.87141837,31.3234498 M12.914,17.4255319 C8.05058049,17.4255319 4.108,13.5246937 4.108,8.71276596 C4.108,3.90083819 8.05058049,1.31450406e-13 12.914,1.31450406e-13 C17.7774195,1.31450406e-13 21.72,3.90083819 21.72,8.71276596 C21.72,13.5246937 17.7774195,17.4255319 12.914,17.4255319 Z" id="Shape" stroke-width="1.5"></path>
                <path d="M10.1,4.5 L16.1,4.5 L10.1,4.5 Z" id="Path" stroke-width="1.5"></path>
                <path d="M10.9384636,9.64372728 L11.9076822,9.64372728 L10.9384636,9.64372728 Z" id="Path" stroke-width="1.5"></path>
                <path d="M11.9076822,4.5 C13.0653588,4.5 14.0038411,5.65146257 14.0038411,7.07186364 C14.0038411,8.4922647 13.0653588,9.64372728 11.9076822,9.64372728" id="Path" stroke-width="1.5"></path>
                <path d="M10.6,7.5 L16.6,7.5" id="Path-12" stroke-width="1.34999996"></path>
                <path d="M10.9384636,9.64372728 L14.6930434,13.5 L10.9384636,9.64372728 Z" id="Path" stroke-width="1.5"></path>
            </g>
        </g>
    </g>
</svg>