<?xml version="1.0" encoding="UTF-8"?>
<svg width="372px" height="372px" viewBox="0 0 372 372" version="1.1" xmlns="http://www.w3.org/2000/svg" xmlns:xlink="http://www.w3.org/1999/xlink">
    <!-- Generator: Sketch 55.2 (78181) - https://sketchapp.com -->
    <title>Icon/Hero/Loans</title>
    <desc>Created with Sketch.</desc>
    <g id="Page-1" stroke="none" stroke-width="1" fill="none" fill-rule="evenodd">
        <g id="DrF_Loans" transform="translate(-966.000000, -239.000000)">
            <g id="Icon/Hero/Loans" transform="translate(928.000000, 201.000000)">
                <ellipse id="Oval" stroke="#1E9ED2" stroke-width="2" stroke-linecap="round" stroke-linejoin="round" transform="translate(224.000000, 224.000000) scale(-1, 1) rotate(45.000000) translate(-224.000000, -224.000000) " cx="224" cy="224" rx="253" ry="63"></ellipse>
                <ellipse id="Oval" stroke="#1E9ED2" stroke-width="2" stroke-linecap="round" stroke-linejoin="round" transform="translate(224.000000, 224.000000) rotate(45.000000) translate(-224.000000, -224.000000) " cx="224" cy="224" rx="253" ry="63"></ellipse>
                <path d="M224,62 C312.36556,62 384,133.63444 384,222 C384,310.36556 312.36556,382 224,382 C135.63444,382 64,310.36556 64,222 C64,133.63444 135.63444,62 224,62 Z" id="Rectangle" fill="#1E9ED2"></path>
                <path d="M161.652815,252.374081 L171.546805,252.374081 C173.564199,252.374081 175.19962,254.01089 175.19962,256.029996 L175.19962,299.973896 C175.19962,301.993002 173.564199,303.629811 171.546805,303.629811 L161.652815,303.629811 C159.635421,303.629811 158,301.993002 158,299.973896 L158,256.029996 C158,254.01089 159.635421,252.374081 161.652815,252.374081 Z M184.7073,257.872206 L196.581871,246.382346 C198.625323,244.405098 201.356417,243.299829 204.198701,243.299829 L242.495585,243.299829 C246.11343,243.299829 249.046273,246.235161 249.046273,249.856077 C249.046273,253.476992 246.11343,256.412325 242.495585,256.412325 L223.675529,256.412325 L258.455257,256.412325 L291.808623,242.22063 C295.155684,240.796472 299.039696,242.053286 300.920202,245.169014 L302.016459,246.985354 C303.890625,250.09058 303.206503,254.101594 300.409205,256.408697 L266.134678,284.677003 C263.518117,286.835041 260.233134,288.015168 256.842615,288.015168 L204.267902,288.015168 C201.335666,288.015168 198.471264,288.89816 196.04716,290.549325 L186.217292,297.244887 C185.669545,297.617982 184.923055,297.476398 184.54996,296.928651 C184.414298,296.729483 184.341744,296.494084 184.341744,296.253103 L184.341744,258.734589 C184.341744,258.409477 184.473658,258.098279 184.7073,257.872206 Z M227.831259,223.306921 C201.532769,223.306921 180.21363,202.195598 180.21363,176.15346 C180.21363,150.111323 201.532769,129 227.831259,129 C254.12975,129 275.448889,150.111323 275.448889,176.15346 C275.448889,202.195598 254.12975,223.306921 227.831259,223.306921 Z" id="Shape" fill="#FFFFFF"></path>
                <path d="M226.651834,183.731499 L230.204468,187.417837 L239.222852,196.77563 C242.561604,200.240038 237.421663,205.303383 234.082911,201.838976 L225.064527,192.481183 L230.204468,187.417837 C233.54322,190.882245 228.403279,195.94559 225.064527,192.481183 L216.046143,183.123389 C213.416594,180.394877 216.046286,176.67456 218.913189,176.909631 C219.027739,176.897314 219.144086,176.890995 219.261909,176.890995 L224.086067,176.890995 C226.161716,176.518094 228.027278,174.743325 229.014083,172.197103 L214.413798,172.197103 C212.630267,172.197103 211.18443,170.735325 211.18443,168.93213 C211.18443,167.128935 212.630267,165.667157 214.413798,165.667157 L229.501675,165.667157 C228.700033,161.890138 226.095929,159.255497 223.27218,159.255497 L214.588187,159.255497 C209.803938,159.255497 209.803938,152 214.588187,152 L243.411813,152 C248.196062,152 248.196062,159.255497 243.411813,159.255497 L234.694981,159.255497 C235.75221,161.159805 236.474364,163.338815 236.774212,165.667157 L243.237424,165.667157 C245.020955,165.667157 246.466792,167.128935 246.466792,168.93213 C246.466792,170.735325 245.020955,172.197103 243.237424,172.197103 L236.487453,172.197103 C235.249575,177.799816 231.521885,182.290148 226.651834,183.731499 Z M230.204468,187.417837 L225.064527,192.481183 L230.204468,187.417837 Z" id="Combined-Shape" fill="#1E9ED2" fill-rule="nonzero"></path>
            </g>
        </g>
    </g>
</svg>