<?xml version="1.0" encoding="UTF-8"?>
<svg width="40px" height="40px" viewBox="0 0 40 40" version="1.1" xmlns="http://www.w3.org/2000/svg" xmlns:xlink="http://www.w3.org/1999/xlink">
    <!-- Generator: Sketch 55.2 (78181) - https://sketchapp.com -->
    <title>Icon/Products/Loan2</title>
    <desc>Created with Sketch.</desc>
    <g id="Icon/Products/Loan2" stroke="none" stroke-width="1" fill="none" fill-rule="evenodd">
        <rect id="Rectangle" fill-opacity="0" fill="#D8D8D8" x="0" y="0" width="40" height="40"></rect>
        <path d="M7.67552064,26.7964074 L9.50523106,26.7964074 C9.87831081,26.7964074 10.1807517,27.0988482 10.1807517,27.471928 L10.1807517,35.5916483 C10.1807517,35.9647281 9.87831081,36.267169 9.50523106,36.267169 L7.67552064,36.267169 C7.30244089,36.267169 7,35.9647281 7,35.5916483 L7,27.471928 C7,27.0988482 7.30244089,26.7964074 7.67552064,26.7964074 Z M11.8714184,27.8776789 L14.1350035,25.6892864 C14.5129021,25.3239409 15.0179675,25.1197152 15.5435954,25.1197152 L22.6258958,25.1197152 C23.2949494,25.1197152 23.8373245,25.6620903 23.8373245,26.3311439 C23.8373245,27.0001975 23.2949494,27.5425726 22.6258958,27.5425726 L19.1454745,27.5425726 L25.5773421,27.5425726 L31.7454303,24.9203066 C32.3644073,24.6571582 33.0826835,24.8893856 33.4304482,25.4650933 L33.6331807,25.8007071 C33.9797731,26.3744741 33.8532574,27.1156081 33.3359489,27.5419024 L26.9975089,32.7651698 C26.5136245,33.1639205 25.9061275,33.3819782 25.2791137,33.3819782 L15.5563928,33.3819782 C15.0141301,33.3819782 14.4844119,33.5451327 14.0361187,33.8502262 L11.8714184,35.3234498 M19.914,21.4255319 C15.0505805,21.4255319 11.108,17.5246937 11.108,12.712766 C11.108,7.90083819 15.0505805,4 19.914,4 C24.7774195,4 28.72,7.90083819 28.72,12.712766 C28.72,17.5246937 24.7774195,21.4255319 19.914,21.4255319 Z" id="Shape" stroke="#7C96B4" stroke-width="1.5" stroke-linecap="round" stroke-linejoin="round"></path>
        <path d="M17.1,8.5 L23.1,8.5 L17.1,8.5 Z" id="Path" stroke="#7C96B4" stroke-width="1.5" stroke-linecap="round" stroke-linejoin="round"></path>
        <path d="M17.9384636,13.6437273 L18.9076822,13.6437273 L17.9384636,13.6437273 Z" id="Path" stroke="#EBA71F" stroke-width="1.5" stroke-linecap="round" stroke-linejoin="round"></path>
        <path d="M18.9076822,8.5 C20.0653588,8.5 21.0038411,9.65146257 21.0038411,11.0718636 C21.0038411,12.4922647 20.0653588,13.6437273 18.9076822,13.6437273" id="Path" stroke="#7C96B4" stroke-width="1.5" stroke-linecap="round" stroke-linejoin="round"></path>
        <path d="M17.6,11.5 L23.6,11.5" id="Path-12" stroke="#7C96B4" stroke-width="1.5" stroke-linecap="round" stroke-linejoin="round"></path>
        <path d="M17.9384636,13.6437273 L21.6930434,17.5 L17.9384636,13.6437273 Z" id="Path" stroke="#7C96B4" stroke-width="1.5" stroke-linecap="round" stroke-linejoin="round"></path>
    </g>
</svg>