<?xml version="1.0" encoding="UTF-8"?>
<svg width="246px" height="57px" viewBox="0 0 246 57" version="1.1" xmlns="http://www.w3.org/2000/svg" xmlns:xlink="http://www.w3.org/1999/xlink">
    <!-- Generator: Sketch 55.2 (78181) - https://sketchapp.com -->
    <title>Logo</title>
    <desc>Created with Sketch.</desc>
    <g id="Website" stroke="none" stroke-width="1" fill="none" fill-rule="evenodd">
        <g id="DrF_Lead-Gen-1" transform="translate(-50.000000, -37.000000)">
            <g id="Header/Lead-Gen">
                <g id="Logo" transform="translate(50.000000, 37.000000)">
                    <g id="Group" transform="translate(55.000000, 13.000000)">
                        <path d="M36.2891252,8.53216311 C36.9311138,8.53216311 37.4807359,8.76268179 37.9390844,9.22296425 C38.3841109,9.6900408 38.607034,10.2422837 38.607034,10.8801733 L38.607034,10.9198398 C38.607034,11.5643176 38.3841109,12.109835 37.9390844,12.5570783 C37.4807359,13.0242921 36.9311138,13.2542618 36.2891252,13.2542618 L35.1959615,13.2542618 C34.1484345,13.2542618 33.2581766,13.6160642 32.5311998,14.3529828 C31.8111916,15.0826956 31.4509483,15.9771822 31.4378312,17.0291682 L31.4378312,28.4006911 C31.4378312,29.0515512 31.2091009,29.5972059 30.7439205,30.037861 C30.2857086,30.4981434 29.7420986,30.7284562 29.1139103,30.7284562 L29.0550198,30.7284562 C28.4329802,30.7284562 27.8893702,30.4981434 27.4245997,30.037861 C26.9663877,29.5972059 26.737111,29.0515512 26.737111,28.4006911 L26.737111,17.0291682 C26.7634819,14.6817756 27.5884274,12.6755288 29.211879,11.0183198 C30.8618382,9.36083625 32.8585136,8.53216311 35.1959615,8.53216311 L36.2891252,8.53216311 Z" id="Path" fill="#265182"></path>
                        <path d="M73.4243774,8.53216311 C74.0725146,8.53216311 74.6161246,8.76268179 75.0543876,9.22296425 C75.5129411,9.6900408 75.7418763,10.2422837 75.7418763,10.8801733 L75.7418763,28.4006911 C75.7418763,29.0515512 75.5129411,29.5972059 75.0543876,30.037861 C74.6161246,30.4981434 74.0725146,30.7284562 73.4243774,30.7284562 L73.3850259,30.7284562 C72.7434472,30.7284562 72.1932787,30.4981434 71.7350667,30.037861 C71.2768548,29.5972059 71.0410195,29.0515512 71.0410195,28.4006911 L71.0410195,10.8801733 C71.0410195,10.2422837 71.2768548,9.6900408 71.7350667,9.22296425 C72.1932787,8.76268179 72.7434472,8.53216311 73.3850259,8.53216311 L73.4243774,8.53216311 Z M73.4526896,7.17313916 C72.6932073,7.17313916 72.0532699,6.90435604 71.5202205,6.36685992 C70.9868235,5.8293638 70.720264,5.1776366 70.720264,4.41805957 C70.720264,3.67187611 70.9868235,3.02723138 71.5202205,2.48917427 C72.0532699,1.95167815 72.6932073,1.68296515 73.4526896,1.68296515 C74.1925607,1.68296515 74.8324286,1.95167815 75.3654779,2.48917427 C75.9121578,3.01334694 76.1857411,3.65855265 76.1857411,4.41805957 C76.1857411,5.19088993 75.9121578,5.84268725 75.3654779,6.36685992 C74.8324286,6.90435604 74.1925607,7.17313916 73.4526896,7.17313916 Z" id="Combined-Shape" fill="#265182"></path>
                        <path d="M85.0064747,28.4006911 C85.0064747,29.0515512 84.7776079,29.5972059 84.3124275,30.037861 C83.8542155,30.4981434 83.3106055,30.7284562 82.6826222,30.7284562 L82.6235268,30.7284562 C82.0014871,30.7284562 81.4578771,30.4981434 80.9933116,30.037861 C80.5348947,29.5972059 80.3056179,29.0515512 80.3056179,28.4006911 L80.3056179,17.8579099 C80.3056179,15.2865869 81.2156199,13.0901056 83.0294067,11.26826 C84.843057,9.44662021 87.0296577,8.53216311 89.5894139,8.53216311 C92.1362579,8.53216311 94.3166416,9.44662021 96.1300186,11.26826 C97.9436688,13.0901056 98.8536708,15.2865869 98.8536708,17.8579099 L98.8536708,28.4006911 C98.8536708,29.0515512 98.624394,29.5972059 98.1661821,30.037861 C97.7273726,30.4981434 97.1841042,30.7284562 96.5361719,30.7284562 L96.4966155,30.7284562 C95.8550368,30.7284562 95.3050732,30.4981434 94.8468612,30.037861 C94.3820907,29.5972059 94.152814,29.0515512 94.152814,28.4006911 L94.152814,17.8579099 C94.152814,16.5889248 93.7141411,15.5038606 92.8303051,14.602374 C91.9332837,13.7015051 90.8530322,13.2542618 89.5894139,13.2542618 C88.3128151,13.2542618 87.226005,13.7015051 86.3291885,14.602374 C85.4451476,15.5038606 85.0064747,16.5889248 85.0064747,17.8579099 L85.0064747,28.4006911 Z" id="Path" fill="#265182"></path>
                        <path d="M113.735003,8.53216311 C116.779479,8.53216311 119.385145,9.61743325 121.545785,11.787699 C123.706288,13.9578962 124.786471,16.5755425 124.786471,19.6271871 L124.786471,28.4006911 C124.786471,29.0515512 124.557194,29.5972059 124.098983,30.037861 C123.634417,30.4981434 123.090807,30.7284562 122.468562,30.7284562 L122.40974,30.7284562 C121.781484,30.7284562 121.237874,30.4981434 120.77973,30.037861 C120.314755,29.5972059 120.085819,29.0515512 120.085819,28.4006911 C118.632207,29.9524201 116.511056,30.7284562 113.735003,30.7284562 C110.697086,30.7284562 108.091352,29.6433233 105.930917,27.4731262 C103.770277,25.3027231 102.690026,22.6852827 102.690026,19.6271871 C102.690026,16.5755425 103.770277,13.9578962 105.930917,11.787699 C108.091352,9.61743325 110.697086,8.53216311 113.735003,8.53216311 Z M113.735003,13.2542618 C111.973822,13.2542618 110.468151,13.8726612 109.230699,15.1223621 C107.999942,16.365063 107.390883,17.8712922 107.390883,19.6271871 C107.390883,21.4029153 107.999942,22.9091445 109.230699,24.1584336 C110.468151,25.3880953 111.973822,26.0065634 113.735003,26.0065634 C115.50288,26.0065634 117.001787,25.3880953 118.226532,24.1584336 C119.470202,22.9091445 120.085819,21.4029153 120.085819,19.6271871 C120.085819,17.8712922 119.470202,16.365063 118.226532,15.1223621 C116.988807,13.8726612 115.4899,13.2542618 113.735003,13.2542618 Z" id="Combined-Shape" fill="#265182"></path>
                        <path d="M133.323751,28.4006911 C133.323751,29.0515512 133.094816,29.5972059 132.629841,30.037861 C132.171697,30.4981434 131.628087,30.7284562 130.999831,30.7284562 L130.94094,30.7284562 C130.318764,30.7284562 129.775154,30.4981434 129.31052,30.037861 C128.852376,29.5972059 128.623099,29.0515512 128.623099,28.4006911 L128.623099,17.8579099 C128.623099,15.2865869 129.532896,13.0901056 131.346683,11.26826 C133.160265,9.44662021 135.346866,8.53216311 137.907032,8.53216311 C140.453876,8.53216311 142.63426,9.44662021 144.447705,11.26826 C146.261492,13.0901056 147.171289,15.2865869 147.171289,17.8579099 L147.171289,28.4006911 C147.171289,29.0515512 146.942012,29.5972059 146.4838,30.037861 C146.045196,30.4981434 145.501996,30.7284562 144.85379,30.7284562 L144.814507,30.7284562 C144.17286,30.7284562 143.622691,30.4981434 143.164479,30.037861 C142.699709,29.5972059 142.470432,29.0515512 142.470432,28.4006911 L142.470432,17.8579099 C142.470432,16.5889248 142.031828,15.5038606 141.147923,14.602374 C140.251107,13.7015051 139.17065,13.2542618 137.907032,13.2542618 C136.630433,13.2542618 135.543282,13.7015051 134.646397,14.602374 C133.762561,15.5038606 133.323751,16.5889248 133.323751,17.8579099 L133.323751,28.4006911 Z" id="Path" fill="#265182"></path>
                        <path d="M161.483051,8.53216311 C162.628956,8.53216311 163.742069,8.70331928 164.815352,9.05215121 C165.902572,9.40057138 166.445772,10.1438723 166.445772,11.2880932 L166.445772,11.3865732 C166.445772,12.1691289 166.138066,12.7873911 165.509399,13.2542618 C165.070795,13.5633586 164.625563,13.7148874 164.167351,13.7148874 C163.925094,13.7148874 163.676278,13.6754267 163.420835,13.6030937 C162.792784,13.3924083 162.144237,13.2939283 161.483051,13.2939283 C159.715379,13.2939283 158.216267,13.9121905 156.972187,15.1614796 C155.748057,16.4047295 155.132439,17.9170666 155.132439,19.6863438 C155.132439,21.4489641 155.748057,22.948262 156.972187,24.1979629 C158.216267,25.440801 159.715379,26.0656514 161.483051,26.0656514 C162.144237,26.0656514 162.792784,25.960446 163.420835,25.7565546 C163.663298,25.6777706 163.905555,25.6446924 164.147812,25.6446924 C164.619005,25.6446924 165.070795,25.7962212 165.509399,26.1053866 C166.138066,26.5656004 166.445772,27.1971077 166.445772,27.9924966 C166.445772,29.1239529 165.902572,29.8672538 164.815352,30.2287131 C163.742069,30.5638883 162.628956,30.7284562 161.483051,30.7284562 C158.43878,30.7284562 155.833045,29.6433233 153.672406,27.4731262 C151.511971,25.3027231 150.431514,22.6852827 150.431514,19.6271871 C150.431514,16.5755425 151.511971,13.9578962 153.672406,11.787699 C155.833045,9.61743325 158.43878,8.53216311 161.483051,8.53216311 Z" id="Path" fill="#265182"></path>
                        <path d="M190.211716,15.0039116 C190.362221,15.3260476 190.440651,15.6549776 190.440651,15.9901527 C190.440651,16.2597889 190.388524,16.5298368 190.290145,16.7992671 C190.067837,17.4040784 189.661547,17.8382826 189.059457,18.1078501 C187.272177,18.9169645 184.91478,19.9824014 182.001749,21.3040922 C178.381144,22.948262 176.259583,23.9215326 175.631189,24.2175902 C176.606845,25.4474578 178.119279,26.0656514 180.181609,26.0656514 C181.549959,26.0656514 182.787275,25.6581433 183.900046,24.8490289 C184.987198,24.0530223 185.746763,23.027046 186.185026,21.771306 C186.551759,20.7187023 187.298138,20.1862927 188.404487,20.1862927 C189.203335,20.1862927 189.832002,20.5214678 190.309753,21.192573 C190.59792,21.6001498 190.748357,22.0343539 190.748357,22.4815972 C190.748357,22.7510275 190.695889,23.027046 190.591498,23.3101331 C189.838355,25.5065458 188.515847,27.282274 186.62363,28.6305921 C184.705453,30.03141 182.55793,30.7284562 180.181609,30.7284562 C177.137065,30.7284562 174.531399,29.6433233 172.370759,27.4731262 C170.210256,25.3027231 169.130073,22.6852827 169.130073,19.6271871 C169.130073,16.5755425 170.210256,13.9578962 172.370759,11.787699 C174.531399,9.61743325 177.137065,8.53216311 180.181609,8.53216311 C182.381532,8.53216311 184.384766,9.13752342 186.204975,10.3411068 C188.005166,11.5246511 189.34086,13.0770664 190.211716,15.0039116 Z M180.181609,13.2939283 C178.413664,13.2939283 176.914757,13.9121905 175.670472,15.1614796 C174.446411,16.4047295 173.830725,17.9170666 173.830725,19.6863438 L173.830725,19.8244216 L184.554947,14.9838725 C183.605662,13.8594848 182.145696,13.2939283 180.181609,13.2939283 Z" id="Combined-Shape" fill="#265182"></path>
                        <path d="M17.0642633,2.25728155 C17.0642633,-0.752427184 21.5548589,-0.752427184 21.5548589,2.25728155 C21.5548589,13.9794384 21.5548589,19.8483704 21.5548589,19.8640777 C21.5548589,25.8480561 16.7296394,30.6990291 10.7774295,30.6990291 C4.82521953,30.6990291 0,25.8480561 0,19.8640777 C0,13.8800992 4.82521953,9.02912621 10.7774295,9.02912621 C10.9892977,9.02912621 11.9844309,9.09266763 12.2681752,9.13221441 C13.4964714,9.30340785 14.3541593,10.4432329 14.1838747,11.6780848 C14.0135902,12.9129368 12.8798164,13.7752024 11.6515202,13.604009 C11.4858331,13.5809164 10.9023115,13.5436893 10.7774295,13.5436893 C7.305307,13.5436893 4.49059561,16.3734236 4.49059561,19.8640777 C4.49059561,23.3547318 7.305307,26.184466 10.7774295,26.184466 C14.2495519,26.184466 17.0642633,23.3547318 17.0642633,19.8640777 C17.0642633,19.8483704 17.0642633,13.9794384 17.0642633,2.25728155 Z" id="Path" fill="#265182" fill-rule="nonzero"></path>
                        <path d="M40.1594317,25.2399979 C41.6686278,25.2399979 42.8914212,26.4679151 42.8914212,27.9845334 C42.8914212,29.5005491 41.6686278,30.728868 40.1594317,30.728868 C38.6496358,30.728868 37.4272422,29.5005491 37.4272422,27.9845334 C37.4272422,26.4679151 38.6496358,25.2399979 40.1594317,25.2399979" id="Fill-22" fill="#F9B42A"></path>
                        <path d="M57.3225365,14.3314777 L63.4363414,14.3314777 C64.5871444,14.3314777 65.5200546,15.2686034 65.5200546,16.4246066 C65.5200546,17.5806097 64.5871444,18.5177354 63.4363414,18.5177354 L57.3225365,18.5177354 L57.3225365,28.6120611 C57.3225365,29.7680642 56.3896263,30.70519 55.2388234,30.70519 C54.0880204,30.70519 53.1551102,29.7680642 53.1551102,28.6120611 L53.1551102,10.7762564 C53.1551102,6.06700954 55.5742835,2.70565787 59.2410336,1.66085598 C62.6269009,0.696088702 66.3061847,2.01237284 67.7761582,5.01232856 C68.2843704,6.04949977 67.8593467,7.30414223 66.826841,7.81465092 C65.7943354,8.32515962 64.5453368,7.89821529 64.0371246,6.86104407 C63.5203192,5.80633557 61.9435206,5.24222716 60.3782886,5.68822355 C58.540178,6.21197383 57.3225365,7.90384165 57.3225365,10.7762564 L57.3225365,14.3314777 Z" id="Combined-Shape" fill="#265182" fill-rule="nonzero"></path>
                    </g>
                    <g id="DF">
                        <path d="M16.8992895,27.7257576 L16.8999244,45.1680768 L16.9020105,45.321612 C16.9020105,48.4503648 14.3796174,50.9868192 11.268007,50.9868192 C8.15648721,50.9868192 5.63400349,48.4503648 5.63400349,45.321612 C5.63400349,43.2542448 6.73525465,41.4455208 8.38014767,40.4561376 C8.92043372,40.131192 9.51962791,39.8946648 10.1575953,39.7664376 L10.1817663,39.7462368 L10.2085221,39.75636 C10.551586,39.690696 10.9057605,39.6564048 11.268007,39.6564048 C11.6301174,39.6564048 11.9842465,39.690696 12.3274919,39.75636 C13.4915965,39.3232968 14.3213895,38.197068 14.3213895,36.8758992 C14.3213895,35.612004 13.5622047,34.5266328 12.4772337,34.0555848 C12.0798872,34.0130856 11.6765093,33.9912432 11.268007,33.9912432 C10.8594593,33.9912432 10.4559453,34.0130856 10.0587349,34.0555848 C9.53105581,34.11222 9.01430581,34.2055176 8.51102442,34.3327416 C7.61633721,34.5590544 6.76418721,34.8928008 5.96899535,35.3197536 C2.41709302,37.2263352 -1.98951966e-13,40.9901136 -1.98951966e-13,45.321612 C-1.98951966e-13,51.5792088 5.04487674,56.6520264 11.268007,56.6520264 C17.4911372,56.6520264 22.5359686,51.5792088 22.5359686,45.321612 L22.5327488,45.321612 L22.5330209,11.3304144 C22.5330209,8.2017072 25.055414,5.6652072 28.1670244,5.6652072 C28.5688605,5.6652072 28.9609465,5.7074784 29.3389744,5.788008 C29.9139977,5.9103072 30.4567326,6.1208424 30.9523953,6.4048392 C31.5860093,6.767952 32.142757,7.2511296 32.5920279,7.8234552 C33.0871919,8.45424 33.4517512,9.193644 33.6448465,10.00008 C34.1802349,10.4660664 34.8783802,10.7479656 35.6421,10.7479656 C37.3284872,10.7479656 38.6954826,9.373308 38.6954826,7.6775352 C38.6954826,7.5090888 38.6821047,7.3437888 38.6560291,7.1825928 C38.4405767,6.632064 38.1834942,6.1025112 37.8885907,5.5979928 C36.8448872,3.8122968 35.3285581,2.339508 33.5122919,1.3534992 C32.6565593,0.8889264 31.7342093,0.5325624 30.7634267,0.3022368 C29.9299151,0.1046064 29.0605779,-6.39488462e-14 28.1670244,-6.39488462e-14 C21.9438942,-6.39488462e-14 16.8990174,5.0728176 16.8990174,11.3304144 L16.8999244,11.4803472 L16.8992895,23.1491592 L16.8992895,27.7257576 Z" id="Fill-18" fill="#265182"></path>
                        <path d="M24.8954686,26.761728 C25.9595791,25.9533312 29.5816814,23.8299672 28.8173267,21.846504 C27.456907,18.3165168 22.6561884,24.4053024 20.4564523,26.0885352 C17.7383337,28.1684424 14.4242407,28.5060648 10.461886,28.9483848 C10.4591651,28.9486584 10.4574872,28.9495704 10.4569884,28.9506192 C10.3997581,29.056092 17.2652547,32.5575792 24.8954686,26.761728" id="Fill-19" fill="#F9B42A"></path>
                    </g>
                </g>
            </g>
        </g>
    </g>
</svg>