<?xml version="1.0" encoding="UTF-8"?>
<svg width="28px" height="28px" viewBox="0 0 28 28" version="1.1" xmlns="http://www.w3.org/2000/svg" xmlns:xlink="http://www.w3.org/1999/xlink">
    <!-- Generator: Sketch 55.2 (78181) - https://sketchapp.com -->
    <title>Icon/Contact/Phone_Big</title>
    <desc>Created with Sketch.</desc>
    <g id="Mobile" stroke="none" stroke-width="1" fill="none" fill-rule="evenodd">
        <g id="Drf_Contact-Mobile" transform="translate(-36.000000, -253.000000)">
            <g id="Icon/Contact/Phone_Big" transform="translate(32.000000, 249.000000)">
                <rect id="Rectangle-Copy-4" fill-opacity="0" fill="#D8D8D8" x="0" y="0" width="36" height="36"></rect>
                <path d="M29.6167246,24.1270388 L26.4829019,21.5995212 C25.7636639,21.0321193 24.7361811,20.9805373 24.0169431,21.5479392 L21.3454877,23.5080549 C21.0372428,23.7659649 20.5748755,23.7143829 20.2666307,23.4048909 L16.2594475,19.7941515 L12.6632576,15.7707562 C12.3550127,15.4612643 12.3550127,15.0486083 12.5605093,14.6875344 L14.5127267,12.0052708 C15.0778423,11.2831229 15.0264681,10.2514831 14.4613525,9.52933524 L11.9440196,6.38283376 C11.1734074,5.45435791 9.78630556,5.35119393 8.91294513,6.22808778 L6.24148971,8.91035134 C5.83049657,9.32300727 5.625,9.89040918 5.625,10.4578111 C5.88187071,15.7191742 8.24508128,20.7226274 11.738523,24.2302028 C15.2319647,27.7377782 20.2152565,30.1105498 25.4554191,30.3684598 C26.0205347,30.4200418 26.5856502,30.1621318 26.9966434,29.7494759 L29.6680988,27.0672123 C30.6442075,26.2934825 30.5928334,24.8491867 29.6167246,24.1270388 L29.6167246,24.1270388 Z" id="🎨-Color" stroke="#343434" stroke-width="1.5" stroke-linecap="round" stroke-linejoin="round"></path>
            </g>
        </g>
    </g>
</svg>