<?xml version="1.0" encoding="UTF-8"?>
<svg width="43px" height="57px" viewBox="0 0 43 57" version="1.1" xmlns="http://www.w3.org/2000/svg" xmlns:xlink="http://www.w3.org/1999/xlink">
    <!-- Generator: Sketch 55.2 (78181) - https://sketchapp.com -->
    <title>Icon/Pin</title>
    <desc>Created with Sketch.</desc>
    <g id="Mobile" stroke="none" stroke-width="1" fill="none" fill-rule="evenodd">
        <g id="Drf_Contact-Mobile" transform="translate(-160.000000, -635.000000)">
            <g id="Map" transform="translate(24.000000, 512.000000)">
                <g id="Icon/Pin" transform="translate(120.000000, 116.000000)">
                    <rect id="Rectangle-Copy-4" fill-opacity="0" fill="#D8D8D8" x="0" y="0" width="73" height="73"></rect>
                    <path d="M37.2019231,63.875 C40.2056625,63.875 58.2596154,37.6003329 58.2596154,26.9696707 C58.2596154,16.3390084 48.8317654,7.72115385 37.2019231,7.72115385 C25.5720807,7.72115385 16.1442308,16.3390084 16.1442308,26.9696707 C16.1442308,37.6003329 34.1981837,63.875 37.2019231,63.875 Z" id="Oval" fill="#265182"></path>
                    <circle id="Oval" fill="#FFFFFF" cx="37.2019231" cy="28.0769231" r="13.3365385"></circle>
                    <g id="Logo-Symbol" transform="translate(30.884615, 18.951923)">
                        <path d="M5.4462719,8.52818212 L5.44647651,13.8932754 L5.4471488,13.9405013 C5.4471488,14.9028763 4.63423662,15.6830658 3.63143253,15.6830658 C2.62865767,15.6830658 1.81571627,14.9028763 1.81571627,13.9405013 C1.81571627,13.3045986 2.17062546,12.7482522 2.70073855,12.4439272 C2.87486095,12.343977 3.06796815,12.2712235 3.27357112,12.231782 L3.28136088,12.2255684 L3.28998369,12.2286822 C3.40054571,12.2084846 3.51468839,12.1979369 3.63143253,12.1979369 C3.74813282,12.1979369 3.86226089,12.2084846 3.97288137,12.2286822 C4.34804687,12.095476 4.61547104,11.7490587 4.61547104,11.3426796 C4.61547104,10.9539173 4.37080233,10.6200673 4.0211399,10.4751774 C3.8930838,10.462105 3.76308391,10.4553865 3.63143253,10.4553865 C3.49976654,10.4553865 3.36972281,10.462105 3.24171055,10.4751774 C3.07165111,10.4925979 2.90511387,10.5212953 2.74291727,10.5604282 C2.45457913,10.6300399 2.17994979,10.7326972 1.92367683,10.8640238 C0.778976287,11.4504704 -7.10542736e-15,12.6081732 -7.10542736e-15,13.9405013 C-7.10542736e-15,15.8652792 1.62585358,17.4256302 3.63143253,17.4256302 C5.63701148,17.4256302 7.26285045,15.8652792 7.26285045,13.9405013 L7.26181279,13.9405013 L7.26190048,3.48512884 C7.26190048,2.52276795 8.07481265,1.74256442 9.07761674,1.74256442 C9.20711972,1.74256442 9.33348049,1.75556664 9.45531063,1.78033679 C9.64062806,1.81795487 9.81553966,1.88271352 9.97528095,1.97006826 C10.1794809,2.08175834 10.3589085,2.23037923 10.5036987,2.4064212 C10.6632792,2.60044466 10.7807687,2.82787838 10.8429992,3.0759305 C11.0155431,3.21926353 11.2405401,3.30597307 11.4866703,3.30597307 C12.0301561,3.30597307 12.4707088,2.88314133 12.4707088,2.36153758 C12.4707088,2.30972505 12.4663974,2.25888032 12.4579938,2.20929795 C12.3885583,2.03996047 12.3057062,1.87707502 12.2106652,1.7218899 C11.8743024,1.17262662 11.3856226,0.719610644 10.8002797,0.416323617 C10.5244958,0.273425395 10.2272425,0.163811182 9.9143805,0.0929651954 C9.64575791,0.0321759442 9.36558951,-7.10542736e-15 9.07761674,-7.10542736e-15 C7.07203779,-7.10542736e-15 5.44618421,1.56035096 5.44618421,3.48512884 L5.44647651,3.53124676 L5.4462719,7.12046352 L5.4462719,8.52818212 Z" id="Fill-18" fill="#265182"></path>
                        <path d="M8.02326576,8.23165569 C8.36620532,7.98300044 9.53352979,7.32987366 9.28719498,6.71977904 C8.8487614,5.6339882 7.30159465,7.50684135 6.59266777,8.02458792 C5.71667751,8.6643478 4.64861772,8.76819727 3.37163736,8.90425074 C3.37076047,8.9043349 3.37021971,8.90461542 3.37005895,8.90493802 C3.3516149,8.93738046 5.56421446,10.014405 8.02326576,8.23165569" id="Fill-19" fill="#F9B42A"></path>
                    </g>
                </g>
            </g>
        </g>
    </g>
</svg>