<?xml version="1.0" encoding="UTF-8"?>
<svg width="27px" height="31px" viewBox="0 0 27 31" version="1.1" xmlns="http://www.w3.org/2000/svg" xmlns:xlink="http://www.w3.org/1999/xlink">
    <!-- Generator: Sketch 55.2 (78181) - https://sketchapp.com -->
    <title>Icon/Referral Partner_Selected</title>
    <desc>Created with Sketch.</desc>
    <g id="Desktop" stroke="none" stroke-width="1" fill="none" fill-rule="evenodd" stroke-linecap="round" stroke-linejoin="round">
        <g id="DrF_Lead-Gen-1" transform="translate(-1237.000000, -49.000000)" stroke="#EBA71F" stroke-width="2">
            <g id="Header/Lead-Gen">
                <path d="M1250.5,62.8021866 C1247.04822,62.8021866 1244.25,59.9363189 1244.25,56.4010929 C1244.25,52.8658669 1247.04822,50 1250.5,50 C1253.95178,50 1256.75,52.8658669 1256.75,56.4010929 C1256.75,59.9363189 1253.95178,62.8021866 1250.5,62.8021866 Z M1250.5,66.8892224 C1252.40612,66.7821368 1255.14888,65.3715621 1256.66161,65.6748226 C1260.18089,66.1035297 1263,71.6854824 1263,76.3929003 C1262.30662,78.870659 1254.56744,79 1250.5,79 M1250.5,79 C1246.43256,79 1238.44368,78.8067764 1238,76.3929003 C1238,71.6854824 1240.81911,66.1035297 1244.33839,65.6748226 C1245.85112,65.3715621 1248.59388,66.7821368 1250.5,66.8892224" id="Icon/Referral-Partner_Selected"></path>
            </g>
        </g>
    </g>
</svg>