<?xml version="1.0" encoding="UTF-8"?>
<svg width="188px" height="189px" viewBox="0 0 188 189" version="1.1" xmlns="http://www.w3.org/2000/svg" xmlns:xlink="http://www.w3.org/1999/xlink">
    <!-- Generator: Sketch 55.2 (78181) - https://sketchapp.com -->
    <title>Icon/Referrals_Big</title>
    <desc>Created with Sketch.</desc>
    <g id="Desktop" stroke="none" stroke-width="1" fill="none" fill-rule="evenodd" stroke-linecap="round" stroke-linejoin="round">
        <g id="DrF_Lead-Gen-3" transform="translate(-186.000000, -1108.000000)">
            <g id="Icon/Referrals_Big" transform="translate(167.000000, 1089.000000)">
                <ellipse id="Oval" stroke-opacity="0.6" stroke="#FFFFFF" transform="translate(112.500000, 112.500000) rotate(45.000000) translate(-112.500000, -112.500000) " cx="112.5" cy="112.5" rx="126.5" ry="31.5"></ellipse>
                <ellipse id="Oval" stroke-opacity="0.6" stroke="#FFFFFF" transform="translate(112.500000, 112.500000) scale(-1, 1) rotate(45.000000) translate(-112.500000, -112.500000) " cx="112.5" cy="112.5" rx="126.5" ry="31.5"></ellipse>
                <circle id="Oval" stroke="#FFFFFF" stroke-width="2" fill="#FFFFFF" cx="115.5" cy="116.5" r="90.5"></circle>
                <path d="M106.600001,112.351855 C97.3216161,112.351855 89.8,104.661929 89.8,95.1759265 C89.8,85.6899242 97.3216161,78 106.600001,78 C115.878384,78 123.400002,85.6899242 123.400002,95.1759265 C123.400002,104.661929 115.878384,112.351855 106.600001,112.351855 Z M106.6,120.099563 C111.723657,119.808652 119.096194,115.97665 123.1624,116.800494 C132.62222,117.965131 140.200002,133.129201 140.200002,145.917489 C138.336195,152.648629 117.533274,153 106.6,153 M106.600002,153 C95.6667256,153 74.1926084,152.475084 73,145.917489 C73,133.129201 80.5777801,117.965131 90.0375998,116.800494 C94.1038063,115.97665 101.476343,119.808652 106.600002,120.099563 M142.2,114.317062 C136.014411,114.317062 131,109.14352 131,102.761633 C131,96.3797461 136.014411,91.2062044 142.2,91.2062044 C148.385589,91.2062044 153.4,96.3797461 153.4,102.761633 C153.4,109.14352 148.385589,114.317062 142.2,114.317062 Z M136.363319,119.558281 C138.021497,120.068793 140.789953,120.137691 142.2,120.216412 C145.371788,120.039336 149.935739,117.623977 152.452914,118.125448 C158.308993,118.834357 163,128.064661 163,135.848835 C162.115118,138.991152 152.062894,140.029006 145.430845,140.258327" id="Shape" stroke="#265182" stroke-width="3"></path>
            </g>
        </g>
    </g>
</svg>