<?xml version="1.0" encoding="UTF-8"?>
<svg width="188px" height="189px" viewBox="0 0 188 189" version="1.1" xmlns="http://www.w3.org/2000/svg" xmlns:xlink="http://www.w3.org/1999/xlink">
    <!-- Generator: Sketch 55.2 (78181) - https://sketchapp.com -->
    <title>Icon/Set Back</title>
    <desc>Created with Sketch.</desc>
    <g id="Website" stroke="none" stroke-width="1" fill="none" fill-rule="evenodd" stroke-linecap="round" stroke-linejoin="round">
        <g id="DrF_Homepage" transform="translate(-186.000000, -1108.000000)">
            <g id="Icon/Set-Back" transform="translate(167.000000, 1089.000000)">
                <ellipse id="Oval" stroke-opacity="0.6" stroke="#FFFFFF" transform="translate(112.500000, 112.500000) rotate(45.000000) translate(-112.500000, -112.500000) " cx="112.5" cy="112.5" rx="126.5" ry="31.5"></ellipse>
                <ellipse id="Oval" stroke-opacity="0.6" stroke="#FFFFFF" transform="translate(112.500000, 112.500000) scale(-1, 1) rotate(45.000000) translate(-112.500000, -112.500000) " cx="112.5" cy="112.5" rx="126.5" ry="31.5"></ellipse>
                <circle id="Oval" stroke="#FFFFFF" stroke-width="2" fill="#FFFFFF" cx="115.5" cy="116.5" r="90.5"></circle>
                <path d="M115.717396,96.4955733 C108.848651,96.4955733 103.280432,91.0120525 103.280432,84.2477867 C103.280432,77.4835209 108.848651,72 115.717396,72 C122.586142,72 128.154361,77.4835209 128.154361,84.2477867 C128.154361,91.0120525 122.586142,96.4955733 115.717396,96.4955733 Z M104.848153,100.529525 L124.64563,100.529525 C128.523272,100.529525 131.961294,102.995345 133.166018,106.640522 L138.021678,121.332474 L154.540244,129.491421 C156.889869,130.964542 157.685423,133.985135 156.361045,136.404717 C155.170388,138.579997 152.422129,139.388816 150.222637,138.211265 C150.107153,138.149439 149.994444,138.082673 149.884827,138.011158 L132.690792,128.991147 C132.231625,128.691582 131.613848,128.816868 131.310949,129.27098 C131.203579,129.431951 131.146346,129.62055 131.146346,129.813391 L131.146346,139.273314 C131.146346,140.235249 131.84876,141.056536 132.807929,141.216093 L147.298725,143.62663 C149.901599,144.059617 151.807724,146.288323 151.807724,148.898705 C151.807724,151.54534 149.959798,153.841367 147.351895,154.435022 C137.812051,156.606642 130.657168,158.235357 125.887246,159.321167 M101.993357,148.93252 L118.009888,152.216547 C120.212745,152.668221 121.628284,154.800486 121.171583,156.979094 C121.137158,157.143315 121.092397,157.30525 121.037561,157.463953 C120.182564,159.938467 117.609524,161.406783 115.015445,160.900499 L81.176596,154.296205 C78.569824,153.787443 76.6907711,151.526502 76.6907711,148.898705 C76.6907711,146.299043 78.6127846,144.090082 81.2120011,143.702477 L98.0438233,141.192453 C99.0182611,141.047142 99.7388176,140.219009 99.7388176,139.244405 L99.7388176,129.805294 C99.7388176,129.261274 99.2928938,128.820259 98.7428189,128.820259 C98.549089,128.820259 98.3595643,128.876135 98.1974568,128.981045 L80.7387408,138.082116 C78.7648435,139.359546 76.117596,138.812562 74.8259479,136.860393 C74.7290982,136.714016 74.6415357,136.561831 74.563766,136.404717 C73.3459125,133.944345 74.1566525,130.97241 76.4605324,129.451728 L92.0907756,121.332474 L96.2268683,106.966961 C97.3237457,103.157277 100.842941,100.529525 104.848153,100.529525" id="Shape" stroke="#1E9ED2" stroke-width="3"></path>
            </g>
        </g>
    </g>
</svg>