<?xml version="1.0" encoding="UTF-8"?>
<svg width="841px" height="378px" viewBox="0 0 841 378" version="1.1" xmlns="http://www.w3.org/2000/svg" xmlns:xlink="http://www.w3.org/1999/xlink">
    <!-- Generator: Sketch 55.2 (78181) - https://sketchapp.com -->
    <title>Solar System</title>
    <desc>Created with Sketch.</desc>
    <g id="Website" stroke="none" stroke-width="1" fill="none" fill-rule="evenodd">
        <g id="DrF_Homepage" transform="translate(-599.000000, -250.000000)">
            <g id="Solar-System" transform="translate(600.000000, 251.000000)">
                <ellipse id="Oval" stroke-opacity="0.14" stroke="#000000" stroke-linecap="round" stroke-linejoin="round" cx="444.5" cy="173" rx="306.5" ry="91"></ellipse>
                <ellipse id="Oval" stroke-opacity="0.14" stroke="#000000" stroke-linecap="round" stroke-linejoin="round" cx="444.5" cy="171" rx="444.5" ry="142"></ellipse>
                <path d="" id="Path-8" stroke="#A1A1A1" stroke-width="1.97999999" stroke-linecap="round" stroke-linejoin="round"></path>
                <g id="Group-3-Copy" transform="translate(504.000000, 276.000000)" stroke="#F3726A" stroke-linecap="round" stroke-linejoin="round">
                    <path d="M50,0 C77.6142375,-5.07265313e-15 100,22.3857625 100,50 C100,77.6142375 77.6142375,100 50,100 C22.3857625,100 3.38176876e-15,77.6142375 0,50 C-3.38176876e-15,22.3857625 22.3857625,5.07265313e-15 50,0 Z" id="Rectangle" fill="#FFFFFF"></path>
                    <path d="M30.0661639,56.1724666 C23.4895318,49.5688982 23.4895318,38.828972 30.0661639,32.2254036 C35.9341493,26.3333843 45.0551798,25.6985062 51.6242108,30.3207691 C58.1657929,25.722155 67.24511,26.3439448 73.1021782,32.1989682 C73.1109833,32.2077702 73.1197786,32.216582 73.1285642,32.2254036 C79.710582,38.8343797 79.7255132,49.5450144 73.1619476,56.1724666 L52.2824634,77.2551814 C51.9077094,77.6335831 51.2984073,77.6352958 50.9215492,77.2590069 C50.9197688,77.2572293 50.9179954,77.2554447 50.916229,77.2536531 L30.0661639,56.1724666 Z" id="Path"></path>
                    <polyline id="Path-17" points="37.2637921 49.5 43.326758 49.5 45.6279696 46.9044615 48.2663056 54.4177542 51.6042781 41.7951983 54.6357482 52.9466661 57.4533566 45.5134527 60.5273508 49 67.2998268 49"></polyline>
                </g>
                <g id="Group-3" transform="translate(133.000000, 30.000000)" stroke="#F4DB17" stroke-linecap="round" stroke-linejoin="round">
                    <path d="M32,0 C49.673112,-3.24649801e-15 64,14.326888 64,32 C64,49.673112 49.673112,64 32,64 C14.326888,64 2.164332e-15,49.673112 0,32 C-2.164332e-15,14.326888 14.326888,3.24649801e-15 32,0 Z" id="Rectangle" fill="#FFFFFF"></path>
                    <g id="Group-4" transform="translate(16.088889, 18.322509)">
                        <path d="M15.2298966,28.8428203 C15.1426531,28.8428203 15.0556071,28.834529 14.9699325,28.8180583 L1.11703585,26.1548761 C0.468651984,26.0302261 0,25.4628951 0,24.8026381 L0,1.66693993 C0,0.90644385 0.616503884,0.289939966 1.37699997,0.289939966 C1.46424344,0.289939966 1.55128947,0.298231235 1.63696409,0.314701949 L1.63696409,0.314701949 L15.4898607,2.97788412" id="Path"></path>
                        <path d="M19.4300675,0.314701949 L33.2829642,2.97788412 C33.931348,3.10253417 34.4,3.66986513 34.4,4.3301221 L34.4,27.4658203 C34.4,28.2263164 33.7834961,28.8428203 33.023,28.8428203 C32.9357566,28.8428203 32.8487105,28.834529 32.7630359,28.8180583 L18.9101393,26.1548761 C18.2617554,26.0302261 17.7931034,25.4628951 17.7931034,24.8026381 L17.7931034,1.66693993 C17.7931034,0.90644385 18.4096073,0.289939966 19.1701034,0.289939966 C19.2573469,0.289939966 19.3443929,0.298231235 19.4300675,0.314701949 Z" id="Rectangle" transform="translate(26.096552, 14.566380) scale(-1, 1) translate(-26.096552, -14.566380) "></path>
                        <path d="M21.4111111,21.8759322 L31.0870003,20.0223762" id="Path-2"></path>
                        <path d="M21.4111111,18.8759322 L31.0870003,17.0223762" id="Path-2"></path>
                        <polyline id="Path-29" points="22.8334655 12.5703 24.7601503 14.0971213 29.8699256 8.33955256"></polyline>
                    </g>
                </g>
                <g id="Group-3-Copy-3" transform="translate(304.000000, 58.000000)" stroke="#EB62F0" stroke-linecap="round" stroke-linejoin="round">
                    <path d="M28,0 C43.463973,-2.84068575e-15 56,12.536027 56,28 C56,43.463973 43.463973,56 28,56 C12.536027,56 1.8937905e-15,43.463973 0,28 C-1.8937905e-15,12.536027 12.536027,2.84068575e-15 28,0 Z" id="Rectangle" fill="#FFFFFF"></path>
                    <g id="Group-Copy-9" transform="translate(15.500000, 10.500000)">
                        <path d="M0.675520639,22.7964074 L2.50523106,22.7964074 C2.87831081,22.7964074 3.1807517,23.0988482 3.1807517,23.471928 L3.1807517,31.5916483 C3.1807517,31.9647281 2.87831081,32.267169 2.50523106,32.267169 L0.675520639,32.267169 C0.302440892,32.267169 0,31.9647281 0,31.5916483 L0,23.471928 C0,23.0988482 0.302440892,22.7964074 0.675520639,22.7964074 Z M4.87141837,23.8776789 L7.13500352,21.6892864 C7.51290214,21.3239409 8.01796754,21.1197152 8.54359542,21.1197152 L15.6258958,21.1197152 C16.2949494,21.1197152 16.8373245,21.6620903 16.8373245,22.3311439 C16.8373245,23.0001975 16.2949494,23.5425726 15.6258958,23.5425726 L12.1454745,23.5425726 L18.5773421,23.5425726 L24.7454303,20.9203066 C25.3644073,20.6571582 26.0826835,20.8893856 26.4304482,21.4650933 L26.6331807,21.8007071 C26.9797731,22.3744741 26.8532574,23.1156081 26.3359489,23.5419024 L19.9975089,28.7651698 C19.5136245,29.1639205 18.9061275,29.3819782 18.2791137,29.3819782 L8.55639277,29.3819782 C8.01413008,29.3819782 7.48441187,29.5451327 7.03611871,29.8502262 L4.87141837,31.3234498 M12.914,17.4255319 C8.05058049,17.4255319 4.108,13.5246937 4.108,8.71276596 C4.108,3.90083819 8.05058049,0 12.914,0 C17.7774195,0 21.72,3.90083819 21.72,8.71276596 C21.72,13.5246937 17.7774195,17.4255319 12.914,17.4255319 Z" id="Shape"></path>
                    </g>
                    <path d="M25.6,17.5 L31.6,17.5" id="Path-12"></path>
                    <path d="M25.6,15 L31.6,15 L25.6,15 Z M26.4384636,20.1437273 L27.4076822,20.1437273 L26.4384636,20.1437273 Z M27.4076822,15 C28.5653588,15 29.5038411,16.1514626 29.5038411,17.5718636 C29.5038411,18.9922647 28.5653588,20.1437273 27.4076822,20.1437273 M26.4384636,20.1437273 L30.1930434,24 L26.4384636,20.1437273 Z" id="Shape"></path>
                </g>
                <g id="Group-12" transform="translate(185.000000, 256.000000)" stroke="#4ED489" stroke-linecap="round" stroke-linejoin="round">
                    <path d="M45,0 C69.8528137,-4.56538782e-15 90,20.1471863 90,45 C90,69.8528137 69.8528137,90 45,90 C20.1471863,90 3.04359188e-15,69.8528137 0,45 C-3.04359188e-15,20.1471863 20.1471863,4.56538782e-15 45,0 Z" id="Rectangle" fill="#FFFFFF"></path>
                    <path d="M60.5134142,65 L31.7976598,65 C31.3571245,65 31,64.6402288 31,64.1964286 L31,23.2142857 C31,22.7704855 31.3571245,22.4107143 31.7976598,22.4107143 C35.6749561,22.4107143 38.5829282,22.4107143 40.5215763,22.4107143 M52.5386804,22.4107143 C54.1537574,22.4107143 56.812002,22.4107143 60.5134142,22.4107143 C60.9539495,22.4107143 61.311074,22.7704855 61.311074,23.2142857 L61.311074,35.0568324" id="Shape"></path>
                    <path d="M60.9063937,63.125 C56.1960825,60.1443989 53.7262676,56.8443517 52.397374,54.394366 C51.5851757,52.8969741 50.7728566,49.4503375 49.9604167,44.0544561 C49.8242986,43.1505041 50.2828927,42.2610914 51.098232,41.8477161 L59.9476339,37.3610891 C60.5502918,37.0555429 61.2624956,37.0555429 61.8651534,37.3610891 L70.7145707,41.8477239 C71.529888,42.2611108 71.9884748,43.1505094 71.8523717,44.0544491 C71.0399315,49.4503345 70.227612,52.8969735 69.4154133,54.394366 C68.0865198,56.8443517 65.2623765,60.7514688 60.9063937,63.125 Z" id="Path"></path>
                    <path d="M41.4719181,20 L51.6368158,20 C52.133872,20 52.5368157,20.4029437 52.5368157,20.9 L52.5368157,23.9214286 C52.5368157,24.4184849 52.133872,24.8214286 51.6368158,24.8214286 L41.4719181,24.8214286 C40.9748618,24.8214286 40.5719181,24.4184849 40.5719181,23.9214286 L40.5719181,20.9 C40.5719181,20.4029437 40.9748618,20 41.4719181,20 Z" id="Rectangle"></path>
                    <polyline id="Path-31" points="57.1866758 49.5 59.311074 52.1880036 66.3974601 46.3365662"></polyline>
                </g>
                <g id="Group-3-Copy-2" transform="translate(479.000000, 0.000000)" stroke="#EBA71F" stroke-linecap="round" stroke-linejoin="round">
                    <path d="M30,0 C46.5685425,-3.04359188e-15 60,13.4314575 60,30 C60,46.5685425 46.5685425,60 30,60 C13.4314575,60 2.02906125e-15,46.5685425 0,30 C-2.02906125e-15,13.4314575 13.4314575,3.04359188e-15 30,0 Z" id="Rectangle" fill="#FFFFFF"></path>
                    <path d="M21.944,13 L38.056,13 C39.1296416,13 40,13.8703584 40,14.944 L40,45.056 C40,46.1296416 39.1296416,47 38.056,47 L21.944,47 C20.8703584,47 20,46.1296416 20,45.056 L20,14.944 C20,13.8703584 20.8703584,13 21.944,13 Z M27.7,16 C27.5895431,16 27.5,16.0895431 27.5,16.2 L27.5,16.8 C27.5,16.9104569 27.5895431,17 27.7,17 L32.3,17 C32.4104569,17 32.5,16.9104569 32.5,16.8 L32.5,16.2 C32.5,16.0895431 32.4104569,16 32.3,16 L27.7,16 Z M30,42 C31.1045695,42 32,41.1045695 32,40 C32,38.8954305 31.1045695,38 30,38 C28.8954305,38 28,38.8954305 28,40 C28,41.1045695 28.8954305,42 30,42 Z" id="Combined-Shape"></path>
                </g>
                <path d="M645,70 C662.673112,70 677,84.326888 677,102 C677,119.673112 662.673112,134 645,134 C627.326888,134 613,119.673112 613,102 C613,84.326888 627.326888,70 645,70 Z" id="Rectangle" stroke="#4ED489" fill="#FFFFFF" stroke-linecap="round" stroke-linejoin="round" transform="translate(645.000000, 102.000000) scale(-1, 1) translate(-645.000000, -102.000000) "></path>
                <g id="Group-17" transform="translate(633.000000, 79.000000)" stroke="#4ED489" stroke-linecap="round" stroke-linejoin="round">
                    <path d="M22.0897041,33.8876604 L19.9411905,43.0340489 C19.808255,43.5999654 19.3033625,44 18.7220422,44 L5.27795784,44 C4.69663754,44 4.19174497,43.5999654 4.05880952,43.0340489 L1.91029585,33.8876604 C1.79546047,33.3987973 1.35931245,33.0532301 0.857142857,33.0532301 C0.383755929,33.0532301 -5.30491238e-17,32.6694742 0,32.1960873 L0,30.9116913 C-8.47019865e-17,30.2200471 0.560688412,29.6593587 1.25233262,29.6593587 L22.7476674,29.6593587 C23.4393116,29.6593587 24,30.2200471 24,30.9116913 L24,32.1960873 C24,32.6694742 23.6162441,33.0532301 23.1428571,33.0532301 C22.6406875,33.0532301 22.2045395,33.3987973 22.0897041,33.8876604 Z" id="Path"></path>
                    <ellipse id="Combined-Shape" cx="12" cy="9.80451745" rx="9.75" ry="9.80451745"></ellipse>
                    <path d="M10.5024447,25.562862 L6.33155115,23.7604748" id="Path"></path>
                    <path d="M10.5005988,26.8853383 C8.70106709,27.5729973 7.08107651,27.5791026 5.64062177,26.9036655 C3.88873541,26.0821704 2.61085769,24.6739047 1.80698863,22.6788683 C4.09002161,21.4840907 6.10748481,21.2974418 7.85937823,22.1189218 C8.91349498,22.6132268 9.7960017,23.319962 10.5068931,24.2391386" id="Path"></path>
                    <polyline id="Path" transform="translate(15.942622, 24.025760) scale(-1, 1) rotate(7.000000) translate(-15.942622, -24.025760) " points="18.4580459 24.5904218 18.4580459 24.5904218 13.4271979 23.4610988"></polyline>
                    <path d="M24.0000169,25.7625588 C21.8281444,26.5688811 19.4922436,26.6230476 17.7537511,25.831043 C15.639378,24.8677987 14.0970927,23.2165254 13.1268953,20.8772232 C15.8823102,19.4762734 18.3172041,19.2574206 20.4315772,20.220665 C21.7038075,20.8002545 22.7689135,21.6289447 23.6268953,22.7067356" id="Path" transform="translate(18.563456, 23.014519) scale(-1, 1) rotate(7.000000) translate(-18.563456, -23.014519) "></path>
                    <path d="M8.34405401,8 L15.5,8" id="Path-12"></path>
                    <path d="M8.34405401,5 L15.5,5 L8.34405401,5 Z M9.34405401,11 L10.5,11 L9.34405401,11 Z M10.5,5 C11.8807119,5 13,6.34314575 13,8 C13,9.65685425 11.8807119,11 10.5,11 M9.34405401,11 L13.8219824,15.4982238 L9.34405401,11 Z" id="Shape"></path>
                    <path d="M11.8545039,29.6593587 L11.8545039,19.6064797" id="Path-35"></path>
                </g>
                <path d="M768,36 C784.568542,36 798,49.4314575 798,66 C798,82.5685425 784.568542,96 768,96 C751.431458,96 738,82.5685425 738,66 C738,49.4314575 751.431458,36 768,36 Z" id="Rectangle" stroke="#1E9ED2" fill="#FFFFFF" stroke-linecap="round" stroke-linejoin="round" transform="translate(768.000000, 66.000000) scale(-1, 1) translate(-768.000000, -66.000000) "></path>
                <g id="Group-16" transform="translate(751.000000, 46.000000)" stroke="#1E9ED2" stroke-linecap="round" stroke-linejoin="round">
                    <path d="M17.8244893,25.7105579 C11.2042456,18.8553061 7.89412375,13.5980174 7.89412375,9.93869206 C7.89412375,4.449704 12.3400999,0 17.8244893,0 C23.3088788,0 27.7548549,4.449704 27.7548549,9.93869206 C27.7548549,13.5980174 24.444733,18.8553061 17.8244893,25.7105579 Z M17.8244893,13.4056777 C20.2478242,13.4056777 22.2123253,11.4395294 22.2123253,9.01416257 C22.2123253,6.58879575 20.2478242,4.62264747 17.8244893,4.62264747 C15.4011544,4.62264747 13.4366534,6.58879575 13.4366534,9.01416257 C13.4366534,11.4395294 15.4011544,13.4056777 17.8244893,13.4056777 Z" id="Combined-Shape"></path>
                    <path d="M17.6876318,19.7245151 C20.0477828,18.8653844 23.5880092,17.5766884 28.3083111,15.858427 C29.1810659,15.5407311 30.1438774,15.9969014 30.4588108,16.8773119 C30.578138,17.2108965 30.590721,17.5738385 30.4947874,17.9150175 L25.8105258,34.5741663 C25.6515093,35.1396939 25.2133414,35.5817054 24.6527314,35.7421167 L8.13844476,40.4674684 C7.24582062,40.7228814 6.31695313,40.1999721 6.06376115,39.299518 C5.96782757,38.958339 5.98041053,38.595397 6.09973772,38.2618124 C7.68938942,33.8178692 8.8816282,30.4849117 9.67645405,28.2629401" id="Shape" transform="translate(18.279274, 28.144788) rotate(45.000000) translate(-18.279274, -28.144788) "></path>
                    <polyline id="Path-30" points="9.13850546 33.0433212 13.8122508 29.3054083 22.2123253 30.7877176 28.7793684 24.4428898"></polyline>
                </g>
                <g id="Group-11" transform="translate(384.000000, 115.000000)">
                    <path d="M60,0 C93.137085,-6.08718376e-15 120,26.862915 120,60 C120,93.137085 93.137085,120 60,120 C26.862915,120 4.05812251e-15,93.137085 0,60 C-4.05812251e-15,26.862915 26.862915,6.08718376e-15 60,0 Z" id="Rectangle" fill="#1E9ED2"></path>
                    <g id="Group-10" transform="translate(36.000000, 24.000000)">
                        <path d="M20.422147,33.4218732 L20.4229142,54.4476279 L20.4254351,54.6327061 C20.4254351,58.4042452 17.3772194,61.4618013 13.6169568,61.4618013 C9.85680377,61.4618013 6.80847838,58.4042452 6.80847838,54.6327061 C6.80847838,52.1406089 8.13929842,49.9602918 10.1270889,48.7676448 C10.780004,48.3759408 11.5041073,48.0908203 12.2750666,47.9362495 L12.3042763,47.9118985 L12.3366097,47.9241015 C12.7511894,47.8449471 13.1791957,47.803611 13.6169568,47.803611 C14.0545534,47.803611 14.4825049,47.8449471 14.8973038,47.9241015 C16.3040799,47.4020677 17.3068531,46.0444609 17.3068531,44.4518647 C17.3068531,42.9283087 16.3894072,41.6199535 15.0782612,41.0521311 C14.5980831,41.0009006 14.1106162,40.9745708 13.6169568,40.9745708 C13.1232425,40.9745708 12.6356112,41.0009006 12.1555975,41.0521311 C11.5179175,41.1204017 10.8934448,41.2328668 10.2852485,41.3862283 C9.20405309,41.6590359 8.17426231,42.0613488 7.21330327,42.5760169 C2.92096475,44.874296 1.31450406e-13,49.4113235 1.31450406e-13,54.6327061 C1.31450406e-13,62.1758943 6.09654117,68.2908964 13.6169568,68.2908964 C21.1373723,68.2908964 27.2338587,62.1758943 27.2338587,54.6327061 L27.2299677,54.6327061 L27.2302966,13.6581903 C27.2302966,9.88670613 30.2785123,6.82909514 34.0387749,6.82909514 C34.5243785,6.82909514 34.9981995,6.88005074 35.4550318,6.97712474 C36.1499255,7.12454968 36.8057999,7.37833827 37.4047895,7.72068076 C38.1704878,8.15839323 38.8432961,8.74083721 39.3862229,9.43074419 C39.9846097,10.1911205 40.4251657,11.0824313 40.6585141,12.0545455 C41.3055105,12.6162664 42.1491925,12.9560803 43.0721187,12.9560803 C45.1100534,12.9560803 46.7620151,11.2990063 46.7620151,9.25484567 C46.7620151,9.05179281 46.7458484,8.85253277 46.7143371,8.65821987 C46.4539712,7.99458774 46.1432967,7.35624101 45.7869171,6.74807188 C44.5256412,4.59551374 42.6932154,2.82014799 40.4983268,1.63156871 C39.4642067,1.0715518 38.3495818,0.64197463 37.1764281,0.36432981 C36.1691611,0.126097252 35.1186003,3.55271368e-14 34.0387749,3.55271368e-14 C26.5183594,3.55271368e-14 20.4218182,6.11500211 20.4218182,13.6581903 L20.4229142,13.838926 L20.422147,27.9050359 L20.422147,33.4218732 Z" id="Fill-18" fill="#FFFFFF"></path>
                        <path d="M30.0852245,32.2597886 C31.3711614,31.2853108 35.748334,28.7257125 34.8246405,26.3347569 C33.1806251,22.0795518 27.3791397,29.4192474 24.7208426,31.4482918 C21.4360999,33.9555053 17.4311449,34.3624905 12.6427904,34.8956829 C12.6395022,34.8960127 12.6374745,34.8971121 12.6368717,34.8983763 C12.5677111,35.025518 20.8644019,39.2463679 30.0852245,32.2597886" id="Fill-19" fill="#F9B42A"></path>
                    </g>
                </g>
                <path d="M397.261218,135 C310.933957,140.427756 233,157.712386 233,178.136537 C233,202.913943 325.229342,223 439,223 C552.770658,223 645,202.913943 645,178.136537 C645,158.861757 570.725658,141.838454 490.964542,135.444818" id="Shape" stroke-opacity="0.14" stroke="#000000" stroke-linecap="round" stroke-linejoin="round"></path>
                <g id="Group" transform="translate(291.000000, 182.000000)" stroke="#F3726A" stroke-linecap="round" stroke-linejoin="round">
                    <path d="M27,0 C41.9116882,-2.73923269e-15 54,12.0883118 54,27 C54,41.9116882 41.9116882,54 27,54 C12.0883118,54 1.82615513e-15,41.9116882 0,27 C-1.82615513e-15,12.0883118 12.0883118,2.73923269e-15 27,0 Z" id="Rectangle" fill="#FFFFFF"></path>
                    <path d="M26.9999998,24.4947921 C23.2720778,24.4947921 20.2499999,21.4668845 20.2499999,17.7317711 C20.2499999,13.9966577 23.2720778,10.96875 26.9999998,10.96875 C30.7279218,10.96875 33.7499999,13.9966577 33.7499999,17.7317711 C33.7499999,21.4668845 30.7279218,24.4947921 26.9999998,24.4947921 Z M26.9999998,27.5454529 C29.058612,27.4309066 32.0207918,25.9220558 33.6545355,26.2464447 C37.4553558,26.7050203 40.4999998,32.675873 40.4999998,37.7112611 C39.7511496,40.3616477 31.3928332,40.5 26.9999998,40.5 M27,40.5 C22.6071664,40.5 13.979173,40.2933143 13.5,37.7112611 C13.5,32.675873 16.5446438,26.7050203 20.3454641,26.2464447 C21.9792078,25.9220558 24.9413876,27.4309066 27,27.5454529 L27,27.5454529" id="Leads-Copy"></path>
                </g>
                <g id="Group-Copy" transform="translate(658.000000, 185.000000)" stroke="#22D1B4" stroke-linecap="round" stroke-linejoin="round">
                    <path d="M36.4499981,0 L36.5500019,0 C56.68078,-3.69796394e-15 73,16.31922 73,36.4499981 L73,36.5500019 C73,56.68078 56.68078,73 36.5500019,73 L36.4499981,73 C16.31922,73 2.46530929e-15,56.68078 0,36.5500019 L0,36.4499981 C-2.46530929e-15,16.31922 16.31922,3.69796394e-15 36.4499981,0 Z" id="Rectangle" fill="#FFFFFF" transform="translate(36.500000, 36.500000) scale(-1, 1) translate(-36.500000, -36.500000) "></path>
                    <path d="M35.6768957,48.9088508 L21.1186823,48.9088508 C20.6934533,48.9088508 20.4099672,48.6248542 20.4099672,48.1988593 L20.4099672,33.1033465 L16.8663919,33.1033465 C16.5829058,33.1033465 16.2994198,32.9613482 16.2285483,32.6773516 C16.0868053,32.393355 16.1576768,32.1093584 16.3702913,31.8963609 L32.670738,18.1880624 C32.954224,17.9040658 33.4503246,17.9040658 33.6629391,18.1880624 L49.9633857,31.8963609 C50.1760003,32.1093584 50.1760003,32.393355 50.1051288,32.6773516 C50.0342573,32.9613482 49.7507712,33.1033465 49.4672852,33.1033465 L45.9237098,33.1033465 L45.9237098,37.164298 L45.9237098,37.164298 M26.459171,34.2284101 C25.9670854,34.2284101 25.5681711,34.6273244 25.5681711,35.11941 L25.5681711,38.0561232 C25.5681711,38.5482089 25.9670854,38.9471232 26.459171,38.9471232 L29.9068188,38.9471232 C30.3989045,38.9471232 30.7978188,38.5482089 30.7978188,38.0561232 L30.7978188,35.11941 C30.7978188,34.6273244 30.3989045,34.2284101 29.9068188,34.2284101 L26.459171,34.2284101 Z" id="Shape"></path>
                    <path d="M50.0468718,42.5881205 L60.3100723,42.5881205 C60.5376021,42.5881205 60.7565115,42.675166 60.9219141,42.8314088 L63.1113532,44.8995982 C63.4690745,45.2375091 63.4851339,45.8014305 63.147223,46.1591518 C63.1356092,46.1714464 63.1236478,46.1834079 63.1113532,46.1950216 L60.9341599,48.2516434 C60.7910714,48.3868078 60.5655029,48.380384 60.4303385,48.2372955 C60.4270341,48.2337974 60.4238009,48.2302327 60.4206409,48.2266037 L59.4573334,47.1203204 C59.3280739,46.9718761 59.1029505,46.9563236 58.9545061,47.0855831 C58.9421418,47.0963494 58.9305351,47.1079561 58.9197688,47.1203204 L57.9815216,48.1978239 C57.8522621,48.3462682 57.6271387,48.3618207 57.4786944,48.2325612 C57.46633,48.2217949 57.4547234,48.2101882 57.443957,48.1978239 L56.5057098,47.1203204 C56.3764504,46.9718761 56.1513269,46.9563236 56.0028826,47.0855831 C55.9905183,47.0963494 55.9789116,47.1079561 55.9681452,47.1203204 L54.8676577,48.3841443 C54.7999713,48.4618767 54.7019471,48.5064993 54.5988754,48.5064993 L50.0041949,48.5064993 C48.8768232,50.9128267 46.4377166,52.578961 43.6104557,52.578961 C39.7113119,52.578961 36.5504313,49.4100013 36.5504313,45.5008914 C36.5504313,41.5917815 39.7113119,38.4228217 43.6104557,38.4228217 C46.4739336,38.4228217 48.939249,40.1319155 50.0468718,42.5881205 Z" id="Combined-Shape"></path>
                </g>
            </g>
        </g>
    </g>
</svg>