<?xml version="1.0" encoding="UTF-8"?>
<svg width="193px" height="189px" viewBox="0 0 193 189" version="1.1" xmlns="http://www.w3.org/2000/svg" xmlns:xlink="http://www.w3.org/1999/xlink">
    <!-- Generator: Sketch 55.2 (78181) - https://sketchapp.com -->
    <title>Icon/Track_Big</title>
    <desc>Created with Sketch.</desc>
    <g id="Desktop" stroke="none" stroke-width="1" fill="none" fill-rule="evenodd" stroke-linecap="round" stroke-linejoin="round">
        <g id="DrF_Lead-Gen-3" transform="translate(-629.000000, -1108.000000)">
            <g id="Icon/Track_Big" transform="translate(616.000000, 1089.000000)">
                <ellipse id="Oval" stroke-opacity="0.6" stroke="#FFFFFF" transform="translate(112.500000, 112.500000) rotate(45.000000) translate(-112.500000, -112.500000) " cx="112.5" cy="112.5" rx="126.5" ry="31.5"></ellipse>
                <ellipse id="Oval" stroke-opacity="0.6" stroke="#FFFFFF" transform="translate(112.500000, 112.500000) scale(-1, 1) rotate(45.000000) translate(-112.500000, -112.500000) " cx="112.5" cy="112.5" rx="126.5" ry="31.5"></ellipse>
                <circle id="Oval-Copy-2" stroke="#FFFFFF" stroke-width="2" fill="#FFFFFF" cx="104.5" cy="116.5" r="90.5"></circle>
                <path d="M69.8000002,77 L109.2,77 C111.850967,77 114,79.1490333 114,81.8000002 L114,153.2 C114,155.850967 111.850967,158 109.2,158 L69.8000002,158 C67.1490333,158 65,155.850967 65,153.2 L65,81.8000002 C65,79.1490333 67.1490333,77 69.8000002,77 Z M82.8941177,84.508493 C82.5627468,84.508493 82.2941176,84.7771222 82.2941176,85.1084931 L82.2941176,88.0067073 C82.2941176,88.3380782 82.5627468,88.6067073 82.8941177,88.6067073 L96.1058823,88.6067073 C96.4372532,88.6067073 96.7058824,88.3380782 96.7058824,88.0067073 L96.7058824,85.1084931 C96.7058824,84.7771222 96.4372532,84.508493 96.1058823,84.508493 L82.8941177,84.508493 Z M89.5,151.108885 C91.8878194,151.108885 93.8235294,149.166121 93.8235294,146.769599 C93.8235294,144.373078 91.8878194,142.430314 89.5,142.430314 C87.1121806,142.430314 85.1764706,144.373078 85.1764706,146.769599 C85.1764706,149.166121 87.1121806,151.108885 89.5,151.108885 Z" id="Combined-Shape" stroke="#265182" stroke-width="3"></path>
                <path d="M129.626645,136.50967 C124.903692,136.50967 121.361477,136.50967 119,136.50967 M120.070898,93.8857859 C122.889998,92.0497815 126.168117,91 129.626645,91 M129.626645,91 C139.268549,91 147.50827,99.1590887 148.308987,109.766539 C148.519532,119.787007 149.231931,125.563484 150.446186,127.095971 C152.267568,129.3947 154,130.419673 154,132.586422 C154,134.753172 152.408903,136.50967 150.446186,136.50967 L129.626645,136.50967 M130.821418,149 C127.150227,149 124.174139,147.089809 124.174139,144.733468 C124.174139,142.377128 127.150227,142.17355 130.821418,142.17355 C134.492608,142.17355 137.468696,142.377128 137.468696,144.733468 C137.468696,147.089809 134.492608,149 130.821418,149 Z" id="Shape" stroke="#265182" stroke-width="3"></path>
            </g>
        </g>
    </g>
</svg>