<?xml version="1.0" encoding="UTF-8"?>
<svg width="58px" height="52px" viewBox="0 0 58 52" version="1.1" xmlns="http://www.w3.org/2000/svg" xmlns:xlink="http://www.w3.org/1999/xlink">
    <!-- Generator: Sketch 55.2 (78181) - https://sketchapp.com -->
    <title>Icon/Track</title>
    <desc>Created with Sketch.</desc>
    <g id="Mobile" stroke="none" stroke-width="1" fill="none" fill-rule="evenodd">
        <g id="Drf_Home-Mobile" transform="translate(-216.000000, -4605.000000)">
            <g id="Group-18" transform="translate(0.000000, 3654.000000)">
                <g id="want-to-be-a-part-of-+-Join-as-lead-generat-+-Group-6-+-Group-9-+-Group-13-+-Rectangle-Copy-17-+-Apple-iPhone-XS-Silver-+-Rectangle-Copy-17-+-Rectangle-Copy-15-+-Group-7-+-Group-8-Mask" transform="translate(0.000000, 716.000000)">
                    <g id="Group-7" transform="translate(174.000000, 225.000000)">
                        <g id="Icon/Track" transform="translate(32.000000, 0.000000)">
                            <rect id="Rectangle-Copy-5" fill-opacity="0" fill="#D8D8D8" x="0" y="0" width="72" height="72"></rect>
                            <path d="M13.8,10.8 L38.4,10.8 C40.0568542,10.8 41.4,12.1431458 41.4,13.8 L41.4,58.2 C41.4,59.8568542 40.0568542,61.2 38.4,61.2 L13.8,61.2 C12.1431458,61.2 10.8,59.8568542 10.8,58.2 L10.8,13.8 C10.8,12.1431458 12.1431458,10.8 13.8,10.8 Z M21.975,14.85 C21.7678932,14.85 21.6,15.0178932 21.6,15.225 L21.6,17.025 C21.6,17.2321068 21.7678932,17.4 21.975,17.4 L30.225,17.4 C30.4321068,17.4 30.6,17.2321068 30.6,17.025 L30.6,15.225 C30.6,15.0178932 30.4321068,14.85 30.225,14.85 L21.975,14.85 Z M26.1,57.4 C27.5911688,57.4 28.8,56.1911688 28.8,54.7 C28.8,53.2088312 27.5911688,52 26.1,52 C24.6088312,52 23.4,53.2088312 23.4,54.7 C23.4,56.1911688 24.6088312,57.4 26.1,57.4 Z" id="Combined-Shape" stroke="#F3726A" stroke-width="1.5" stroke-linecap="round" stroke-linejoin="round"></path>
                            <path d="M51.1500009,48.3 C48.1852391,48.3 45.9616678,48.3 44.479287,48.3 M45.151527,21.6071961 C46.9211736,20.4574157 48.9789623,19.8 51.1500009,19.8 M51.1500009,19.8 C57.202558,19.8 62.3749171,24.9095521 62.8775546,31.5523672 C63.0097208,37.8275906 63.4569187,41.4450549 64.2191484,42.4047601 C65.362493,43.8443179 66.4500009,44.486197 66.4500009,45.8431034 C66.4500009,47.2000099 65.4512142,48.3 64.2191484,48.3 L51.1500009,48.3 M51.9000009,55.5 C49.5954672,55.5 47.7272736,54.3037608 47.7272736,52.828125 C47.7272736,51.3524892 49.5954672,51.225 51.9000009,51.225 C54.2045345,51.225 56.0727281,51.3524892 56.0727281,52.828125 C56.0727281,54.3037608 54.2045345,55.5 51.9000009,55.5 Z" id="Shape" stroke="#F3726A" stroke-width="1.5" stroke-linecap="round" stroke-linejoin="round"></path>
                        </g>
                    </g>
                </g>
            </g>
        </g>
    </g>
</svg>